<svg xmlns="http://www.w3.org/2000/svg" xmlns:xlink="http://www.w3.org/1999/xlink" width="200" zoomAndPan="magnify" viewBox="0 0 150 44.999999" height="60" preserveAspectRatio="xMidYMid meet" version="1.2"><defs/><g id="b93c7fb6e4"><g style="fill:#fdcb05;fill-opacity:1;"><g transform="translate(10.083173, 27.643884)"><path style="stroke:none" d="M 0 -0.90625 L 7.65625 -14.671875 L 8.03125 -14.671875 L 15.734375 -0.90625 L 11.015625 1.046875 L 10.34375 -0.59375 L 5.140625 -0.59375 L 4.453125 1.046875 Z M 6.390625 -3.59375 L 9.09375 -3.59375 L 7.75 -6.828125 Z M 6.390625 -3.59375 "/></g></g><g style="fill:#ff6c10;fill-opacity:1;"><g transform="translate(25.827457, 27.643884)"><path style="stroke:none" d="M 11.65625 -4.125 C 11.664062 -3.5 11.550781 -2.898438 11.3125 -2.328125 C 11.039062 -1.742188 10.660156 -1.257812 10.171875 -0.875 C 9.648438 -0.476562 9.078125 -0.238281 8.453125 -0.15625 C 7.828125 -0.0507812 7.195312 0 6.5625 0 L 0.5 0 L 0.5 -13.828125 L 6.71875 -13.828125 C 7.34375 -13.828125 7.953125 -13.785156 8.546875 -13.703125 C 9.109375 -13.597656 9.617188 -13.414062 10.078125 -13.15625 C 10.515625 -12.882812 10.863281 -12.515625 11.125 -12.046875 C 11.394531 -11.566406 11.53125 -10.945312 11.53125 -10.1875 C 11.5 -9.457031 11.320312 -8.832031 11 -8.3125 C 10.664062 -7.789062 10.160156 -7.382812 9.484375 -7.09375 C 10.015625 -6.957031 10.484375 -6.6875 10.890625 -6.28125 C 11.109375 -6.03125 11.285156 -5.738281 11.421875 -5.40625 C 11.546875 -5.0625 11.625 -4.632812 11.65625 -4.125 Z M 4.984375 -5.640625 L 4.984375 -3.703125 L 5.859375 -3.703125 C 6.171875 -3.703125 6.460938 -3.769531 6.734375 -3.90625 C 7.003906 -4.039062 7.148438 -4.296875 7.171875 -4.671875 C 7.191406 -5.066406 7.070312 -5.332031 6.8125 -5.46875 C 6.539062 -5.582031 6.238281 -5.640625 5.90625 -5.640625 Z M 5.640625 -8.234375 C 5.878906 -8.234375 6.097656 -8.25 6.296875 -8.28125 C 6.503906 -8.289062 6.6875 -8.34375 6.84375 -8.4375 C 7.082031 -8.582031 7.203125 -8.859375 7.203125 -9.265625 C 7.203125 -9.585938 7.082031 -9.820312 6.84375 -9.96875 C 6.6875 -10.039062 6.503906 -10.082031 6.296875 -10.09375 C 6.078125 -10.113281 5.875 -10.125 5.6875 -10.125 L 4.984375 -10.125 L 4.984375 -8.234375 Z M 5.640625 -8.234375 "/></g></g><g style="fill:#ff3131;fill-opacity:1;"><g transform="translate(37.861396, 27.643884)"><path style="stroke:none" d="M 0.4375 -6.890625 C 0.4375 -7.941406 0.640625 -8.929688 1.046875 -9.859375 C 1.441406 -10.773438 1.992188 -11.566406 2.703125 -12.234375 C 3.398438 -12.890625 4.175781 -13.363281 5.03125 -13.65625 C 5.863281 -13.9375 6.753906 -14.078125 7.703125 -14.078125 C 8.203125 -14.078125 8.6875 -14.039062 9.15625 -13.96875 C 9.625 -13.894531 10.082031 -13.742188 10.53125 -13.515625 C 11.144531 -13.242188 11.703125 -12.851562 12.203125 -12.34375 C 12.691406 -11.8125 13.03125 -11.21875 13.21875 -10.5625 L 10.34375 -8.453125 C 10.050781 -9.035156 9.675781 -9.507812 9.21875 -9.875 C 8.769531 -10.226562 8.207031 -10.40625 7.53125 -10.40625 C 7.050781 -10.40625 6.625 -10.3125 6.25 -10.125 C 5.875 -9.914062 5.5625 -9.648438 5.3125 -9.328125 C 5.050781 -8.992188 4.851562 -8.613281 4.71875 -8.1875 C 4.582031 -7.757812 4.515625 -7.328125 4.515625 -6.890625 C 4.515625 -6.453125 4.585938 -6.03125 4.734375 -5.625 C 4.890625 -5.195312 5.097656 -4.820312 5.359375 -4.5 C 5.617188 -4.175781 5.941406 -3.921875 6.328125 -3.734375 C 6.703125 -3.523438 7.125 -3.421875 7.59375 -3.421875 C 8.207031 -3.421875 8.765625 -3.582031 9.265625 -3.90625 C 9.765625 -4.21875 10.144531 -4.648438 10.40625 -5.203125 L 13.328125 -2.984375 C 12.023438 -0.816406 10.097656 0.265625 7.546875 0.265625 C 6.523438 0.265625 5.550781 0.0859375 4.625 -0.265625 C 3.707031 -0.597656 2.894531 -1.160156 2.1875 -1.953125 C 1.53125 -2.671875 1.078125 -3.429688 0.828125 -4.234375 C 0.566406 -5.035156 0.4375 -5.921875 0.4375 -6.890625 Z M 0.4375 -6.890625 "/></g></g><g style="fill:#000000;fill-opacity:1;"><g transform="translate(51.2137, 27.643884)"><path style="stroke:none" d=""/></g></g><g style="fill:#000000;fill-opacity:1;"><g transform="translate(56.703116, 27.643884)"><path style="stroke:none" d=""/></g></g><g style="fill:#006aa6;fill-opacity:1;"><g transform="translate(62.192536, 27.643884)"><path style="stroke:none" d="M 0.796875 -13.828125 L 5.265625 -13.828125 L 5.265625 -3.78125 L 9.75 -3.78125 L 9.640625 0 L 0.796875 0 Z M 0.796875 -13.828125 "/></g></g><g style="fill:#006aa6;fill-opacity:1;"><g transform="translate(72.600478, 27.643884)"><path style="stroke:none" d="M 9.6875 -13.828125 L 9.546875 -10.046875 L 5.15625 -10.046875 L 5.15625 -8.296875 L 8.6875 -8.296875 L 8.5625 -5.265625 L 5.15625 -5.265625 L 5.15625 -3.78125 L 9.6875 -3.78125 L 9.546875 0 L 0.6875 0 L 0.6875 -13.828125 Z M 9.6875 -13.828125 "/></g></g><g style="fill:#006aa6;fill-opacity:1;"><g transform="translate(83.315835, 27.643884)"><path style="stroke:none" d="M 8.40625 0 L 3.859375 0 L 3.859375 -10.046875 L 0 -10.046875 L 0.125 -13.828125 L 12.265625 -13.828125 L 12.15625 -10.046875 L 8.40625 -10.046875 Z M 8.40625 0 "/></g></g><g style="fill:#006aa6;fill-opacity:1;"><g transform="translate(96.029337, 27.643884)"><path style="stroke:none" d="M 6.71875 -13.828125 C 7.445312 -13.828125 8.140625 -13.75 8.796875 -13.59375 C 9.460938 -13.414062 10.039062 -13.148438 10.53125 -12.796875 C 11.03125 -12.429688 11.425781 -11.960938 11.71875 -11.390625 C 12 -10.804688 12.132812 -10.097656 12.125 -9.265625 C 12.101562 -8.515625 11.984375 -7.847656 11.765625 -7.265625 C 11.535156 -6.679688 11.113281 -6.15625 10.5 -5.6875 L 10.25 -5.515625 L 12.515625 -1.515625 L 8.453125 0.4375 L 5.734375 -4.890625 L 5.515625 -4.875 L 5.484375 0 L 1.015625 0 L 1.015625 -13.828125 Z M 5.484375 -10.125 L 5.484375 -7.546875 L 5.75 -7.546875 C 5.957031 -7.546875 6.171875 -7.554688 6.390625 -7.578125 C 6.597656 -7.585938 6.796875 -7.628906 6.984375 -7.703125 C 7.203125 -7.773438 7.390625 -7.914062 7.546875 -8.125 C 7.710938 -8.3125 7.796875 -8.566406 7.796875 -8.890625 C 7.804688 -9.210938 7.738281 -9.460938 7.59375 -9.640625 C 7.4375 -9.796875 7.253906 -9.910156 7.046875 -9.984375 C 6.898438 -10.046875 6.742188 -10.082031 6.578125 -10.09375 C 6.421875 -10.113281 6.265625 -10.125 6.109375 -10.125 Z M 5.484375 -10.125 "/></g></g><g style="fill:#006aa6;fill-opacity:1;"><g transform="translate(108.633039, 27.643884)"><path style="stroke:none" d="M 0 -0.90625 L 7.65625 -14.671875 L 8.03125 -14.671875 L 15.734375 -0.90625 L 11.015625 1.046875 L 10.34375 -0.59375 L 5.140625 -0.59375 L 4.453125 1.046875 Z M 6.390625 -3.59375 L 9.09375 -3.59375 L 7.75 -6.828125 Z M 6.390625 -3.59375 "/></g></g><g style="fill:#006aa6;fill-opacity:1;"><g transform="translate(124.37668, 27.643884)"><path style="stroke:none" d="M 6.40625 -14.09375 C 6.976562 -14.09375 7.566406 -14.019531 8.171875 -13.875 C 8.753906 -13.726562 9.300781 -13.507812 9.8125 -13.21875 C 10.320312 -12.925781 10.769531 -12.5625 11.15625 -12.125 C 11.53125 -11.675781 11.800781 -11.15625 11.96875 -10.5625 L 9.09375 -8.734375 C 8.84375 -9.242188 8.46875 -9.644531 7.96875 -9.9375 C 7.46875 -10.238281 6.929688 -10.398438 6.359375 -10.421875 L 5.96875 -10.421875 C 5.84375 -10.421875 5.703125 -10.414062 5.546875 -10.40625 C 5.390625 -10.375 5.242188 -10.332031 5.109375 -10.28125 C 4.960938 -10.21875 4.847656 -10.132812 4.765625 -10.03125 C 4.671875 -9.925781 4.625 -9.785156 4.625 -9.609375 C 4.625 -9.367188 4.738281 -9.1875 4.96875 -9.0625 C 5.164062 -8.9375 5.390625 -8.835938 5.640625 -8.765625 L 8.78125 -7.875 C 9.289062 -7.726562 9.742188 -7.5625 10.140625 -7.375 C 10.535156 -7.164062 10.875 -6.925781 11.15625 -6.65625 C 11.425781 -6.363281 11.632812 -6.019531 11.78125 -5.625 C 11.9375 -5.207031 12.015625 -4.722656 12.015625 -4.171875 C 12.015625 -3.421875 11.851562 -2.757812 11.53125 -2.1875 C 11.1875 -1.625 10.773438 -1.160156 10.296875 -0.796875 C 9.753906 -0.398438 9.160156 -0.128906 8.515625 0.015625 C 7.867188 0.179688 7.1875 0.265625 6.46875 0.265625 C 5.21875 0.265625 4.054688 0 2.984375 -0.53125 C 1.898438 -1.039062 1.03125 -1.84375 0.375 -2.9375 L 3.234375 -5.109375 C 3.390625 -4.816406 3.59375 -4.5625 3.84375 -4.34375 C 4.070312 -4.125 4.34375 -3.945312 4.65625 -3.8125 C 4.945312 -3.664062 5.257812 -3.554688 5.59375 -3.484375 C 5.914062 -3.410156 6.238281 -3.375 6.5625 -3.375 C 6.707031 -3.375 6.863281 -3.390625 7.03125 -3.421875 C 7.175781 -3.441406 7.3125 -3.488281 7.4375 -3.5625 C 7.570312 -3.613281 7.679688 -3.691406 7.765625 -3.796875 C 7.859375 -3.898438 7.90625 -4.03125 7.90625 -4.1875 C 7.882812 -4.382812 7.8125 -4.539062 7.6875 -4.65625 C 7.539062 -4.757812 7.332031 -4.851562 7.0625 -4.9375 L 3.859375 -5.953125 C 3.410156 -6.097656 2.992188 -6.28125 2.609375 -6.5 C 2.234375 -6.707031 1.910156 -6.960938 1.640625 -7.265625 C 1.367188 -7.554688 1.160156 -7.898438 1.015625 -8.296875 C 0.847656 -8.691406 0.765625 -9.140625 0.765625 -9.640625 C 0.796875 -10.410156 0.976562 -11.082031 1.3125 -11.65625 C 1.632812 -12.207031 2.0625 -12.671875 2.59375 -13.046875 C 3.113281 -13.410156 3.710938 -13.679688 4.390625 -13.859375 C 5.046875 -14.015625 5.71875 -14.09375 6.40625 -14.09375 Z M 6.40625 -14.09375 "/></g></g></g></svg>