<svg xmlns="http://www.w3.org/2000/svg" xmlns:xlink="http://www.w3.org/1999/xlink" width="200" zoomAndPan="magnify" viewBox="0 0 150 44.999999" height="60" preserveAspectRatio="xMidYMid meet" version="1.2"><defs><clipPath id="4185cddff6"><path d="M 6.1875 9.628906 L 53 9.628906 L 53 32 L 6.1875 32 Z M 6.1875 9.628906 "/></clipPath><clipPath id="2b56e56dd0"><path d="M 6.1875 19 L 46 19 L 46 32 L 6.1875 32 Z M 6.1875 19 "/></clipPath><clipPath id="206a0e92d4"><path d="M 6.1875 9.628906 L 53.4375 9.628906 L 53.4375 32 L 6.1875 32 Z M 6.1875 9.628906 "/></clipPath><clipPath id="0bb758eb83"><path d="M 6.1875 19 L 46 19 L 46 34 L 6.1875 34 Z M 6.1875 19 "/></clipPath></defs><g id="41322be9ab"><path style=" stroke:none;fill-rule:nonzero;fill:#3566a0;fill-opacity:1;" d="M 18.066406 27.816406 C 17.964844 27.761719 17.859375 27.875 17.917969 27.976562 C 18.800781 29.421875 22.238281 34.75 24.441406 33.757812 C 26.683594 32.746094 19.75 28.757812 18.066406 27.816406 Z M 18.066406 27.816406 "/><path style=" stroke:none;fill-rule:nonzero;fill:#000000;fill-opacity:1;" d="M 23.855469 33.972656 C 22.972656 33.972656 21.882812 33.261719 20.617188 31.84375 C 19.351562 30.4375 18.253906 28.707031 17.839844 28.027344 C 17.789062 27.945312 17.800781 27.84375 17.863281 27.777344 C 17.929688 27.707031 18.027344 27.691406 18.109375 27.738281 C 18.792969 28.117188 20.546875 29.117188 22.097656 30.191406 C 22.960938 30.792969 23.636719 31.332031 24.109375 31.796875 C 24.707031 32.382812 24.988281 32.847656 24.972656 33.21875 C 24.960938 33.488281 24.796875 33.699219 24.476562 33.84375 C 24.285156 33.929688 24.078125 33.972656 23.855469 33.972656 Z M 18.011719 27.898438 C 18.003906 27.898438 18 27.898438 17.996094 27.90625 C 17.988281 27.917969 17.992188 27.921875 17.992188 27.929688 C 18.40625 28.605469 19.5 30.324219 20.75 31.722656 C 21.441406 32.492188 22.085938 33.058594 22.660156 33.398438 C 23.335938 33.800781 23.917969 33.890625 24.398438 33.675781 C 24.652344 33.558594 24.777344 33.410156 24.789062 33.214844 C 24.804688 32.808594 24.332031 31.980469 21.988281 30.351562 C 20.445312 29.277344 18.699219 28.28125 18.015625 27.902344 C 18.019531 27.898438 18.015625 27.898438 18.011719 27.898438 Z M 18.011719 27.898438 "/><g clip-rule="nonzero" clip-path="url(#4185cddff6)"><path style=" stroke:none;fill-rule:nonzero;fill:#3169ad;fill-opacity:1;" d="M 52.898438 13.238281 C 52.886719 13.152344 52.769531 13.144531 52.738281 13.222656 C 52.28125 14.632812 50.726562 15.441406 49.035156 15.144531 C 47.613281 14.890625 46.386719 15.746094 45.910156 16.140625 C 45.835938 16.203125 45.726562 16.140625 45.738281 16.046875 C 46.042969 13.492188 44.503906 13.539062 43.136719 12.777344 C 42.054688 12.175781 42.460938 10.582031 42.71875 9.859375 C 42.75 9.773438 42.644531 9.707031 42.582031 9.769531 C 38.75 13.71875 41.519531 16.738281 42.808594 17.800781 C 43.105469 18.046875 43.113281 18.503906 42.828125 18.761719 C 42.195312 19.332031 40.960938 20.289062 38.871094 21.371094 C 37.515625 22.070312 36.007812 21.949219 34.046875 21.421875 C 33.546875 21.285156 33.183594 20.84375 33.148438 20.320312 C 33.082031 19.378906 33.550781 18.515625 33.699219 18.273438 C 33.714844 18.242188 33.691406 18.210938 33.660156 18.214844 C 32.066406 18.492188 30.984375 19.097656 30.289062 19.648438 C 29.972656 19.898438 29.550781 19.980469 29.164062 19.851562 C 27.035156 19.152344 24.507812 18.382812 21.433594 17.722656 C 13.28125 15.980469 8.167969 18.242188 6.667969 19.058594 C 6.402344 19.203125 6.300781 19.539062 6.4375 19.8125 C 7.558594 22.035156 13 31.164062 26.214844 31 C 39.636719 30.835938 44.648438 22.21875 45.574219 20.359375 C 45.679688 20.148438 45.894531 20.015625 46.128906 20.015625 C 53.4375 19.988281 53.121094 14.695312 52.898438 13.238281 Z M 52.898438 13.238281 "/></g><g clip-rule="nonzero" clip-path="url(#2b56e56dd0)"><path style=" stroke:none;fill-rule:nonzero;fill:#9ab5d6;fill-opacity:1;" d="M 26.214844 31 C 13 31.164062 7.558594 22.035156 6.429688 19.8125 C 6.429688 19.8125 8.402344 19.363281 8.65625 19.371094 C 8.90625 19.378906 9.707031 19.363281 10.691406 19.59375 C 11.675781 19.824219 12.726562 21.214844 13.324219 22.167969 C 13.925781 23.125 15.171875 24.417969 15.605469 24.625 C 16.039062 24.832031 16.910156 24.648438 17.320312 24.464844 C 17.730469 24.277344 18.554688 24.023438 18.921875 24.117188 C 19.289062 24.21875 19.332031 24.613281 19.402344 24.972656 C 19.472656 25.332031 19.746094 25.601562 20.0625 25.855469 C 20.382812 26.109375 21 26.457031 21 26.457031 L 24.613281 27.433594 C 24.613281 27.433594 26.347656 27.757812 27.539062 27.847656 C 28.726562 27.941406 31.195312 27.800781 32.886719 27.664062 C 34.578125 27.523438 36.179688 26.78125 37.367188 26.273438 C 38.554688 25.761719 40.203125 24.789062 41.117188 24.183594 C 42.03125 23.582031 45.5625 20.371094 45.570312 20.359375 C 44.648438 22.222656 39.636719 30.835938 26.214844 31 Z M 26.214844 31 "/></g><g clip-rule="nonzero" clip-path="url(#206a0e92d4)"><path style=" stroke:none;fill-rule:nonzero;fill:#000000;fill-opacity:1;" d="M 17.605469 22.804688 C 17.605469 23.226562 17.226562 23.566406 16.757812 23.566406 C 16.292969 23.566406 15.914062 23.226562 15.914062 22.804688 C 15.914062 22.386719 16.292969 22.046875 16.757812 22.046875 C 17.226562 22.046875 17.605469 22.386719 17.605469 22.804688 Z M 51.871094 18.019531 C 50.714844 19.394531 48.785156 20.097656 46.132812 20.109375 C 45.929688 20.109375 45.75 20.222656 45.660156 20.402344 C 45.164062 21.40625 43.671875 23.992188 40.640625 26.386719 C 38.910156 27.753906 36.949219 28.839844 34.804688 29.617188 C 32.207031 30.558594 29.320312 31.058594 26.21875 31.09375 C 26.101562 31.097656 25.988281 31.097656 25.871094 31.097656 C 22.941406 31.097656 20.1875 30.636719 17.679688 29.722656 C 15.515625 28.9375 13.515625 27.8125 11.734375 26.375 C 8.566406 23.820312 6.914062 20.96875 6.351562 19.855469 C 6.1875 19.539062 6.3125 19.144531 6.621094 18.976562 C 7.390625 18.558594 9.046875 17.789062 11.535156 17.339844 C 14.605469 16.78125 17.941406 16.882812 21.449219 17.632812 C 24.601562 18.308594 27.132812 19.089844 29.1875 19.765625 C 29.539062 19.882812 29.929688 19.808594 30.226562 19.574219 C 31.144531 18.847656 32.292969 18.359375 33.640625 18.125 C 33.691406 18.113281 33.742188 18.136719 33.769531 18.179688 C 33.796875 18.222656 33.800781 18.277344 33.773438 18.324219 C 33.628906 18.558594 33.171875 19.402344 33.234375 20.3125 C 33.269531 20.796875 33.605469 21.207031 34.066406 21.332031 C 36.246094 21.917969 37.625 21.90625 38.824219 21.289062 C 40.867188 20.234375 42.09375 19.292969 42.761719 18.691406 C 42.878906 18.585938 42.941406 18.433594 42.941406 18.277344 C 42.9375 18.121094 42.867188 17.972656 42.746094 17.871094 C 41.964844 17.226562 40.640625 15.863281 40.539062 14.011719 C 40.464844 12.582031 41.125 11.132812 42.511719 9.703125 C 42.570312 9.640625 42.660156 9.632812 42.730469 9.675781 C 42.800781 9.722656 42.828125 9.808594 42.800781 9.886719 C 42.671875 10.261719 42.511719 10.820312 42.515625 11.363281 C 42.519531 12.003906 42.738281 12.449219 43.179688 12.695312 C 43.453125 12.847656 43.742188 12.96875 44.019531 13.085938 C 44.5625 13.316406 45.078125 13.535156 45.421875 13.960938 C 45.8125 14.433594 45.941406 15.097656 45.824219 16.054688 C 45.824219 16.054688 45.820312 16.0625 45.832031 16.066406 C 45.839844 16.070312 45.84375 16.066406 45.847656 16.066406 C 46.324219 15.671875 47.585938 14.785156 49.046875 15.046875 C 50.6875 15.335938 52.203125 14.554688 52.648438 13.1875 C 52.671875 13.109375 52.746094 13.0625 52.828125 13.066406 C 52.910156 13.074219 52.972656 13.132812 52.988281 13.21875 C 53.125 14.105469 53.289062 16.332031 51.871094 18.019531 Z M 52.8125 13.292969 C 52.390625 14.527344 51.160156 15.300781 49.730469 15.300781 C 49.496094 15.300781 49.261719 15.277344 49.019531 15.238281 C 47.632812 14.992188 46.421875 15.839844 45.96875 16.21875 C 45.90625 16.269531 45.816406 16.277344 45.746094 16.238281 C 45.675781 16.199219 45.636719 16.117188 45.644531 16.035156 C 45.878906 14.082031 45.027344 13.71875 43.949219 13.265625 C 43.667969 13.144531 43.378906 13.019531 43.089844 12.863281 C 42.589844 12.582031 42.332031 12.082031 42.332031 11.367188 C 42.332031 10.816406 42.484375 10.257812 42.617188 9.871094 C 41.289062 11.25 40.652344 12.640625 40.726562 14.007812 C 40.824219 15.789062 42.105469 17.105469 42.867188 17.734375 C 43.027344 17.867188 43.125 18.066406 43.128906 18.277344 C 43.132812 18.492188 43.042969 18.699219 42.882812 18.835938 C 42.207031 19.445312 40.972656 20.394531 38.910156 21.457031 C 37.664062 22.101562 36.246094 22.117188 34.019531 21.515625 C 33.480469 21.371094 33.09375 20.894531 33.050781 20.332031 C 32.992188 19.46875 33.367188 18.675781 33.554688 18.332031 C 32.289062 18.570312 31.207031 19.035156 30.34375 19.726562 C 29.996094 20 29.546875 20.082031 29.132812 19.945312 C 27.082031 19.273438 24.558594 18.492188 21.414062 17.820312 C 19.410156 17.390625 17.460938 17.175781 15.585938 17.175781 C 14.207031 17.175781 12.863281 17.292969 11.570312 17.527344 C 9.109375 17.972656 7.46875 18.734375 6.710938 19.148438 C 6.488281 19.269531 6.402344 19.550781 6.515625 19.777344 C 7.074219 20.875 8.710938 23.703125 11.851562 26.234375 C 13.617188 27.65625 15.597656 28.773438 17.742188 29.550781 C 20.328125 30.484375 23.179688 30.945312 26.214844 30.90625 C 29.296875 30.871094 32.164062 30.375 34.742188 29.441406 C 36.867188 28.671875 38.8125 27.597656 40.523438 26.242188 C 43.527344 23.871094 45 21.3125 45.496094 20.320312 C 45.617188 20.074219 45.859375 19.921875 46.128906 19.921875 C 48.726562 19.914062 50.609375 19.234375 51.726562 17.902344 C 53.078125 16.296875 52.941406 14.175781 52.8125 13.292969 Z M 52.8125 13.292969 "/></g><path style=" stroke:none;fill-rule:nonzero;fill:#3169ad;fill-opacity:1;" d="M 20.753906 25.238281 C 20.609375 25.160156 20.457031 25.324219 20.542969 25.464844 C 21.800781 27.527344 26.703125 35.125 29.84375 33.707031 C 33.039062 32.261719 23.15625 26.574219 20.753906 25.238281 Z M 20.753906 25.238281 "/><g clip-rule="nonzero" clip-path="url(#0bb758eb83)"><path style=" stroke:none;fill-rule:nonzero;fill:#000000;fill-opacity:1;" d="M 29.015625 33.972656 C 26.441406 33.972656 23.179688 29.671875 21.351562 26.902344 C 21.195312 26.667969 20.980469 26.476562 20.722656 26.355469 C 19.625 25.828125 19.3125 25.121094 19.238281 24.625 C 19.222656 24.492188 19.152344 24.378906 19.042969 24.300781 C 18.933594 24.222656 18.804688 24.195312 18.675781 24.21875 C 18.136719 24.324219 17.472656 24.5 16.703125 24.738281 C 16.054688 24.9375 15.457031 24.785156 14.871094 24.277344 C 14.351562 23.828125 13.890625 23.148438 13.394531 22.433594 C 12.925781 21.742188 12.4375 21.03125 11.855469 20.4375 C 11.449219 20.027344 10.917969 19.742188 10.269531 19.589844 C 9.75 19.46875 9.152344 19.433594 8.5 19.488281 C 7.382812 19.578125 6.472656 19.898438 6.464844 19.902344 L 6.402344 19.726562 C 6.410156 19.726562 7.339844 19.398438 8.484375 19.304688 C 9.15625 19.25 9.769531 19.285156 10.308594 19.410156 C 10.992188 19.570312 11.554688 19.871094 11.984375 20.308594 C 12.578125 20.914062 13.070312 21.632812 13.546875 22.328125 C 14.511719 23.738281 15.347656 24.957031 16.648438 24.5625 C 17.425781 24.324219 18.09375 24.148438 18.636719 24.039062 C 18.816406 24.003906 19 24.042969 19.148438 24.152344 C 19.296875 24.257812 19.394531 24.421875 19.421875 24.601562 C 19.484375 25.054688 19.777344 25.695312 20.800781 26.191406 C 21.082031 26.328125 21.324219 26.539062 21.5 26.804688 C 22.449219 28.234375 23.898438 30.25 25.433594 31.75 C 27.222656 33.496094 28.691406 34.125 29.804688 33.625 C 30.171875 33.457031 30.363281 33.234375 30.382812 32.945312 C 30.421875 32.363281 29.792969 31.519531 28.515625 30.433594 C 27.515625 29.585938 26.132812 28.605469 24.402344 27.515625 C 24.363281 27.492188 24.347656 27.4375 24.363281 27.390625 C 24.382812 27.347656 24.429688 27.320312 24.476562 27.332031 C 25.863281 27.636719 27.265625 27.808594 28.648438 27.847656 C 30.402344 27.898438 32.144531 27.730469 33.820312 27.34375 C 38.113281 26.367188 42.046875 23.996094 45.507812 20.300781 L 45.640625 20.429688 C 42.15625 24.152344 38.191406 26.542969 33.859375 27.527344 C 32.167969 27.914062 30.414062 28.082031 28.644531 28.035156 C 27.402344 28 26.148438 27.859375 24.90625 27.609375 C 26.457031 28.601562 27.707031 29.503906 28.632812 30.289062 C 29.980469 31.429688 30.609375 32.304688 30.566406 32.957031 C 30.542969 33.316406 30.3125 33.597656 29.878906 33.792969 C 29.605469 33.914062 29.316406 33.972656 29.015625 33.972656 Z M 29.015625 33.972656 "/></g><g style="fill:#006aa6;fill-opacity:1;"><g transform="translate(56.052501, 27.869666)"><path style="stroke:none" d="M 0 -0.875 L 7.5 -14.359375 L 7.875 -14.359375 L 15.421875 -0.875 L 10.796875 1.03125 L 10.125 -0.578125 L 5.03125 -0.578125 L 4.359375 1.03125 Z M 6.25 -3.53125 L 8.90625 -3.53125 L 7.59375 -6.6875 Z M 6.25 -3.53125 "/></g></g><g style="fill:#006aa6;fill-opacity:1;"><g transform="translate(71.472516, 27.869666)"><path style="stroke:none" d="M 0.75 -14.078125 L 1.046875 -14.078125 L 8.234375 -8.109375 L 8.234375 -13.546875 L 12.625 -13.546875 L 12.625 0.640625 L 12.28125 0.640625 L 5.140625 -5.21875 L 5.140625 0 L 0.75 0 Z M 0.75 -14.078125 "/></g></g><g style="fill:#006aa6;fill-opacity:1;"><g transform="translate(84.655876, 27.869666)"><path style="stroke:none" d="M 0.75 -13.546875 L 5.140625 -13.546875 L 5.140625 0 L 0.75 0 Z M 0.75 -13.546875 "/></g></g><g style="fill:#006aa6;fill-opacity:1;"><g transform="translate(90.763665, 27.869666)"><path style="stroke:none" d="M 0 -0.6875 L 5.25 -14.234375 L 5.421875 -14.234375 L 9.21875 -8.53125 L 13.09375 -14.234375 L 13.265625 -14.234375 L 18.515625 -0.6875 L 13.609375 0.859375 L 11.84375 -4.8125 L 9.21875 -1.25 L 6.515625 -4.8125 L 4.796875 0.859375 Z M 0 -0.6875 "/></g></g><g style="fill:#006aa6;fill-opacity:1;"><g transform="translate(109.280587, 27.869666)"><path style="stroke:none" d="M 0 -0.875 L 7.5 -14.359375 L 7.875 -14.359375 L 15.421875 -0.875 L 10.796875 1.03125 L 10.125 -0.578125 L 5.03125 -0.578125 L 4.359375 1.03125 Z M 6.25 -3.53125 L 8.90625 -3.53125 L 7.59375 -6.6875 Z M 6.25 -3.53125 "/></g></g><g style="fill:#006aa6;fill-opacity:1;"><g transform="translate(124.700602, 27.869666)"><path style="stroke:none" d="M 0.75 -13.546875 L 5.140625 -13.546875 L 5.140625 0 L 0.75 0 Z M 0.75 -13.546875 "/></g></g><g style="fill:#006aa6;fill-opacity:1;"><g transform="translate(130.80839, 27.869666)"><path style="stroke:none" d="M 6.28125 -13.796875 C 6.832031 -13.796875 7.40625 -13.726562 8 -13.59375 C 8.570312 -13.445312 9.109375 -13.226562 9.609375 -12.9375 C 10.109375 -12.65625 10.546875 -12.300781 10.921875 -11.875 C 11.296875 -11.4375 11.5625 -10.925781 11.71875 -10.34375 L 8.90625 -8.5625 C 8.65625 -9.0625 8.285156 -9.453125 7.796875 -9.734375 C 7.316406 -10.023438 6.796875 -10.1875 6.234375 -10.21875 L 5.84375 -10.21875 C 5.71875 -10.21875 5.582031 -10.207031 5.4375 -10.1875 C 5.28125 -10.15625 5.140625 -10.113281 5.015625 -10.0625 C 4.867188 -10 4.753906 -9.921875 4.671875 -9.828125 C 4.578125 -9.722656 4.53125 -9.585938 4.53125 -9.421875 C 4.53125 -9.171875 4.640625 -8.988281 4.859375 -8.875 C 5.054688 -8.75 5.28125 -8.648438 5.53125 -8.578125 L 8.59375 -7.71875 C 9.101562 -7.570312 9.550781 -7.40625 9.9375 -7.21875 C 10.320312 -7.019531 10.648438 -6.785156 10.921875 -6.515625 C 11.191406 -6.222656 11.398438 -5.882812 11.546875 -5.5 C 11.691406 -5.101562 11.765625 -4.628906 11.765625 -4.078125 C 11.765625 -3.347656 11.601562 -2.707031 11.28125 -2.15625 C 10.957031 -1.59375 10.554688 -1.132812 10.078125 -0.78125 C 9.546875 -0.382812 8.96875 -0.117188 8.34375 0.015625 C 7.707031 0.179688 7.039062 0.265625 6.34375 0.265625 C 5.113281 0.265625 3.972656 0.00390625 2.921875 -0.515625 C 1.859375 -1.015625 1.003906 -1.800781 0.359375 -2.875 L 3.15625 -5.015625 C 3.3125 -4.722656 3.515625 -4.46875 3.765625 -4.25 C 3.992188 -4.039062 4.257812 -3.867188 4.5625 -3.734375 C 4.84375 -3.597656 5.148438 -3.492188 5.484375 -3.421875 C 5.796875 -3.347656 6.109375 -3.3125 6.421875 -3.3125 C 6.566406 -3.3125 6.71875 -3.328125 6.875 -3.359375 C 7.019531 -3.367188 7.15625 -3.410156 7.28125 -3.484375 C 7.414062 -3.535156 7.523438 -3.613281 7.609375 -3.71875 C 7.691406 -3.820312 7.734375 -3.953125 7.734375 -4.109375 C 7.722656 -4.296875 7.65625 -4.445312 7.53125 -4.5625 C 7.382812 -4.65625 7.179688 -4.75 6.921875 -4.84375 L 3.78125 -5.828125 C 3.34375 -5.972656 2.9375 -6.148438 2.5625 -6.359375 C 2.1875 -6.566406 1.867188 -6.816406 1.609375 -7.109375 C 1.335938 -7.398438 1.128906 -7.738281 0.984375 -8.125 C 0.828125 -8.507812 0.75 -8.945312 0.75 -9.4375 C 0.78125 -10.195312 0.960938 -10.859375 1.296875 -11.421875 C 1.609375 -11.960938 2.019531 -12.410156 2.53125 -12.765625 C 3.050781 -13.128906 3.640625 -13.394531 4.296875 -13.5625 C 4.941406 -13.71875 5.601562 -13.796875 6.28125 -13.796875 Z M 6.28125 -13.796875 "/></g></g></g></svg>