<svg xmlns="http://www.w3.org/2000/svg" xmlns:xlink="http://www.w3.org/1999/xlink" width="200" zoomAndPan="magnify" viewBox="0 0 150 44.999999" height="60" preserveAspectRatio="xMidYMid meet" version="1.2"><defs><clipPath id="18c8f0c24e"><path d="M 98 13 L 117 13 L 117 29 L 98 29 Z M 98 13 "/></clipPath><clipPath id="bfcb7cda55"><path d="M 97.871094 13.882812 L 115.835938 12.804688 L 116.78125 28.527344 L 98.8125 29.601562 Z M 97.871094 13.882812 "/></clipPath><clipPath id="607b87c28f"><path d="M 97.871094 13.882812 L 115.835938 12.804688 L 116.78125 28.527344 L 98.8125 29.601562 Z M 97.871094 13.882812 "/></clipPath></defs><g id="75addf853a"><g clip-rule="nonzero" clip-path="url(#18c8f0c24e)"><g clip-rule="nonzero" clip-path="url(#bfcb7cda55)"><g clip-rule="nonzero" clip-path="url(#607b87c28f)"><path style=" stroke:none;fill-rule:nonzero;fill:#fdcb05;fill-opacity:1;" d="M 107.457031 28.878906 C 105.390625 29.078125 103.488281 28.613281 101.777344 27.417969 C 100.988281 26.867188 100.371094 26.164062 100 25.265625 C 99.9375 25.113281 99.863281 25.101562 99.730469 25.160156 C 99.542969 25.238281 99.355469 25.3125 99.164062 25.375 C 98.964844 25.445312 98.777344 25.429688 98.65625 25.230469 C 98.539062 25.046875 98.578125 24.863281 98.714844 24.695312 C 98.800781 24.589844 98.914062 24.507812 99.042969 24.457031 C 99.570312 24.238281 100.113281 24.074219 100.675781 23.980469 C 100.847656 23.953125 101.023438 23.941406 101.191406 24.011719 C 101.34375 24.078125 101.417969 24.195312 101.394531 24.363281 C 101.375 24.507812 101.296875 24.570312 101.140625 24.601562 C 100.523438 24.730469 100.515625 24.777344 100.882812 25.28125 C 101.886719 26.671875 103.296875 27.457031 104.914062 27.820312 C 107.164062 28.324219 109.367188 28.082031 111.4375 27.015625 C 112.675781 26.378906 113.558594 25.402344 114.09375 24.113281 C 114.167969 23.929688 114.152344 23.855469 113.945312 23.828125 C 113.800781 23.808594 113.660156 23.757812 113.523438 23.707031 C 113.386719 23.652344 113.289062 23.550781 113.3125 23.390625 C 113.335938 23.234375 113.441406 23.152344 113.59375 23.136719 C 113.695312 23.125 113.796875 23.109375 113.894531 23.113281 C 114.503906 23.117188 115.101562 23.183594 115.699219 23.292969 C 115.84375 23.320312 115.984375 23.359375 116.109375 23.441406 C 116.273438 23.546875 116.347656 23.699219 116.304688 23.886719 C 116.257812 24.085938 116.113281 24.171875 115.917969 24.183594 C 115.699219 24.195312 115.484375 24.140625 115.265625 24.101562 C 115.144531 24.078125 115.0625 24.09375 115.011719 24.226562 C 113.964844 26.925781 111.816406 28.171875 109.125 28.699219 C 108.828125 28.753906 108.527344 28.796875 108.226562 28.828125 C 107.972656 28.859375 107.714844 28.863281 107.457031 28.878906 Z M 111.753906 15.050781 C 111.601562 14.457031 111.402344 13.890625 110.925781 13.46875 C 110.5625 13.152344 110.140625 13.148438 109.808594 13.457031 C 109.453125 13.785156 109.1875 14.167969 109.058594 14.648438 C 108.753906 15.753906 108.753906 16.875 108.925781 18 C 109.023438 18.664062 109.21875 19.304688 109.550781 19.894531 C 109.71875 20.191406 109.921875 20.460938 110.203125 20.664062 C 110.613281 20.953125 111.035156 20.882812 111.332031 20.480469 C 111.492188 20.261719 111.582031 20.011719 111.65625 19.757812 C 111.957031 18.722656 112.019531 17.667969 111.96875 16.601562 C 111.941406 16.078125 111.878906 15.558594 111.753906 15.050781 Z M 110.804688 19.21875 C 110.546875 18.421875 110.46875 17.59375 110.453125 16.769531 C 110.523438 17.601562 110.957031 18.371094 110.804688 19.21875 Z M 110.867188 17.210938 C 110.726562 16.464844 110.5625 15.722656 110.550781 14.960938 C 110.804688 15.6875 110.859375 16.445312 110.867188 17.210938 Z M 110.011719 18.46875 C 109.78125 17.785156 109.757812 17.082031 109.765625 16.371094 C 109.828125 17.074219 109.914062 17.773438 110.011719 18.46875 Z M 104.972656 15.148438 C 104.898438 14.769531 104.8125 14.394531 104.582031 14.074219 C 104.292969 13.679688 103.84375 13.574219 103.476562 13.839844 C 103.070312 14.136719 102.757812 14.496094 102.695312 15.039062 C 102.496094 16.800781 102.71875 18.507812 103.367188 20.160156 C 103.457031 20.390625 103.585938 20.605469 103.777344 20.769531 C 104.105469 21.058594 104.503906 21 104.738281 20.628906 C 104.847656 20.457031 104.90625 20.265625 104.949219 20.066406 C 105.191406 18.964844 105.207031 17.851562 105.164062 16.730469 C 105.113281 16.203125 105.070312 15.671875 104.972656 15.148438 Z M 103.945312 17.695312 C 103.933594 16.792969 103.832031 15.894531 103.929688 14.996094 C 104.132812 15.898438 104.101562 16.796875 103.945312 17.695312 Z M 104.585938 16.152344 C 104.699219 16.992188 104.6875 17.828125 104.542969 18.664062 C 104.554688 17.828125 104.410156 16.988281 104.585938 16.152344 Z M 104.273438 14.988281 C 104.195312 14.769531 104.132812 14.601562 104.074219 14.429688 C 104.21875 14.566406 104.410156 14.6875 104.273438 14.988281 Z M 104.273438 14.988281 "/></g></g></g><g style="fill:#194e92;fill-opacity:1;"><g transform="translate(34.577874, 27.483063)"><path style="stroke:none" d="M 3 -7.8125 C 2.570312 -7.28125 2.265625 -6.707031 2.078125 -6.09375 C 1.890625 -5.488281 1.773438 -4.863281 1.734375 -4.21875 C 1.753906 -3.707031 1.847656 -3.234375 2.015625 -2.796875 C 2.179688 -2.359375 2.441406 -1.960938 2.796875 -1.609375 C 2.929688 -1.484375 3.078125 -1.390625 3.234375 -1.328125 C 3.390625 -1.265625 3.5625 -1.210938 3.75 -1.171875 C 4.257812 -1.066406 4.710938 -1.09375 5.109375 -1.25 C 5.503906 -1.40625 5.851562 -1.6875 6.15625 -2.09375 L 6.75 -2.859375 C 6.800781 -2.921875 6.847656 -2.984375 6.890625 -3.046875 C 6.929688 -3.109375 6.972656 -3.164062 7.015625 -3.21875 C 7.222656 -3.46875 7.429688 -3.523438 7.640625 -3.390625 C 7.847656 -3.253906 7.910156 -3.046875 7.828125 -2.765625 C 7.703125 -2.367188 7.523438 -2.003906 7.296875 -1.671875 C 7.078125 -1.347656 6.820312 -1.050781 6.53125 -0.78125 C 5.96875 -0.269531 5.363281 0.015625 4.71875 0.078125 C 4.082031 0.148438 3.429688 0.0703125 2.765625 -0.15625 C 2.316406 -0.300781 1.9375 -0.550781 1.625 -0.90625 C 1.320312 -1.257812 1.085938 -1.65625 0.921875 -2.09375 C 0.566406 -3.0625 0.4375 -4.015625 0.53125 -4.953125 C 0.625 -5.890625 0.921875 -6.796875 1.421875 -7.671875 C 1.628906 -8.035156 1.867188 -8.390625 2.140625 -8.734375 C 2.421875 -9.078125 2.722656 -9.390625 3.046875 -9.671875 C 3.378906 -9.984375 3.753906 -10.242188 4.171875 -10.453125 C 4.585938 -10.660156 5.03125 -10.773438 5.5 -10.796875 C 6.3125 -10.847656 6.976562 -10.640625 7.5 -10.171875 C 8.03125 -9.710938 8.300781 -9.046875 8.3125 -8.171875 C 8.3125 -7.679688 8.242188 -7.203125 8.109375 -6.734375 C 7.984375 -6.265625 7.765625 -5.820312 7.453125 -5.40625 C 7.410156 -5.351562 7.363281 -5.300781 7.3125 -5.25 C 7.269531 -5.195312 7.222656 -5.144531 7.171875 -5.09375 C 7.023438 -4.957031 6.851562 -4.929688 6.65625 -5.015625 C 6.570312 -5.066406 6.5 -5.140625 6.4375 -5.234375 C 6.382812 -5.328125 6.367188 -5.425781 6.390625 -5.53125 C 6.429688 -5.675781 6.472656 -5.816406 6.515625 -5.953125 C 6.566406 -6.097656 6.613281 -6.238281 6.65625 -6.375 C 6.726562 -6.582031 6.800781 -6.789062 6.875 -7 C 6.945312 -7.207031 7.007812 -7.421875 7.0625 -7.640625 C 7.15625 -8.003906 7.132812 -8.382812 7 -8.78125 C 6.875 -9.144531 6.664062 -9.410156 6.375 -9.578125 C 6.09375 -9.753906 5.765625 -9.800781 5.390625 -9.71875 C 5.140625 -9.664062 4.90625 -9.570312 4.6875 -9.4375 C 4.476562 -9.300781 4.28125 -9.148438 4.09375 -8.984375 C 3.90625 -8.796875 3.71875 -8.601562 3.53125 -8.40625 C 3.34375 -8.21875 3.164062 -8.019531 3 -7.8125 Z M 3 -7.8125 "/></g></g><g style="fill:#194e92;fill-opacity:1;"><g transform="translate(43.506304, 27.483063)"><path style="stroke:none" d="M 7.421875 -10.0625 C 7.921875 -9.46875 8.25 -8.8125 8.40625 -8.09375 C 8.5625 -7.382812 8.640625 -6.613281 8.640625 -5.78125 C 8.554688 -4.707031 8.265625 -3.707031 7.765625 -2.78125 C 7.265625 -1.863281 6.546875 -1.050781 5.609375 -0.34375 C 5.335938 -0.15625 5.050781 -0.00390625 4.75 0.109375 C 4.457031 0.222656 4.140625 0.257812 3.796875 0.21875 C 3.429688 0.175781 3.085938 0.09375 2.765625 -0.03125 C 2.453125 -0.164062 2.160156 -0.363281 1.890625 -0.625 C 1.484375 -1.03125 1.175781 -1.46875 0.96875 -1.9375 C 0.769531 -2.414062 0.644531 -2.929688 0.59375 -3.484375 C 0.457031 -4.816406 0.617188 -6.023438 1.078125 -7.109375 C 1.535156 -8.191406 2.269531 -9.171875 3.28125 -10.046875 C 3.4375 -10.171875 3.601562 -10.285156 3.78125 -10.390625 C 3.957031 -10.503906 4.140625 -10.613281 4.328125 -10.71875 C 4.628906 -10.875 4.976562 -10.941406 5.375 -10.921875 C 5.769531 -10.910156 6.15625 -10.828125 6.53125 -10.671875 C 6.914062 -10.523438 7.210938 -10.320312 7.421875 -10.0625 Z M 2.921875 -8.0625 C 2.566406 -7.488281 2.28125 -6.890625 2.0625 -6.265625 C 1.851562 -5.640625 1.765625 -4.992188 1.796875 -4.328125 C 1.753906 -3.773438 1.804688 -3.265625 1.953125 -2.796875 C 2.097656 -2.328125 2.359375 -1.898438 2.734375 -1.515625 C 2.984375 -1.242188 3.285156 -1.078125 3.640625 -1.015625 C 3.929688 -0.953125 4.195312 -0.96875 4.4375 -1.0625 C 4.675781 -1.15625 4.898438 -1.285156 5.109375 -1.453125 C 5.410156 -1.703125 5.675781 -1.976562 5.90625 -2.28125 C 6.144531 -2.59375 6.351562 -2.921875 6.53125 -3.265625 C 6.707031 -3.648438 6.84375 -4.054688 6.9375 -4.484375 C 7.03125 -4.910156 7.125 -5.332031 7.21875 -5.75 C 7.332031 -6.289062 7.347656 -6.804688 7.265625 -7.296875 C 7.179688 -7.785156 7.035156 -8.273438 6.828125 -8.765625 C 6.742188 -8.960938 6.640625 -9.144531 6.515625 -9.3125 C 6.410156 -9.4375 6.285156 -9.539062 6.140625 -9.625 C 6.003906 -9.71875 5.851562 -9.757812 5.6875 -9.75 C 5.394531 -9.738281 5.113281 -9.703125 4.84375 -9.640625 C 4.570312 -9.578125 4.316406 -9.460938 4.078125 -9.296875 C 3.859375 -9.128906 3.644531 -8.941406 3.4375 -8.734375 C 3.238281 -8.535156 3.066406 -8.3125 2.921875 -8.0625 Z M 2.921875 -8.0625 "/></g></g><g style="fill:#194e92;fill-opacity:1;"><g transform="translate(52.709926, 27.483063)"><path style="stroke:none" d="M 2.90625 -7.40625 C 2.789062 -6.9375 2.675781 -6.460938 2.5625 -5.984375 C 2.445312 -5.515625 2.328125 -5.039062 2.203125 -4.5625 C 2.128906 -4.25 2.046875 -3.9375 1.953125 -3.625 C 1.859375 -3.3125 1.773438 -2.992188 1.703125 -2.671875 C 1.609375 -2.347656 1.515625 -2.019531 1.421875 -1.6875 C 1.335938 -1.363281 1.253906 -1.035156 1.171875 -0.703125 C 1.085938 -0.367188 0.859375 -0.171875 0.484375 -0.109375 C 0.316406 -0.0859375 0.175781 -0.117188 0.0625 -0.203125 C -0.0507812 -0.285156 -0.101562 -0.414062 -0.09375 -0.59375 C -0.0703125 -0.875 -0.0390625 -1.148438 0 -1.421875 C 0.03125 -1.703125 0.0820312 -1.984375 0.15625 -2.265625 C 0.570312 -3.867188 1 -5.472656 1.4375 -7.078125 C 1.582031 -7.566406 1.726562 -8.050781 1.875 -8.53125 C 2.03125 -9.007812 2.1875 -9.488281 2.34375 -9.96875 C 2.375 -10.0625 2.414062 -10.148438 2.46875 -10.234375 C 2.519531 -10.328125 2.566406 -10.425781 2.609375 -10.53125 C 2.671875 -10.550781 2.734375 -10.566406 2.796875 -10.578125 C 2.859375 -10.585938 2.914062 -10.59375 2.96875 -10.59375 C 3.1875 -10.59375 3.351562 -10.578125 3.46875 -10.546875 C 3.582031 -10.515625 3.664062 -10.445312 3.71875 -10.34375 C 3.78125 -10.238281 3.835938 -10.082031 3.890625 -9.875 C 4.066406 -9.175781 4.226562 -8.476562 4.375 -7.78125 C 4.53125 -7.09375 4.691406 -6.40625 4.859375 -5.71875 C 4.898438 -5.539062 4.9375 -5.363281 4.96875 -5.1875 C 5 -5.007812 5.035156 -4.832031 5.078125 -4.65625 C 5.097656 -4.601562 5.125 -4.550781 5.15625 -4.5 C 5.1875 -4.457031 5.21875 -4.394531 5.25 -4.3125 C 5.425781 -4.488281 5.570312 -4.671875 5.6875 -4.859375 C 5.8125 -5.054688 5.929688 -5.242188 6.046875 -5.421875 C 6.472656 -6.085938 6.898438 -6.75 7.328125 -7.40625 C 7.753906 -8.070312 8.179688 -8.726562 8.609375 -9.375 C 8.679688 -9.5 8.765625 -9.617188 8.859375 -9.734375 C 8.960938 -9.859375 9.054688 -9.976562 9.140625 -10.09375 C 9.316406 -10.375 9.535156 -10.519531 9.796875 -10.53125 C 10.054688 -10.550781 10.320312 -10.550781 10.59375 -10.53125 C 10.707031 -10.53125 10.789062 -10.484375 10.84375 -10.390625 C 10.90625 -10.296875 10.941406 -10.191406 10.953125 -10.078125 C 10.972656 -10.003906 10.976562 -9.921875 10.96875 -9.828125 C 10.96875 -9.734375 10.957031 -9.640625 10.9375 -9.546875 C 10.875 -9.210938 10.804688 -8.878906 10.734375 -8.546875 C 10.671875 -8.210938 10.609375 -7.878906 10.546875 -7.546875 C 10.453125 -7.046875 10.351562 -6.546875 10.25 -6.046875 C 10.15625 -5.554688 10.082031 -5.0625 10.03125 -4.5625 C 9.957031 -3.957031 9.851562 -3.359375 9.71875 -2.765625 C 9.59375 -2.171875 9.453125 -1.582031 9.296875 -1 C 9.234375 -0.769531 9.117188 -0.554688 8.953125 -0.359375 C 8.773438 -0.128906 8.535156 -0.0664062 8.234375 -0.171875 C 8.148438 -0.203125 8.070312 -0.242188 8 -0.296875 C 7.9375 -0.347656 7.898438 -0.425781 7.890625 -0.53125 C 7.878906 -0.644531 7.867188 -0.757812 7.859375 -0.875 C 7.859375 -1 7.863281 -1.113281 7.875 -1.21875 C 7.957031 -1.707031 8.050781 -2.191406 8.15625 -2.671875 C 8.257812 -3.148438 8.359375 -3.628906 8.453125 -4.109375 C 8.546875 -4.546875 8.628906 -4.984375 8.703125 -5.421875 C 8.785156 -5.859375 8.863281 -6.296875 8.9375 -6.734375 C 8.96875 -6.898438 9.003906 -7.066406 9.046875 -7.234375 C 9.085938 -7.398438 9.132812 -7.609375 9.1875 -7.859375 C 9.070312 -7.742188 8.976562 -7.65625 8.90625 -7.59375 C 8.832031 -7.53125 8.773438 -7.46875 8.734375 -7.40625 C 8.566406 -7.101562 8.394531 -6.789062 8.21875 -6.46875 C 8.050781 -6.15625 7.875 -5.847656 7.6875 -5.546875 C 7.457031 -5.179688 7.226562 -4.8125 7 -4.4375 C 6.78125 -4.070312 6.550781 -3.710938 6.3125 -3.359375 C 6.15625 -3.148438 5.988281 -2.941406 5.8125 -2.734375 C 5.644531 -2.535156 5.46875 -2.335938 5.28125 -2.140625 C 5.125 -1.972656 4.953125 -1.898438 4.765625 -1.921875 C 4.578125 -1.953125 4.425781 -2.066406 4.3125 -2.265625 C 4.207031 -2.429688 4.113281 -2.613281 4.03125 -2.8125 C 3.945312 -3.019531 3.878906 -3.21875 3.828125 -3.40625 C 3.734375 -3.882812 3.640625 -4.363281 3.546875 -4.84375 C 3.460938 -5.332031 3.375 -5.816406 3.28125 -6.296875 C 3.25 -6.492188 3.210938 -6.679688 3.171875 -6.859375 C 3.140625 -7.046875 3.101562 -7.234375 3.0625 -7.421875 Z M 2.90625 -7.40625 "/></g></g><g style="fill:#194e92;fill-opacity:1;"><g transform="translate(63.916329, 27.483063)"><path style="stroke:none" d="M 0.34375 -4.15625 C 0.476562 -4.519531 0.660156 -4.859375 0.890625 -5.171875 C 1.128906 -5.484375 1.40625 -5.773438 1.71875 -6.046875 C 1.53125 -6.648438 1.488281 -7.203125 1.59375 -7.703125 C 1.707031 -8.210938 1.945312 -8.6875 2.3125 -9.125 C 2.5625 -9.425781 2.847656 -9.679688 3.171875 -9.890625 C 3.492188 -10.097656 3.84375 -10.265625 4.21875 -10.390625 C 4.507812 -10.492188 4.8125 -10.566406 5.125 -10.609375 C 5.4375 -10.648438 5.75 -10.65625 6.0625 -10.625 C 6.613281 -10.5625 7.0625 -10.300781 7.40625 -9.84375 C 7.457031 -9.78125 7.5 -9.703125 7.53125 -9.609375 C 7.570312 -9.523438 7.597656 -9.445312 7.609375 -9.375 C 7.640625 -9.101562 7.535156 -8.898438 7.296875 -8.765625 C 7.203125 -8.710938 7.101562 -8.695312 7 -8.71875 C 6.90625 -8.75 6.8125 -8.796875 6.71875 -8.859375 C 6.664062 -8.898438 6.613281 -8.945312 6.5625 -9 C 6.519531 -9.0625 6.472656 -9.117188 6.421875 -9.171875 C 6.273438 -9.347656 6.109375 -9.460938 5.921875 -9.515625 C 5.734375 -9.578125 5.523438 -9.582031 5.296875 -9.53125 C 4.785156 -9.4375 4.328125 -9.269531 3.921875 -9.03125 C 3.523438 -8.800781 3.207031 -8.445312 2.96875 -7.96875 C 2.882812 -7.800781 2.828125 -7.628906 2.796875 -7.453125 C 2.765625 -7.273438 2.78125 -7.082031 2.84375 -6.875 C 2.9375 -6.875 3.023438 -6.875 3.109375 -6.875 C 3.191406 -6.875 3.273438 -6.882812 3.359375 -6.90625 C 3.941406 -7.0625 4.53125 -7.109375 5.125 -7.046875 C 5.226562 -7.035156 5.335938 -7.007812 5.453125 -6.96875 C 5.578125 -6.9375 5.691406 -6.890625 5.796875 -6.828125 C 5.984375 -6.722656 6.113281 -6.578125 6.1875 -6.390625 C 6.257812 -6.203125 6.265625 -6.015625 6.203125 -5.828125 C 6.148438 -5.640625 6.03125 -5.484375 5.84375 -5.359375 C 5.582031 -5.210938 5.3125 -5.085938 5.03125 -4.984375 C 4.757812 -4.878906 4.46875 -4.851562 4.15625 -4.90625 C 3.90625 -4.945312 3.644531 -4.992188 3.375 -5.046875 C 3.113281 -5.097656 2.84375 -5.144531 2.5625 -5.1875 C 2.269531 -4.988281 2.035156 -4.734375 1.859375 -4.421875 C 1.679688 -4.109375 1.539062 -3.785156 1.4375 -3.453125 C 1.3125 -3.046875 1.3125 -2.675781 1.4375 -2.34375 C 1.5625 -2.019531 1.757812 -1.757812 2.03125 -1.5625 C 2.300781 -1.375 2.609375 -1.273438 2.953125 -1.265625 C 3.429688 -1.253906 3.835938 -1.332031 4.171875 -1.5 C 4.503906 -1.675781 4.800781 -1.945312 5.0625 -2.3125 C 5.125 -2.394531 5.179688 -2.476562 5.234375 -2.5625 C 5.296875 -2.644531 5.363281 -2.722656 5.4375 -2.796875 C 5.488281 -2.847656 5.550781 -2.882812 5.625 -2.90625 C 5.695312 -2.925781 5.769531 -2.941406 5.84375 -2.953125 C 5.945312 -2.972656 6.039062 -2.941406 6.125 -2.859375 C 6.207031 -2.785156 6.253906 -2.691406 6.265625 -2.578125 C 6.273438 -2.421875 6.265625 -2.257812 6.234375 -2.09375 C 6.210938 -1.9375 6.148438 -1.789062 6.046875 -1.65625 C 5.734375 -1.21875 5.375 -0.847656 4.96875 -0.546875 C 4.5625 -0.242188 4.070312 -0.0820312 3.5 -0.0625 C 3.332031 -0.0507812 3.164062 -0.046875 3 -0.046875 C 2.84375 -0.0546875 2.679688 -0.0625 2.515625 -0.0625 C 2.066406 -0.0625 1.6875 -0.171875 1.375 -0.390625 C 1.0625 -0.617188 0.785156 -0.90625 0.546875 -1.25 C 0.242188 -1.71875 0.09375 -2.195312 0.09375 -2.6875 C 0.101562 -3.175781 0.1875 -3.664062 0.34375 -4.15625 Z M 0.34375 -4.15625 "/></g></g><g style="fill:#194e92;fill-opacity:1;"><g transform="translate(71.48409, 27.483063)"><path style="stroke:none" d="M 7.703125 -3.625 C 7.796875 -3.5625 7.863281 -3.472656 7.90625 -3.359375 C 7.945312 -3.253906 7.941406 -3.132812 7.890625 -3 C 7.765625 -2.613281 7.585938 -2.253906 7.359375 -1.921875 C 7.140625 -1.585938 6.882812 -1.285156 6.59375 -1.015625 C 6.269531 -0.722656 5.9375 -0.507812 5.59375 -0.375 C 5.25 -0.238281 4.894531 -0.160156 4.53125 -0.140625 C 4.5 -0.0976562 4.457031 -0.0507812 4.40625 0 C 4.363281 0.0507812 4.316406 0.101562 4.265625 0.15625 C 4.335938 0.175781 4.394531 0.191406 4.4375 0.203125 C 4.476562 0.210938 4.515625 0.226562 4.546875 0.25 C 4.960938 0.425781 5.21875 0.691406 5.3125 1.046875 C 5.414062 1.410156 5.351562 1.78125 5.125 2.15625 C 4.863281 2.550781 4.492188 2.832031 4.015625 3 C 3.671875 3.125 3.328125 3.191406 2.984375 3.203125 C 2.878906 3.210938 2.765625 3.195312 2.640625 3.15625 C 2.515625 3.125 2.410156 3.078125 2.328125 3.015625 C 2.179688 2.910156 2.09375 2.78125 2.0625 2.625 C 2.03125 2.46875 2.046875 2.3125 2.109375 2.15625 C 2.179688 2.007812 2.296875 1.910156 2.453125 1.859375 C 2.597656 1.804688 2.742188 1.769531 2.890625 1.75 C 3.046875 1.738281 3.191406 1.722656 3.328125 1.703125 C 3.628906 1.640625 3.941406 1.550781 4.265625 1.4375 C 4.296875 1.425781 4.320312 1.382812 4.34375 1.3125 C 4.363281 1.25 4.375 1.195312 4.375 1.15625 C 4.363281 1.125 4.332031 1.09375 4.28125 1.0625 C 4.238281 1.03125 4.203125 1.015625 4.171875 1.015625 C 3.867188 1.054688 3.582031 1.113281 3.3125 1.1875 C 3.226562 1.195312 3.144531 1.222656 3.0625 1.265625 C 2.976562 1.304688 2.894531 1.332031 2.8125 1.34375 C 2.644531 1.375 2.515625 1.328125 2.421875 1.203125 C 2.328125 1.085938 2.304688 0.945312 2.359375 0.78125 C 2.410156 0.625 2.507812 0.484375 2.65625 0.359375 C 2.863281 0.191406 3.078125 0.0390625 3.296875 -0.09375 L 3.484375 -0.21875 C 3.378906 -0.238281 3.269531 -0.257812 3.15625 -0.28125 C 3.050781 -0.3125 2.941406 -0.34375 2.828125 -0.375 C 2.378906 -0.53125 2 -0.785156 1.6875 -1.140625 C 1.382812 -1.492188 1.15625 -1.890625 1 -2.328125 C 0.632812 -3.296875 0.5 -4.25 0.59375 -5.1875 C 0.695312 -6.125 1 -7.03125 1.5 -7.90625 C 1.695312 -8.269531 1.929688 -8.617188 2.203125 -8.953125 C 2.484375 -9.296875 2.785156 -9.613281 3.109375 -9.90625 C 3.441406 -10.21875 3.816406 -10.476562 4.234375 -10.6875 C 4.648438 -10.894531 5.09375 -11.007812 5.5625 -11.03125 C 6.375 -11.082031 7.039062 -10.875 7.5625 -10.40625 C 8.09375 -9.945312 8.363281 -9.28125 8.375 -8.40625 C 8.382812 -7.914062 8.320312 -7.4375 8.1875 -6.96875 C 8.050781 -6.5 7.828125 -6.0625 7.515625 -5.65625 C 7.472656 -5.59375 7.425781 -5.53125 7.375 -5.46875 C 7.320312 -5.414062 7.273438 -5.363281 7.234375 -5.3125 C 7.085938 -5.1875 6.914062 -5.160156 6.71875 -5.234375 C 6.632812 -5.285156 6.5625 -5.359375 6.5 -5.453125 C 6.445312 -5.554688 6.4375 -5.660156 6.46875 -5.765625 C 6.5 -5.898438 6.535156 -6.039062 6.578125 -6.1875 C 6.628906 -6.332031 6.675781 -6.46875 6.71875 -6.59375 C 6.789062 -6.8125 6.863281 -7.023438 6.9375 -7.234375 C 7.007812 -7.441406 7.070312 -7.660156 7.125 -7.890625 C 7.21875 -8.242188 7.195312 -8.617188 7.0625 -9.015625 C 6.945312 -9.367188 6.742188 -9.628906 6.453125 -9.796875 C 6.160156 -9.972656 5.828125 -10.023438 5.453125 -9.953125 C 5.203125 -9.898438 4.96875 -9.804688 4.75 -9.671875 C 4.539062 -9.535156 4.34375 -9.382812 4.15625 -9.21875 C 3.957031 -9.039062 3.765625 -8.851562 3.578125 -8.65625 C 3.398438 -8.457031 3.226562 -8.253906 3.0625 -8.046875 C 2.632812 -7.523438 2.328125 -6.957031 2.140625 -6.34375 C 1.953125 -5.726562 1.84375 -5.101562 1.8125 -4.46875 C 1.832031 -3.945312 1.921875 -3.46875 2.078125 -3.03125 C 2.242188 -2.601562 2.507812 -2.207031 2.875 -1.84375 C 3.007812 -1.71875 3.15625 -1.625 3.3125 -1.5625 C 3.46875 -1.5 3.632812 -1.445312 3.8125 -1.40625 C 4.320312 -1.289062 4.773438 -1.3125 5.171875 -1.46875 C 5.566406 -1.632812 5.914062 -1.921875 6.21875 -2.328125 L 6.8125 -3.109375 C 6.863281 -3.148438 6.910156 -3.203125 6.953125 -3.265625 C 6.992188 -3.335938 7.035156 -3.398438 7.078125 -3.453125 C 7.296875 -3.703125 7.503906 -3.757812 7.703125 -3.625 Z M 7.703125 -3.625 "/></g></g><g style="fill:#194e92;fill-opacity:1;"><g transform="translate(80.443098, 27.483063)"><path style="stroke:none" d="M 5.078125 -0.875 C 5.035156 -1.15625 4.992188 -1.4375 4.953125 -1.71875 C 4.921875 -2 4.878906 -2.296875 4.828125 -2.609375 C 4.515625 -2.691406 4.203125 -2.726562 3.890625 -2.71875 C 3.585938 -2.71875 3.289062 -2.703125 3 -2.671875 C 2.582031 -2.628906 2.265625 -2.601562 2.046875 -2.59375 C 1.835938 -2.582031 1.679688 -2.546875 1.578125 -2.484375 C 1.472656 -2.429688 1.367188 -2.3125 1.265625 -2.125 C 1.171875 -1.945312 1.03125 -1.671875 0.84375 -1.296875 C 0.769531 -1.140625 0.671875 -0.992188 0.546875 -0.859375 C 0.429688 -0.722656 0.320312 -0.585938 0.21875 -0.453125 C 0.0507812 -0.273438 -0.132812 -0.238281 -0.34375 -0.34375 C -0.476562 -0.40625 -0.582031 -0.492188 -0.65625 -0.609375 C -0.738281 -0.722656 -0.765625 -0.847656 -0.734375 -0.984375 C -0.703125 -1.171875 -0.632812 -1.367188 -0.53125 -1.578125 C -0.132812 -2.367188 0.253906 -3.164062 0.640625 -3.96875 C 1.035156 -4.769531 1.453125 -5.554688 1.890625 -6.328125 C 2.242188 -6.960938 2.617188 -7.582031 3.015625 -8.1875 C 3.410156 -8.800781 3.796875 -9.414062 4.171875 -10.03125 C 4.222656 -10.113281 4.28125 -10.195312 4.34375 -10.28125 C 4.414062 -10.363281 4.488281 -10.441406 4.5625 -10.515625 C 4.695312 -10.628906 4.851562 -10.6875 5.03125 -10.6875 C 5.207031 -10.6875 5.363281 -10.632812 5.5 -10.53125 C 5.644531 -10.425781 5.726562 -10.28125 5.75 -10.09375 C 5.78125 -9.863281 5.8125 -9.628906 5.84375 -9.390625 C 5.875 -9.148438 5.894531 -8.914062 5.90625 -8.6875 C 5.945312 -8.113281 5.984375 -7.535156 6.015625 -6.953125 C 6.054688 -6.367188 6.097656 -5.789062 6.140625 -5.21875 C 6.160156 -4.925781 6.179688 -4.628906 6.203125 -4.328125 C 6.234375 -4.035156 6.265625 -3.742188 6.296875 -3.453125 C 6.316406 -3.160156 6.34375 -2.863281 6.375 -2.5625 C 6.40625 -2.269531 6.425781 -1.976562 6.4375 -1.6875 C 6.457031 -1.488281 6.460938 -1.289062 6.453125 -1.09375 C 6.441406 -0.90625 6.425781 -0.71875 6.40625 -0.53125 C 6.363281 -0.207031 6.15625 -0.0351562 5.78125 -0.015625 C 5.46875 -0.015625 5.265625 -0.15625 5.171875 -0.4375 C 5.128906 -0.570312 5.097656 -0.71875 5.078125 -0.875 Z M 2.34375 -3.984375 C 2.757812 -4.015625 3.148438 -4.039062 3.515625 -4.0625 C 3.890625 -4.09375 4.253906 -4.125 4.609375 -4.15625 C 4.671875 -4.46875 4.691406 -4.941406 4.671875 -5.578125 C 4.648438 -6.210938 4.59375 -6.921875 4.5 -7.703125 C 4.488281 -7.722656 4.46875 -7.738281 4.4375 -7.75 C 4.40625 -7.769531 4.367188 -7.789062 4.328125 -7.8125 C 3.972656 -7.207031 3.625 -6.59375 3.28125 -5.96875 C 2.9375 -5.34375 2.625 -4.679688 2.34375 -3.984375 Z M 2.34375 -3.984375 "/></g></g><g style="fill:#194e92;fill-opacity:1;"><g transform="translate(88.301336, 27.483063)"><path style="stroke:none" d="M 5.90625 -5.046875 C 5.78125 -4.992188 5.65625 -4.941406 5.53125 -4.890625 C 5.40625 -4.847656 5.273438 -4.800781 5.140625 -4.75 C 5.171875 -4.644531 5.191406 -4.550781 5.203125 -4.46875 C 5.222656 -4.382812 5.25 -4.300781 5.28125 -4.21875 C 5.488281 -3.707031 5.695312 -3.195312 5.90625 -2.6875 C 6.125 -2.175781 6.335938 -1.664062 6.546875 -1.15625 C 6.578125 -1.082031 6.597656 -1 6.609375 -0.90625 C 6.628906 -0.820312 6.640625 -0.734375 6.640625 -0.640625 C 6.660156 -0.378906 6.539062 -0.195312 6.28125 -0.09375 C 6.164062 -0.0390625 6.050781 -0.0195312 5.9375 -0.03125 C 5.820312 -0.0390625 5.71875 -0.0976562 5.625 -0.203125 C 5.550781 -0.285156 5.484375 -0.363281 5.421875 -0.4375 C 5.359375 -0.519531 5.304688 -0.609375 5.265625 -0.703125 C 5.203125 -0.867188 5.132812 -1.035156 5.0625 -1.203125 C 5 -1.367188 4.9375 -1.535156 4.875 -1.703125 C 4.695312 -2.179688 4.523438 -2.65625 4.359375 -3.125 C 4.191406 -3.59375 4.019531 -4.0625 3.84375 -4.53125 L 2.21875 -4.8125 C 2.207031 -4.800781 2.179688 -4.78125 2.140625 -4.75 C 2.109375 -4.71875 2.085938 -4.679688 2.078125 -4.640625 C 1.972656 -4.296875 1.875 -3.941406 1.78125 -3.578125 C 1.695312 -3.222656 1.609375 -2.863281 1.515625 -2.5 C 1.429688 -2.207031 1.34375 -1.910156 1.25 -1.609375 C 1.15625 -1.304688 1.070312 -1.003906 1 -0.703125 C 0.988281 -0.660156 0.972656 -0.617188 0.953125 -0.578125 C 0.941406 -0.535156 0.925781 -0.492188 0.90625 -0.453125 C 0.84375 -0.359375 0.773438 -0.265625 0.703125 -0.171875 C 0.628906 -0.078125 0.519531 -0.0351562 0.375 -0.046875 C 0.25 -0.0546875 0.128906 -0.117188 0.015625 -0.234375 C -0.0976562 -0.359375 -0.15625 -0.5 -0.15625 -0.65625 C -0.15625 -0.789062 -0.148438 -0.925781 -0.140625 -1.0625 C -0.140625 -1.195312 -0.117188 -1.328125 -0.078125 -1.453125 C 0.242188 -2.378906 0.507812 -3.320312 0.71875 -4.28125 C 0.9375 -5.238281 1.179688 -6.1875 1.453125 -7.125 C 1.597656 -7.601562 1.742188 -8.082031 1.890625 -8.5625 C 2.046875 -9.050781 2.203125 -9.53125 2.359375 -10 C 2.441406 -10.269531 2.53125 -10.429688 2.625 -10.484375 C 2.726562 -10.535156 2.921875 -10.5625 3.203125 -10.5625 C 3.472656 -10.5625 3.742188 -10.5625 4.015625 -10.5625 C 4.285156 -10.570312 4.546875 -10.597656 4.796875 -10.640625 C 5.097656 -10.691406 5.390625 -10.6875 5.671875 -10.625 C 5.960938 -10.570312 6.253906 -10.507812 6.546875 -10.4375 C 6.785156 -10.382812 6.988281 -10.273438 7.15625 -10.109375 C 7.332031 -9.941406 7.484375 -9.75 7.609375 -9.53125 C 8.203125 -8.476562 8.207031 -7.429688 7.625 -6.390625 C 7.4375 -6.066406 7.191406 -5.796875 6.890625 -5.578125 C 6.585938 -5.359375 6.257812 -5.179688 5.90625 -5.046875 Z M 3.203125 -9.390625 C 3.078125 -8.878906 2.945312 -8.351562 2.8125 -7.8125 C 2.6875 -7.28125 2.554688 -6.722656 2.421875 -6.140625 C 2.546875 -6.097656 2.648438 -6.050781 2.734375 -6 C 2.828125 -5.957031 2.914062 -5.929688 3 -5.921875 C 3.5625 -5.859375 4.101562 -5.875 4.625 -5.96875 C 5.15625 -6.070312 5.660156 -6.28125 6.140625 -6.59375 C 6.328125 -6.695312 6.472656 -6.835938 6.578125 -7.015625 C 6.679688 -7.203125 6.757812 -7.394531 6.8125 -7.59375 C 6.925781 -8.0625 6.859375 -8.484375 6.609375 -8.859375 C 6.367188 -9.242188 6.007812 -9.472656 5.53125 -9.546875 C 5.15625 -9.597656 4.773438 -9.613281 4.390625 -9.59375 C 4.003906 -9.582031 3.609375 -9.515625 3.203125 -9.390625 Z M 3.203125 -9.390625 "/></g></g></g></svg>