<svg xmlns="http://www.w3.org/2000/svg" xmlns:xlink="http://www.w3.org/1999/xlink" width="200" zoomAndPan="magnify" viewBox="0 0 150 44.999999" height="60" preserveAspectRatio="xMidYMid meet" version="1.2"><defs><clipPath id="4a74b34ffb"><path d="M 15.027344 7 L 44 7 L 44 38 L 15.027344 38 Z M 15.027344 7 "/></clipPath><clipPath id="49b2ca6f08"><path d="M 25.171875 7 L 54 7 L 54 38 L 25.171875 38 Z M 25.171875 7 "/></clipPath></defs><g id="e469dbb3e8"><path style=" stroke:none;fill-rule:nonzero;fill:#fdcb05;fill-opacity:1;" d="M 13.097656 21.589844 C 13.0625 19.933594 10.78125 19.847656 11.023438 18.820312 C 11.160156 18.21875 13.503906 19.382812 13.800781 17.925781 C 14.097656 16.46875 10.828125 14.6875 12.542969 13.492188 C 13.917969 12.535156 15.15625 13.972656 15.882812 14.484375 C 16.695312 15.058594 18.761719 16.039062 19.355469 15.675781 C 19.953125 15.3125 18.050781 14.1875 19.058594 13.59375 C 20.042969 13.011719 20.21875 15.789062 21.210938 15.195312 C 22.203125 14.597656 21.585938 11.769531 23.691406 11.773438 C 25.578125 11.773438 24.785156 14.511719 25.734375 15.214844 C 26.285156 15.625 27.363281 15.542969 28.355469 15.972656 C 29.347656 16.402344 28.585938 17.652344 29.214844 18.578125 C 29.84375 19.507812 30.933594 19.214844 30.933594 20.9375 C 30.9375 22.566406 30.386719 21.644531 29.523438 23.066406 C 28.664062 24.488281 30.835938 25.203125 30.042969 26.460938 C 29.25 27.71875 27.5625 26.207031 26.96875 26.703125 C 26.371094 27.199219 29.273438 29.007812 28.378906 29.460938 C 27.484375 29.914062 26.667969 28.347656 25.839844 28.84375 C 25.015625 29.339844 28.972656 32.152344 26.269531 33.242188 C 24.015625 34.152344 25.070312 29.726562 22.632812 29.867188 C 19.871094 30.027344 22.335938 34.046875 19.457031 32.976562 C 17.535156 32.261719 18.875 31.070312 18.609375 30.078125 C 18.34375 29.085938 17.480469 29.660156 16.953125 29.328125 C 16.421875 28.996094 17.539062 27.222656 15.15625 25.800781 C 12.773438 24.375 10.339844 26.96875 10.226562 25.171875 C 10.078125 22.78125 13.144531 23.707031 13.097656 21.589844 Z M 33.253906 33.027344 C 33.652344 32.582031 29.601562 29.398438 29.070312 30.019531 C 28.65625 30.496094 32.722656 33.625 33.253906 33.027344 Z M 28.488281 35.546875 C 29.238281 34.820312 27.890625 33.421875 26.945312 34.179688 C 25.820312 35.085938 27.738281 36.273438 28.488281 35.546875 Z M 28.179688 36.804688 C 27.710938 37.429688 29.019531 38.105469 29.261719 37.445312 C 29.503906 36.78125 28.644531 36.1875 28.179688 36.804688 Z M 16.273438 30.410156 C 15.5625 31.242188 16.667969 31.777344 17.175781 31.246094 C 17.683594 30.71875 16.78125 29.8125 16.273438 30.410156 Z M 33.304688 22.441406 C 35.457031 21.628906 34.144531 19.378906 32.992188 19.628906 C 31.320312 19.992188 31.15625 23.25 33.304688 22.441406 Z M 23.695312 10.949219 C 25.066406 11.015625 24.945312 9.148438 23.695312 9.261719 C 22.800781 9.347656 22.320312 10.882812 23.695312 10.949219 Z M 24.34375 8.335938 C 24.726562 8.121094 23.78125 6.617188 23.21875 7.164062 C 22.65625 7.710938 23.964844 8.550781 24.34375 8.335938 Z M 18.617188 13.085938 C 19.078125 12.71875 18.46875 11.398438 17.640625 12.042969 C 16.8125 12.6875 18.152344 13.449219 18.617188 13.085938 Z M 16.382812 13.980469 C 17.074219 13.886719 12.507812 8.804688 11.6875 9.921875 C 11.136719 10.671875 15.941406 14.042969 16.382812 13.980469 Z M 7.320312 26.917969 C 8.269531 28.085938 9.832031 26.9375 9.039062 25.703125 C 8.246094 24.46875 6.394531 25.777344 7.320312 26.917969 Z M 7.320312 26.917969 "/><g style="fill:#006aa6;fill-opacity:1;"><g transform="translate(57.557566, 29.49224)"><path style="stroke:none" d="M 0.515625 -8 C 0.515625 -9.226562 0.75 -10.378906 1.21875 -11.453125 C 1.675781 -12.523438 2.316406 -13.441406 3.140625 -14.203125 C 3.953125 -14.960938 4.851562 -15.515625 5.84375 -15.859375 C 6.8125 -16.179688 7.847656 -16.34375 8.953125 -16.34375 C 9.523438 -16.34375 10.085938 -16.300781 10.640625 -16.21875 C 11.179688 -16.132812 11.710938 -15.960938 12.234375 -15.703125 C 12.953125 -15.378906 13.597656 -14.921875 14.171875 -14.328125 C 14.734375 -13.710938 15.125 -13.023438 15.34375 -12.265625 L 12.015625 -9.8125 C 11.671875 -10.5 11.234375 -11.050781 10.703125 -11.46875 C 10.179688 -11.882812 9.53125 -12.09375 8.75 -12.09375 C 8.1875 -12.09375 7.691406 -11.976562 7.265625 -11.75 C 6.828125 -11.519531 6.460938 -11.21875 6.171875 -10.84375 C 5.867188 -10.445312 5.640625 -10.003906 5.484375 -9.515625 C 5.328125 -9.015625 5.25 -8.507812 5.25 -8 C 5.25 -7.488281 5.335938 -7 5.515625 -6.53125 C 5.679688 -6.03125 5.914062 -5.597656 6.21875 -5.234375 C 6.53125 -4.859375 6.90625 -4.554688 7.34375 -4.328125 C 7.78125 -4.097656 8.273438 -3.984375 8.828125 -3.984375 C 9.535156 -3.984375 10.179688 -4.164062 10.765625 -4.53125 C 11.335938 -4.894531 11.78125 -5.398438 12.09375 -6.046875 L 15.484375 -3.46875 C 13.960938 -0.945312 11.722656 0.3125 8.765625 0.3125 C 7.578125 0.3125 6.445312 0.101562 5.375 -0.3125 C 4.3125 -0.695312 3.367188 -1.347656 2.546875 -2.265625 C 1.785156 -3.097656 1.257812 -3.984375 0.96875 -4.921875 C 0.664062 -5.859375 0.515625 -6.882812 0.515625 -8 Z M 0.515625 -8 "/></g></g><g style="fill:#006aa6;fill-opacity:1;"><g transform="translate(73.065137, 29.49224)"><path style="stroke:none" d="M 2.625 -2.34375 C 1.863281 -3.175781 1.320312 -4.050781 1 -4.96875 C 0.675781 -5.875 0.515625 -6.882812 0.515625 -8 C 0.515625 -9.175781 0.722656 -10.265625 1.140625 -11.265625 C 1.566406 -12.273438 2.15625 -13.148438 2.90625 -13.890625 C 3.65625 -14.640625 4.539062 -15.226562 5.5625 -15.65625 C 6.5625 -16.082031 7.648438 -16.296875 8.828125 -16.296875 C 9.941406 -16.296875 10.976562 -16.132812 11.9375 -15.8125 C 12.882812 -15.46875 13.742188 -14.941406 14.515625 -14.234375 C 15.328125 -13.460938 15.972656 -12.539062 16.453125 -11.46875 C 16.910156 -10.382812 17.140625 -9.226562 17.140625 -8 C 17.140625 -6.882812 16.976562 -5.875 16.65625 -4.96875 C 16.332031 -4.050781 15.785156 -3.175781 15.015625 -2.34375 C 14.203125 -1.476562 13.257812 -0.832031 12.1875 -0.40625 C 11.101562 0.0195312 9.972656 0.234375 8.796875 0.234375 C 7.609375 0.234375 6.492188 0.0195312 5.453125 -0.40625 C 4.398438 -0.8125 3.457031 -1.457031 2.625 -2.34375 Z M 5.328125 -8 C 5.328125 -7.488281 5.410156 -7 5.578125 -6.53125 C 5.734375 -6.03125 5.960938 -5.601562 6.265625 -5.25 C 6.554688 -4.875 6.925781 -4.578125 7.375 -4.359375 C 7.789062 -4.117188 8.273438 -4 8.828125 -4 C 9.367188 -4 9.859375 -4.117188 10.296875 -4.359375 C 10.722656 -4.578125 11.09375 -4.875 11.40625 -5.25 C 11.6875 -5.601562 11.914062 -6.03125 12.09375 -6.53125 C 12.238281 -7 12.3125 -7.488281 12.3125 -8 C 12.3125 -8.507812 12.238281 -9.015625 12.09375 -9.515625 C 11.914062 -9.984375 11.6875 -10.414062 11.40625 -10.8125 C 11.09375 -11.1875 10.722656 -11.492188 10.296875 -11.734375 C 9.859375 -11.972656 9.367188 -12.09375 8.828125 -12.09375 C 8.265625 -12.09375 7.769531 -11.976562 7.34375 -11.75 C 6.90625 -11.519531 6.539062 -11.21875 6.25 -10.84375 C 5.9375 -10.445312 5.707031 -10.003906 5.5625 -9.515625 C 5.40625 -9.015625 5.328125 -8.507812 5.328125 -8 Z M 5.328125 -8 "/></g></g><g style="fill:#006aa6;fill-opacity:1;"><g transform="translate(90.715201, 29.49224)"><path style="stroke:none" d="M 7.796875 -16.0625 C 8.648438 -16.0625 9.457031 -15.96875 10.21875 -15.78125 C 10.988281 -15.582031 11.660156 -15.273438 12.234375 -14.859375 C 12.816406 -14.441406 13.273438 -13.898438 13.609375 -13.234375 C 13.929688 -12.554688 14.085938 -11.734375 14.078125 -10.765625 C 14.054688 -9.890625 13.921875 -9.113281 13.671875 -8.4375 C 13.398438 -7.757812 12.90625 -7.148438 12.1875 -6.609375 L 11.90625 -6.40625 L 14.53125 -1.765625 L 9.8125 0.515625 L 6.65625 -5.6875 L 6.40625 -5.65625 L 6.375 0 L 1.171875 0 L 1.171875 -16.0625 Z M 6.375 -11.75 L 6.375 -8.765625 L 6.6875 -8.765625 C 6.914062 -8.765625 7.160156 -8.773438 7.421875 -8.796875 C 7.660156 -8.816406 7.890625 -8.867188 8.109375 -8.953125 C 8.359375 -9.035156 8.578125 -9.195312 8.765625 -9.4375 C 8.953125 -9.65625 9.046875 -9.953125 9.046875 -10.328125 C 9.066406 -10.703125 8.992188 -10.988281 8.828125 -11.1875 C 8.640625 -11.375 8.425781 -11.515625 8.1875 -11.609375 C 8.019531 -11.671875 7.84375 -11.710938 7.65625 -11.734375 C 7.46875 -11.742188 7.28125 -11.75 7.09375 -11.75 Z M 6.375 -11.75 "/></g></g><g style="fill:#006aa6;fill-opacity:1;"><g transform="translate(105.355573, 29.49224)"><path style="stroke:none" d="M 11.25 -16.0625 L 11.09375 -11.671875 L 6 -11.671875 L 6 -9.640625 L 10.09375 -9.640625 L 9.9375 -6.125 L 6 -6.125 L 6 -4.390625 L 11.25 -4.390625 L 11.09375 0 L 0.796875 0 L 0.796875 -16.0625 Z M 11.25 -16.0625 "/></g></g><g style="fill:#006aa6;fill-opacity:1;"><g transform="translate(117.292322, 29.49224)"><path style="stroke:none" d="M 7.453125 -16.375 C 8.109375 -16.375 8.785156 -16.285156 9.484375 -16.109375 C 10.160156 -15.941406 10.800781 -15.6875 11.40625 -15.34375 C 12 -15.007812 12.515625 -14.585938 12.953125 -14.078125 C 13.390625 -13.566406 13.703125 -12.960938 13.890625 -12.265625 L 10.5625 -10.15625 C 10.269531 -10.75 9.832031 -11.210938 9.25 -11.546875 C 8.675781 -11.890625 8.054688 -12.078125 7.390625 -12.109375 L 6.9375 -12.109375 C 6.78125 -12.109375 6.617188 -12.101562 6.453125 -12.09375 C 6.265625 -12.050781 6.09375 -12 5.9375 -11.9375 C 5.769531 -11.863281 5.632812 -11.769531 5.53125 -11.65625 C 5.425781 -11.53125 5.375 -11.367188 5.375 -11.171875 C 5.375 -10.878906 5.503906 -10.664062 5.765625 -10.53125 C 6.003906 -10.375 6.265625 -10.253906 6.546875 -10.171875 L 10.203125 -9.15625 C 10.796875 -8.988281 11.320312 -8.789062 11.78125 -8.5625 C 12.238281 -8.332031 12.628906 -8.050781 12.953125 -7.71875 C 13.273438 -7.382812 13.519531 -6.988281 13.6875 -6.53125 C 13.863281 -6.050781 13.953125 -5.488281 13.953125 -4.84375 C 13.953125 -3.976562 13.765625 -3.210938 13.390625 -2.546875 C 12.992188 -1.890625 12.515625 -1.347656 11.953125 -0.921875 C 11.328125 -0.460938 10.640625 -0.144531 9.890625 0.03125 C 9.140625 0.21875 8.347656 0.3125 7.515625 0.3125 C 6.054688 0.3125 4.707031 0.00390625 3.46875 -0.609375 C 2.207031 -1.203125 1.195312 -2.140625 0.4375 -3.421875 L 3.75 -5.9375 C 3.9375 -5.601562 4.175781 -5.304688 4.46875 -5.046875 C 4.738281 -4.796875 5.050781 -4.59375 5.40625 -4.4375 C 5.75 -4.269531 6.113281 -4.140625 6.5 -4.046875 C 6.875 -3.960938 7.25 -3.921875 7.625 -3.921875 C 7.789062 -3.921875 7.96875 -3.941406 8.15625 -3.984375 C 8.332031 -3.992188 8.492188 -4.039062 8.640625 -4.125 C 8.796875 -4.195312 8.925781 -4.289062 9.03125 -4.40625 C 9.132812 -4.53125 9.1875 -4.6875 9.1875 -4.875 C 9.164062 -5.09375 9.078125 -5.269531 8.921875 -5.40625 C 8.753906 -5.519531 8.519531 -5.628906 8.21875 -5.734375 L 4.484375 -6.90625 C 3.960938 -7.082031 3.476562 -7.296875 3.03125 -7.546875 C 2.59375 -7.785156 2.21875 -8.082031 1.90625 -8.4375 C 1.582031 -8.78125 1.335938 -9.179688 1.171875 -9.640625 C 0.984375 -10.097656 0.890625 -10.613281 0.890625 -11.1875 C 0.921875 -12.09375 1.132812 -12.878906 1.53125 -13.546875 C 1.90625 -14.191406 2.398438 -14.722656 3.015625 -15.140625 C 3.617188 -15.566406 4.3125 -15.882812 5.09375 -16.09375 C 5.863281 -16.28125 6.648438 -16.375 7.453125 -16.375 Z M 7.453125 -16.375 "/></g></g><g clip-rule="nonzero" clip-path="url(#4a74b34ffb)"><path style=" stroke:none;fill-rule:nonzero;fill:#ff3131;fill-opacity:1;" d="M 21.730469 21.589844 C 21.691406 19.933594 19.414062 19.847656 19.652344 18.820312 C 19.792969 18.21875 22.132812 19.382812 22.429688 17.925781 C 22.730469 16.46875 19.457031 14.6875 21.175781 13.492188 C 22.550781 12.535156 23.789062 13.972656 24.515625 14.484375 C 25.328125 15.058594 27.394531 16.039062 27.988281 15.675781 C 28.582031 15.3125 26.683594 14.1875 27.691406 13.59375 C 28.675781 13.011719 28.851562 15.789062 29.84375 15.195312 C 30.835938 14.597656 30.21875 11.769531 32.320312 11.773438 C 34.210938 11.773438 33.417969 14.511719 34.363281 15.214844 C 34.917969 15.625 35.992188 15.542969 36.984375 15.972656 C 37.980469 16.402344 37.214844 17.652344 37.84375 18.578125 C 38.472656 19.507812 39.566406 19.214844 39.566406 20.9375 C 39.566406 22.566406 39.015625 21.644531 38.15625 23.066406 C 37.296875 24.488281 39.46875 25.203125 38.671875 26.460938 C 37.878906 27.71875 36.195312 26.207031 35.597656 26.703125 C 35.003906 27.199219 37.902344 29.007812 37.007812 29.460938 C 36.117188 29.914062 35.300781 28.347656 34.472656 28.84375 C 33.644531 29.339844 37.605469 32.152344 34.902344 33.242188 C 32.644531 34.152344 33.703125 29.726562 31.261719 29.867188 C 28.5 30.027344 30.96875 34.046875 28.085938 32.976562 C 26.164062 32.261719 27.503906 31.070312 27.242188 30.078125 C 26.976562 29.085938 26.113281 29.660156 25.582031 29.328125 C 25.054688 28.996094 26.167969 27.222656 23.789062 25.800781 C 21.40625 24.375 18.972656 26.96875 18.859375 25.171875 C 18.707031 22.78125 21.777344 23.707031 21.730469 21.589844 Z M 41.882812 33.027344 C 42.28125 32.582031 38.234375 29.398438 37.699219 30.019531 C 37.285156 30.496094 41.355469 33.625 41.882812 33.027344 Z M 37.121094 35.546875 C 37.871094 34.820312 36.523438 33.421875 35.578125 34.179688 C 34.453125 35.085938 36.371094 36.273438 37.121094 35.546875 Z M 36.8125 36.804688 C 36.34375 37.429688 37.648438 38.105469 37.890625 37.445312 C 38.132812 36.78125 37.273438 36.1875 36.8125 36.804688 Z M 24.902344 30.410156 C 24.195312 31.242188 25.300781 31.777344 25.808594 31.246094 C 26.316406 30.71875 25.410156 29.8125 24.902344 30.410156 Z M 41.9375 22.441406 C 44.085938 21.628906 42.777344 19.378906 41.625 19.628906 C 39.953125 19.992188 39.789062 23.25 41.9375 22.441406 Z M 32.324219 10.949219 C 33.699219 11.015625 33.578125 9.148438 32.324219 9.261719 C 31.433594 9.347656 30.953125 10.882812 32.324219 10.949219 Z M 32.976562 8.335938 C 33.355469 8.121094 32.414062 6.617188 31.851562 7.164062 C 31.289062 7.710938 32.59375 8.550781 32.976562 8.335938 Z M 27.246094 13.085938 C 27.710938 12.71875 27.097656 11.398438 26.273438 12.042969 C 25.445312 12.6875 26.785156 13.449219 27.246094 13.085938 Z M 25.015625 13.980469 C 25.707031 13.886719 21.140625 8.804688 20.316406 9.921875 C 19.765625 10.671875 24.574219 14.042969 25.015625 13.980469 Z M 15.953125 26.917969 C 16.898438 28.085938 18.464844 26.9375 17.671875 25.703125 C 16.878906 24.46875 15.027344 25.777344 15.953125 26.917969 Z M 15.953125 26.917969 "/></g><g clip-rule="nonzero" clip-path="url(#49b2ca6f08)"><path style=" stroke:none;fill-rule:nonzero;fill:#4bb21f;fill-opacity:1;" d="M 31.875 21.589844 C 31.835938 19.933594 29.558594 19.847656 29.796875 18.820312 C 29.9375 18.21875 32.277344 19.382812 32.578125 17.925781 C 32.875 16.46875 29.601562 14.6875 31.320312 13.492188 C 32.695312 12.535156 33.933594 13.972656 34.660156 14.484375 C 35.472656 15.058594 37.539062 16.039062 38.132812 15.675781 C 38.730469 15.3125 36.828125 14.1875 37.835938 13.59375 C 38.820312 13.011719 38.996094 15.789062 39.988281 15.195312 C 40.980469 14.597656 40.363281 11.769531 42.46875 11.773438 C 44.355469 11.773438 43.5625 14.511719 44.507812 15.214844 C 45.0625 15.625 46.140625 15.542969 47.132812 15.972656 C 48.125 16.402344 47.363281 17.652344 47.988281 18.578125 C 48.617188 19.507812 49.710938 19.214844 49.710938 20.9375 C 49.710938 22.566406 49.160156 21.644531 48.300781 23.066406 C 47.441406 24.488281 49.613281 25.203125 48.816406 26.460938 C 48.023438 27.71875 46.339844 26.207031 45.742188 26.703125 C 45.148438 27.199219 48.046875 29.007812 47.15625 29.460938 C 46.261719 29.914062 45.445312 28.347656 44.617188 28.84375 C 43.789062 29.339844 47.75 32.152344 45.046875 33.242188 C 42.792969 34.152344 43.847656 29.726562 41.410156 29.867188 C 38.644531 30.027344 41.113281 34.046875 38.234375 32.976562 C 36.308594 32.261719 37.652344 31.070312 37.386719 30.078125 C 37.121094 29.085938 36.257812 29.660156 35.726562 29.328125 C 35.199219 28.996094 36.3125 27.222656 33.933594 25.800781 C 31.550781 24.375 29.117188 26.96875 29.003906 25.171875 C 28.851562 22.78125 31.921875 23.707031 31.875 21.589844 Z M 52.027344 33.027344 C 52.425781 32.582031 48.378906 29.398438 47.84375 30.019531 C 47.429688 30.496094 51.5 33.625 52.027344 33.027344 Z M 47.265625 35.546875 C 48.015625 34.820312 46.667969 33.421875 45.722656 34.179688 C 44.597656 35.085938 46.515625 36.273438 47.265625 35.546875 Z M 46.957031 36.804688 C 46.488281 37.429688 47.792969 38.105469 48.035156 37.445312 C 48.277344 36.78125 47.417969 36.1875 46.957031 36.804688 Z M 35.050781 30.410156 C 34.339844 31.242188 35.445312 31.777344 35.953125 31.246094 C 36.460938 30.71875 35.554688 29.8125 35.050781 30.410156 Z M 52.082031 22.441406 C 54.230469 21.628906 52.921875 19.378906 51.769531 19.628906 C 50.097656 19.992188 49.933594 23.25 52.082031 22.441406 Z M 42.46875 10.949219 C 43.84375 11.015625 43.722656 9.148438 42.46875 9.261719 C 41.578125 9.347656 41.097656 10.882812 42.46875 10.949219 Z M 43.121094 8.335938 C 43.5 8.121094 42.558594 6.617188 41.996094 7.164062 C 41.433594 7.710938 42.738281 8.550781 43.121094 8.335938 Z M 37.394531 13.085938 C 37.855469 12.71875 37.246094 11.398438 36.417969 12.042969 C 35.589844 12.6875 36.929688 13.449219 37.394531 13.085938 Z M 35.160156 13.980469 C 35.851562 13.886719 31.285156 8.804688 30.460938 9.921875 C 29.910156 10.671875 34.71875 14.042969 35.160156 13.980469 Z M 26.097656 26.917969 C 27.042969 28.085938 28.609375 26.9375 27.816406 25.703125 C 27.023438 24.46875 25.171875 25.777344 26.097656 26.917969 Z M 26.097656 26.917969 "/></g></g></svg>