<svg xmlns="http://www.w3.org/2000/svg" xmlns:xlink="http://www.w3.org/1999/xlink" width="200" zoomAndPan="magnify" viewBox="0 0 150 44.999999" height="60" preserveAspectRatio="xMidYMid meet" version="1.2"><defs><clipPath id="897ffa2012"><path d="M 36 10.742188 L 40.964844 10.742188 L 40.964844 18 L 36 18 Z M 36 10.742188 "/></clipPath><clipPath id="ebd6db5cf7"><path d="M 25.964844 14 L 33 14 L 33 23.492188 L 25.964844 23.492188 Z M 25.964844 14 "/></clipPath></defs><g id="d02d5369c7"><g clip-rule="nonzero" clip-path="url(#897ffa2012)"><path style=" stroke:none;fill-rule:evenodd;fill:#fdcb05;fill-opacity:1;" d="M 38.292969 10.941406 C 38.257812 11.019531 38.222656 11.265625 38.222656 11.484375 C 38.222656 11.992188 37.945312 12.855469 37.648438 13.296875 C 37.386719 13.667969 36.660156 14.304688 36.285156 14.484375 C 36.152344 14.550781 36.046875 14.636719 36.046875 14.683594 C 36.046875 14.734375 36.351562 14.921875 36.726562 15.101562 C 37.183594 15.320312 37.460938 15.507812 37.582031 15.667969 C 37.765625 15.90625 38.011719 16.589844 38.113281 17.113281 C 38.175781 17.4375 38.273438 17.546875 38.480469 17.546875 C 38.691406 17.546875 38.765625 17.410156 38.832031 16.910156 C 38.902344 16.335938 39.128906 15.792969 39.410156 15.523438 C 39.539062 15.398438 39.875 15.195312 40.148438 15.089844 C 40.605469 14.90625 40.648438 14.863281 40.671875 14.660156 C 40.695312 14.441406 40.671875 14.421875 40.164062 14.167969 C 39.875 14.023438 39.578125 13.847656 39.496094 13.78125 C 39.171875 13.5 38.96875 12.8125 38.894531 11.816406 C 38.875 11.441406 38.824219 11.054688 38.792969 10.960938 C 38.714844 10.757812 38.402344 10.746094 38.292969 10.941406 Z M 38.546875 13.40625 C 38.613281 13.703125 38.960938 14.167969 39.308594 14.421875 L 39.597656 14.632812 L 39.230469 14.890625 C 39.027344 15.042969 38.78125 15.304688 38.671875 15.480469 C 38.5625 15.652344 38.453125 15.804688 38.429688 15.804688 C 38.402344 15.804688 38.34375 15.710938 38.292969 15.589844 C 38.175781 15.296875 37.742188 14.871094 37.445312 14.746094 C 37.316406 14.6875 37.207031 14.632812 37.207031 14.617188 C 37.207031 14.59375 37.414062 14.382812 37.667969 14.144531 C 37.917969 13.898438 38.183594 13.585938 38.265625 13.449219 C 38.429688 13.136719 38.480469 13.128906 38.546875 13.40625 Z M 38.546875 13.40625 "/></g><g clip-rule="nonzero" clip-path="url(#ebd6db5cf7)"><path style=" stroke:none;fill-rule:evenodd;fill:#fdcb05;fill-opacity:1;" d="M 29.597656 14.785156 C 29.53125 14.828125 29.476562 15.074219 29.4375 15.449219 C 29.34375 16.488281 28.917969 17.445312 28.269531 18.0625 C 27.859375 18.460938 26.945312 18.945312 26.371094 19.078125 C 26.148438 19.128906 25.964844 19.191406 25.964844 19.230469 C 25.964844 19.257812 25.996094 19.285156 26.023438 19.285156 C 26.058594 19.285156 26.125 19.367188 26.167969 19.460938 C 26.226562 19.597656 26.335938 19.65625 26.667969 19.722656 C 27.574219 19.902344 27.726562 19.960938 28.03125 20.257812 C 28.402344 20.613281 28.605469 21.128906 28.800781 22.152344 C 29.027344 23.3125 29.082031 23.449219 29.34375 23.480469 C 29.46875 23.492188 29.605469 23.457031 29.640625 23.40625 C 29.683594 23.355469 29.808594 22.933594 29.910156 22.476562 C 30.128906 21.519531 30.492188 20.707031 30.851562 20.390625 C 31.085938 20.1875 31.425781 20.046875 32.109375 19.867188 C 32.3125 19.816406 32.425781 19.742188 32.457031 19.640625 C 32.527344 19.433594 32.339844 19.273438 31.796875 19.078125 C 30.707031 18.683594 30.351562 17.960938 30.097656 15.660156 C 29.996094 14.761719 29.902344 14.59375 29.597656 14.785156 Z M 29.734375 17.363281 C 29.734375 17.953125 30.316406 19.019531 30.796875 19.300781 C 30.933594 19.382812 31.042969 19.46875 31.042969 19.496094 C 31.042969 19.519531 30.925781 19.605469 30.78125 19.6875 C 30.644531 19.757812 30.410156 19.945312 30.273438 20.105469 C 30.019531 20.382812 29.519531 21.324219 29.519531 21.519531 C 29.519531 21.773438 29.34375 21.511719 29.171875 20.984375 C 28.875 20.09375 28.460938 19.605469 27.8125 19.359375 C 27.714844 19.324219 27.632812 19.265625 27.632812 19.234375 C 27.632812 19.199219 27.785156 19.097656 27.972656 18.996094 C 28.453125 18.742188 29.078125 18.105469 29.359375 17.5625 C 29.597656 17.113281 29.734375 17.039062 29.734375 17.363281 Z M 29.734375 17.363281 "/></g><g style="fill:#194e92;fill-opacity:1;"><g transform="translate(30.629384, 29.866709)"><path style="stroke:none" d="M 6.140625 -9.46875 C 6.140625 -9.457031 6.132812 -9.441406 6.125 -9.421875 C 6.125 -9.410156 6.125 -9.382812 6.125 -9.34375 C 6.082031 -9.09375 6.039062 -8.832031 6 -8.5625 C 5.957031 -8.289062 5.90625 -8.023438 5.84375 -7.765625 C 5.78125 -7.410156 5.703125 -7.054688 5.609375 -6.703125 C 5.523438 -6.347656 5.441406 -6 5.359375 -5.65625 C 5.335938 -5.550781 5.320312 -5.453125 5.3125 -5.359375 C 5.300781 -5.273438 5.285156 -5.179688 5.265625 -5.078125 C 5.171875 -4.472656 5.050781 -3.875 4.90625 -3.28125 C 4.769531 -2.695312 4.566406 -2.125 4.296875 -1.5625 C 4.078125 -1.101562 3.785156 -0.75 3.421875 -0.5 C 3.054688 -0.25 2.617188 -0.0820312 2.109375 0 C 1.679688 0.0703125 1.296875 0.046875 0.953125 -0.078125 C 0.617188 -0.203125 0.3125 -0.414062 0.03125 -0.71875 C -0.125 -0.875 -0.238281 -1.046875 -0.3125 -1.234375 C -0.394531 -1.429688 -0.460938 -1.628906 -0.515625 -1.828125 C -0.554688 -1.972656 -0.5625 -2.117188 -0.53125 -2.265625 C -0.5 -2.421875 -0.425781 -2.5625 -0.3125 -2.6875 C -0.15625 -2.84375 0.015625 -2.921875 0.203125 -2.921875 C 0.398438 -2.921875 0.5625 -2.828125 0.6875 -2.640625 C 0.726562 -2.566406 0.769531 -2.484375 0.8125 -2.390625 C 0.851562 -2.296875 0.882812 -2.203125 0.90625 -2.109375 C 1.007812 -1.765625 1.191406 -1.539062 1.453125 -1.4375 C 1.722656 -1.332031 1.992188 -1.316406 2.265625 -1.390625 C 2.546875 -1.472656 2.757812 -1.613281 2.90625 -1.8125 C 2.976562 -1.894531 3.039062 -1.984375 3.09375 -2.078125 C 3.144531 -2.179688 3.1875 -2.28125 3.21875 -2.375 C 3.457031 -2.894531 3.632812 -3.425781 3.75 -3.96875 C 3.863281 -4.507812 3.984375 -5.046875 4.109375 -5.578125 C 4.253906 -6.203125 4.394531 -6.820312 4.53125 -7.4375 C 4.675781 -8.0625 4.828125 -8.679688 4.984375 -9.296875 C 4.992188 -9.378906 5.015625 -9.457031 5.046875 -9.53125 C 5.085938 -9.613281 5.128906 -9.6875 5.171875 -9.75 C 5.234375 -9.875 5.320312 -9.957031 5.4375 -10 C 5.5625 -10.050781 5.6875 -10.050781 5.8125 -10 C 6.03125 -9.914062 6.140625 -9.738281 6.140625 -9.46875 Z M 6.140625 -9.46875 "/></g></g><g style="fill:#194e92;fill-opacity:1;"><g transform="translate(36.777237, 29.866709)"><path style="stroke:none" d="M 6.9375 -9.390625 C 7.394531 -8.835938 7.695312 -8.226562 7.84375 -7.5625 C 7.988281 -6.894531 8.0625 -6.171875 8.0625 -5.390625 C 7.988281 -4.390625 7.71875 -3.457031 7.25 -2.59375 C 6.78125 -1.738281 6.109375 -0.984375 5.234375 -0.328125 C 4.984375 -0.148438 4.71875 -0.0078125 4.4375 0.09375 C 4.15625 0.195312 3.851562 0.234375 3.53125 0.203125 C 3.195312 0.160156 2.878906 0.0820312 2.578125 -0.03125 C 2.285156 -0.15625 2.015625 -0.335938 1.765625 -0.578125 C 1.390625 -0.960938 1.101562 -1.375 0.90625 -1.8125 C 0.71875 -2.257812 0.601562 -2.738281 0.5625 -3.25 C 0.4375 -4.5 0.585938 -5.628906 1.015625 -6.640625 C 1.441406 -7.648438 2.125 -8.5625 3.0625 -9.375 C 3.207031 -9.5 3.363281 -9.609375 3.53125 -9.703125 C 3.695312 -9.804688 3.863281 -9.90625 4.03125 -10 C 4.320312 -10.15625 4.648438 -10.222656 5.015625 -10.203125 C 5.390625 -10.191406 5.753906 -10.113281 6.109375 -9.96875 C 6.460938 -9.820312 6.738281 -9.628906 6.9375 -9.390625 Z M 2.71875 -7.53125 C 2.382812 -6.988281 2.117188 -6.425781 1.921875 -5.84375 C 1.734375 -5.269531 1.65625 -4.664062 1.6875 -4.03125 C 1.632812 -3.519531 1.675781 -3.046875 1.8125 -2.609375 C 1.957031 -2.171875 2.203125 -1.769531 2.546875 -1.40625 C 2.773438 -1.164062 3.054688 -1.007812 3.390625 -0.9375 C 3.671875 -0.882812 3.921875 -0.898438 4.140625 -0.984375 C 4.367188 -1.078125 4.578125 -1.203125 4.765625 -1.359375 C 5.046875 -1.597656 5.296875 -1.859375 5.515625 -2.140625 C 5.734375 -2.421875 5.925781 -2.722656 6.09375 -3.046875 C 6.257812 -3.410156 6.382812 -3.789062 6.46875 -4.1875 C 6.5625 -4.582031 6.648438 -4.972656 6.734375 -5.359375 C 6.847656 -5.867188 6.863281 -6.351562 6.78125 -6.8125 C 6.695312 -7.269531 6.5625 -7.726562 6.375 -8.1875 C 6.300781 -8.363281 6.203125 -8.53125 6.078125 -8.6875 C 5.984375 -8.8125 5.867188 -8.910156 5.734375 -8.984375 C 5.609375 -9.066406 5.46875 -9.101562 5.3125 -9.09375 C 5.039062 -9.09375 4.773438 -9.0625 4.515625 -9 C 4.265625 -8.945312 4.03125 -8.835938 3.8125 -8.671875 C 3.601562 -8.515625 3.40625 -8.34375 3.21875 -8.15625 C 3.03125 -7.96875 2.863281 -7.757812 2.71875 -7.53125 Z M 2.71875 -7.53125 "/></g></g><g style="fill:#194e92;fill-opacity:1;"><g transform="translate(45.364261, 29.866709)"><path style="stroke:none" d="M 4.625 -1.296875 C 5.070312 -1.546875 5.421875 -1.859375 5.671875 -2.234375 C 5.921875 -2.617188 6.039062 -3.101562 6.03125 -3.6875 C 5.882812 -3.6875 5.75 -3.6875 5.625 -3.6875 C 5.5 -3.6875 5.375 -3.691406 5.25 -3.703125 C 4.976562 -3.722656 4.703125 -3.738281 4.421875 -3.75 C 4.148438 -3.769531 3.875 -3.796875 3.59375 -3.828125 C 3.46875 -3.847656 3.363281 -3.898438 3.28125 -3.984375 C 3.207031 -4.078125 3.171875 -4.171875 3.171875 -4.265625 C 3.171875 -4.359375 3.207031 -4.457031 3.28125 -4.5625 C 3.351562 -4.675781 3.441406 -4.742188 3.546875 -4.765625 C 3.710938 -4.796875 3.878906 -4.8125 4.046875 -4.8125 C 4.234375 -4.8125 4.414062 -4.8125 4.59375 -4.8125 C 4.769531 -4.8125 4.953125 -4.800781 5.140625 -4.78125 C 5.492188 -4.75 5.847656 -4.742188 6.203125 -4.765625 C 6.566406 -4.785156 6.929688 -4.804688 7.296875 -4.828125 C 7.390625 -4.828125 7.484375 -4.820312 7.578125 -4.8125 C 7.671875 -4.800781 7.757812 -4.78125 7.84375 -4.75 C 8.007812 -4.6875 8.097656 -4.570312 8.109375 -4.40625 C 8.117188 -4.238281 8.050781 -4.109375 7.90625 -4.015625 C 7.8125 -3.953125 7.703125 -3.898438 7.578125 -3.859375 C 7.453125 -3.816406 7.320312 -3.757812 7.1875 -3.6875 C 7.144531 -3.507812 7.097656 -3.320312 7.046875 -3.125 C 7.003906 -2.925781 6.957031 -2.722656 6.90625 -2.515625 C 6.757812 -1.953125 6.488281 -1.457031 6.09375 -1.03125 C 5.695312 -0.601562 5.21875 -0.296875 4.65625 -0.109375 C 4.101562 0.0664062 3.507812 0.078125 2.875 -0.078125 C 2.65625 -0.128906 2.453125 -0.210938 2.265625 -0.328125 C 2.085938 -0.441406 1.914062 -0.578125 1.75 -0.734375 C 1.5 -1.003906 1.285156 -1.289062 1.109375 -1.59375 C 0.941406 -1.894531 0.816406 -2.234375 0.734375 -2.609375 C 0.578125 -3.441406 0.535156 -4.253906 0.609375 -5.046875 C 0.691406 -5.847656 0.925781 -6.628906 1.3125 -7.390625 C 1.5625 -7.867188 1.867188 -8.296875 2.234375 -8.671875 C 2.597656 -9.046875 3.015625 -9.363281 3.484375 -9.625 C 3.816406 -9.820312 4.15625 -9.941406 4.5 -9.984375 C 4.851562 -10.035156 5.210938 -10.019531 5.578125 -9.9375 C 5.941406 -9.882812 6.265625 -9.738281 6.546875 -9.5 C 6.828125 -9.257812 7.039062 -8.96875 7.1875 -8.625 C 7.332031 -8.289062 7.382812 -7.941406 7.34375 -7.578125 C 7.3125 -7.328125 7.265625 -7.082031 7.203125 -6.84375 C 7.140625 -6.601562 7.078125 -6.363281 7.015625 -6.125 C 6.953125 -5.90625 6.800781 -5.75 6.5625 -5.65625 C 6.4375 -5.625 6.328125 -5.632812 6.234375 -5.6875 C 6.140625 -5.738281 6.097656 -5.828125 6.109375 -5.953125 C 6.117188 -6.128906 6.128906 -6.304688 6.140625 -6.484375 C 6.160156 -6.671875 6.175781 -6.851562 6.1875 -7.03125 C 6.207031 -7.238281 6.210938 -7.441406 6.203125 -7.640625 C 6.203125 -7.847656 6.164062 -8.054688 6.09375 -8.265625 C 5.914062 -8.710938 5.578125 -8.953125 5.078125 -8.984375 C 4.585938 -9.035156 4.140625 -8.910156 3.734375 -8.609375 C 3.359375 -8.335938 3.03125 -8.019531 2.75 -7.65625 C 2.476562 -7.300781 2.269531 -6.90625 2.125 -6.46875 C 1.945312 -5.925781 1.828125 -5.378906 1.765625 -4.828125 C 1.710938 -4.285156 1.734375 -3.738281 1.828125 -3.1875 C 1.867188 -2.863281 1.953125 -2.554688 2.078125 -2.265625 C 2.210938 -1.984375 2.414062 -1.734375 2.6875 -1.515625 C 2.957031 -1.304688 3.273438 -1.175781 3.640625 -1.125 C 4.003906 -1.082031 4.332031 -1.140625 4.625 -1.296875 Z M 4.625 -1.296875 "/></g></g><g style="fill:#194e92;fill-opacity:1;"><g transform="translate(53.937022, 29.866709)"><path style="stroke:none" d="M 4.734375 -0.8125 C 4.691406 -1.082031 4.65625 -1.347656 4.625 -1.609375 C 4.59375 -1.867188 4.554688 -2.144531 4.515625 -2.4375 C 4.210938 -2.507812 3.914062 -2.546875 3.625 -2.546875 C 3.34375 -2.546875 3.066406 -2.53125 2.796875 -2.5 C 2.410156 -2.457031 2.117188 -2.429688 1.921875 -2.421875 C 1.722656 -2.410156 1.570312 -2.375 1.46875 -2.3125 C 1.375 -2.257812 1.28125 -2.148438 1.1875 -1.984375 C 1.101562 -1.816406 0.96875 -1.5625 0.78125 -1.21875 C 0.71875 -1.070312 0.628906 -0.929688 0.515625 -0.796875 C 0.410156 -0.671875 0.304688 -0.546875 0.203125 -0.421875 C 0.046875 -0.253906 -0.128906 -0.222656 -0.328125 -0.328125 C -0.453125 -0.378906 -0.550781 -0.457031 -0.625 -0.5625 C -0.695312 -0.675781 -0.71875 -0.789062 -0.6875 -0.90625 C -0.65625 -1.09375 -0.59375 -1.28125 -0.5 -1.46875 C -0.125 -2.207031 0.242188 -2.953125 0.609375 -3.703125 C 0.972656 -4.453125 1.359375 -5.1875 1.765625 -5.90625 C 2.085938 -6.5 2.429688 -7.078125 2.796875 -7.640625 C 3.171875 -8.210938 3.535156 -8.785156 3.890625 -9.359375 C 3.941406 -9.441406 4 -9.519531 4.0625 -9.59375 C 4.125 -9.675781 4.191406 -9.75 4.265625 -9.8125 C 4.390625 -9.914062 4.535156 -9.96875 4.703125 -9.96875 C 4.867188 -9.96875 5.015625 -9.921875 5.140625 -9.828125 C 5.265625 -9.734375 5.335938 -9.597656 5.359375 -9.421875 C 5.390625 -9.203125 5.421875 -8.984375 5.453125 -8.765625 C 5.484375 -8.546875 5.5 -8.328125 5.5 -8.109375 C 5.550781 -7.566406 5.59375 -7.023438 5.625 -6.484375 C 5.65625 -5.941406 5.691406 -5.40625 5.734375 -4.875 C 5.753906 -4.601562 5.773438 -4.328125 5.796875 -4.046875 C 5.816406 -3.773438 5.84375 -3.5 5.875 -3.21875 C 5.894531 -2.945312 5.914062 -2.671875 5.9375 -2.390625 C 5.96875 -2.117188 5.988281 -1.84375 6 -1.5625 C 6.019531 -1.382812 6.023438 -1.203125 6.015625 -1.015625 C 6.003906 -0.835938 5.992188 -0.664062 5.984375 -0.5 C 5.941406 -0.195312 5.742188 -0.0351562 5.390625 -0.015625 C 5.109375 -0.015625 4.921875 -0.144531 4.828125 -0.40625 C 4.785156 -0.53125 4.753906 -0.664062 4.734375 -0.8125 Z M 2.1875 -3.71875 C 2.570312 -3.75 2.9375 -3.773438 3.28125 -3.796875 C 3.632812 -3.828125 3.976562 -3.851562 4.3125 -3.875 C 4.363281 -4.175781 4.378906 -4.617188 4.359375 -5.203125 C 4.347656 -5.796875 4.289062 -6.457031 4.1875 -7.1875 C 4.1875 -7.207031 4.171875 -7.222656 4.140625 -7.234375 C 4.109375 -7.253906 4.070312 -7.273438 4.03125 -7.296875 C 3.695312 -6.734375 3.367188 -6.15625 3.046875 -5.5625 C 2.734375 -4.976562 2.445312 -4.363281 2.1875 -3.71875 Z M 2.1875 -3.71875 "/></g></g><g style="fill:#194e92;fill-opacity:1;"><g transform="translate(61.268799, 29.866709)"><path style="stroke:none" d="M 5.5 -4.703125 C 5.382812 -4.660156 5.269531 -4.617188 5.15625 -4.578125 C 5.050781 -4.535156 4.929688 -4.488281 4.796875 -4.4375 C 4.828125 -4.34375 4.847656 -4.253906 4.859375 -4.171875 C 4.878906 -4.085938 4.90625 -4.007812 4.9375 -3.9375 C 5.125 -3.457031 5.316406 -2.976562 5.515625 -2.5 C 5.722656 -2.03125 5.921875 -1.554688 6.109375 -1.078125 C 6.140625 -1.003906 6.160156 -0.925781 6.171875 -0.84375 C 6.191406 -0.769531 6.203125 -0.6875 6.203125 -0.59375 C 6.222656 -0.351562 6.109375 -0.179688 5.859375 -0.078125 C 5.753906 -0.0351562 5.644531 -0.0195312 5.53125 -0.03125 C 5.425781 -0.0390625 5.332031 -0.09375 5.25 -0.1875 C 5.1875 -0.257812 5.125 -0.332031 5.0625 -0.40625 C 5.007812 -0.488281 4.960938 -0.570312 4.921875 -0.65625 C 4.859375 -0.8125 4.796875 -0.96875 4.734375 -1.125 C 4.671875 -1.28125 4.609375 -1.429688 4.546875 -1.578125 C 4.390625 -2.023438 4.234375 -2.46875 4.078125 -2.90625 C 3.921875 -3.351562 3.757812 -3.796875 3.59375 -4.234375 L 2.0625 -4.5 C 2.050781 -4.488281 2.03125 -4.46875 2 -4.4375 C 1.96875 -4.40625 1.945312 -4.375 1.9375 -4.34375 C 1.84375 -4.019531 1.753906 -3.6875 1.671875 -3.34375 C 1.585938 -3.007812 1.5 -2.675781 1.40625 -2.34375 C 1.332031 -2.0625 1.253906 -1.78125 1.171875 -1.5 C 1.085938 -1.21875 1.003906 -0.9375 0.921875 -0.65625 C 0.910156 -0.613281 0.898438 -0.570312 0.890625 -0.53125 C 0.878906 -0.5 0.863281 -0.460938 0.84375 -0.421875 C 0.78125 -0.328125 0.71875 -0.238281 0.65625 -0.15625 C 0.59375 -0.0703125 0.492188 -0.0351562 0.359375 -0.046875 C 0.234375 -0.0546875 0.117188 -0.117188 0.015625 -0.234375 C -0.0859375 -0.347656 -0.140625 -0.472656 -0.140625 -0.609375 C -0.140625 -0.734375 -0.132812 -0.859375 -0.125 -0.984375 C -0.125 -1.117188 -0.109375 -1.242188 -0.078125 -1.359375 C 0.234375 -2.222656 0.488281 -3.097656 0.6875 -3.984375 C 0.882812 -4.878906 1.109375 -5.765625 1.359375 -6.640625 C 1.492188 -7.085938 1.628906 -7.535156 1.765625 -7.984375 C 1.910156 -8.441406 2.054688 -8.890625 2.203125 -9.328125 C 2.285156 -9.585938 2.367188 -9.738281 2.453125 -9.78125 C 2.546875 -9.832031 2.726562 -9.859375 3 -9.859375 C 3.238281 -9.859375 3.484375 -9.859375 3.734375 -9.859375 C 3.992188 -9.867188 4.242188 -9.890625 4.484375 -9.921875 C 4.765625 -9.972656 5.035156 -9.972656 5.296875 -9.921875 C 5.566406 -9.867188 5.835938 -9.8125 6.109375 -9.75 C 6.335938 -9.695312 6.53125 -9.59375 6.6875 -9.4375 C 6.851562 -9.28125 6.992188 -9.101562 7.109375 -8.90625 C 7.660156 -7.914062 7.664062 -6.9375 7.125 -5.96875 C 6.945312 -5.664062 6.710938 -5.410156 6.421875 -5.203125 C 6.140625 -5.003906 5.832031 -4.835938 5.5 -4.703125 Z M 3 -8.765625 C 2.875 -8.285156 2.75 -7.796875 2.625 -7.296875 C 2.507812 -6.796875 2.382812 -6.273438 2.25 -5.734375 C 2.375 -5.691406 2.476562 -5.648438 2.5625 -5.609375 C 2.644531 -5.566406 2.722656 -5.539062 2.796875 -5.53125 C 3.328125 -5.46875 3.835938 -5.484375 4.328125 -5.578125 C 4.816406 -5.671875 5.285156 -5.863281 5.734375 -6.15625 C 5.898438 -6.257812 6.035156 -6.390625 6.140625 -6.546875 C 6.242188 -6.710938 6.316406 -6.894531 6.359375 -7.09375 C 6.460938 -7.53125 6.398438 -7.925781 6.171875 -8.28125 C 5.941406 -8.632812 5.609375 -8.847656 5.171875 -8.921875 C 4.816406 -8.960938 4.457031 -8.972656 4.09375 -8.953125 C 3.726562 -8.941406 3.363281 -8.878906 3 -8.765625 Z M 3 -8.765625 "/></g></g><g style="fill:#194e92;fill-opacity:1;"><g transform="translate(69.057029, 29.866709)"><path style="stroke:none" d=""/></g></g><g style="fill:#194e92;fill-opacity:1;"><g transform="translate(72.13809, 29.866709)"><path style="stroke:none" d="M 1.15625 -0.0625 C 1 -0.132812 0.835938 -0.175781 0.671875 -0.1875 C 0.515625 -0.207031 0.351562 -0.203125 0.1875 -0.171875 C -0.09375 -0.472656 -0.191406 -0.773438 -0.109375 -1.078125 C 0.148438 -2.054688 0.410156 -3.035156 0.671875 -4.015625 C 0.929688 -4.992188 1.191406 -5.96875 1.453125 -6.9375 C 1.566406 -7.351562 1.6875 -7.765625 1.8125 -8.171875 C 1.9375 -8.578125 2.0625 -8.988281 2.1875 -9.40625 C 2.257812 -9.644531 2.351562 -9.804688 2.46875 -9.890625 C 2.59375 -9.984375 2.78125 -9.992188 3.03125 -9.921875 C 3.1875 -9.890625 3.332031 -9.875 3.46875 -9.875 C 3.613281 -9.875 3.765625 -9.882812 3.921875 -9.90625 C 4.460938 -9.96875 5.015625 -9.957031 5.578125 -9.875 C 6.285156 -9.769531 6.800781 -9.398438 7.125 -8.765625 C 7.34375 -8.347656 7.476562 -7.914062 7.53125 -7.46875 C 7.59375 -7.019531 7.601562 -6.566406 7.5625 -6.109375 C 7.519531 -5.703125 7.441406 -5.296875 7.328125 -4.890625 C 7.222656 -4.484375 7.101562 -4.082031 6.96875 -3.6875 C 6.851562 -3.300781 6.675781 -2.945312 6.4375 -2.625 C 6.207031 -2.300781 5.945312 -2 5.65625 -1.71875 C 5.539062 -1.59375 5.410156 -1.46875 5.265625 -1.34375 C 5.117188 -1.226562 4.976562 -1.117188 4.84375 -1.015625 C 4.34375 -0.617188 3.804688 -0.359375 3.234375 -0.234375 C 2.671875 -0.109375 2.085938 -0.0351562 1.484375 -0.015625 C 1.421875 -0.015625 1.363281 -0.015625 1.3125 -0.015625 C 1.257812 -0.015625 1.207031 -0.03125 1.15625 -0.0625 Z M 4.75 -8.796875 C 4.507812 -8.796875 4.257812 -8.78125 4 -8.75 C 3.75 -8.71875 3.484375 -8.6875 3.203125 -8.65625 L 2.6875 -6.65625 L 1.484375 -2 C 1.460938 -1.90625 1.441406 -1.800781 1.421875 -1.6875 C 1.398438 -1.570312 1.441406 -1.460938 1.546875 -1.359375 C 2.253906 -1.367188 2.898438 -1.515625 3.484375 -1.796875 C 4.078125 -2.078125 4.613281 -2.484375 5.09375 -3.015625 C 5.28125 -3.222656 5.445312 -3.441406 5.59375 -3.671875 C 5.738281 -3.910156 5.847656 -4.164062 5.921875 -4.4375 C 5.972656 -4.632812 6.023438 -4.832031 6.078125 -5.03125 C 6.140625 -5.226562 6.179688 -5.4375 6.203125 -5.65625 C 6.234375 -5.96875 6.257812 -6.285156 6.28125 -6.609375 C 6.300781 -6.929688 6.289062 -7.242188 6.25 -7.546875 C 6.195312 -7.878906 6.125 -8.132812 6.03125 -8.3125 C 5.9375 -8.5 5.789062 -8.625 5.59375 -8.6875 C 5.394531 -8.757812 5.113281 -8.796875 4.75 -8.796875 Z M 4.75 -8.796875 "/></g></g><g style="fill:#194e92;fill-opacity:1;"><g transform="translate(80.083226, 29.866709)"><path style="stroke:none" d="M 0.328125 -3.875 C 0.453125 -4.21875 0.625 -4.535156 0.84375 -4.828125 C 1.0625 -5.117188 1.3125 -5.394531 1.59375 -5.65625 C 1.425781 -6.207031 1.394531 -6.71875 1.5 -7.1875 C 1.601562 -7.664062 1.820312 -8.109375 2.15625 -8.515625 C 2.394531 -8.796875 2.660156 -9.035156 2.953125 -9.234375 C 3.253906 -9.429688 3.582031 -9.585938 3.9375 -9.703125 C 4.207031 -9.796875 4.488281 -9.859375 4.78125 -9.890625 C 5.070312 -9.929688 5.363281 -9.941406 5.65625 -9.921875 C 6.175781 -9.859375 6.597656 -9.613281 6.921875 -9.1875 C 6.960938 -9.125 7 -9.050781 7.03125 -8.96875 C 7.070312 -8.894531 7.097656 -8.820312 7.109375 -8.75 C 7.128906 -8.5 7.03125 -8.3125 6.8125 -8.1875 C 6.71875 -8.132812 6.625 -8.117188 6.53125 -8.140625 C 6.445312 -8.171875 6.363281 -8.21875 6.28125 -8.28125 C 6.226562 -8.3125 6.175781 -8.351562 6.125 -8.40625 C 6.082031 -8.457031 6.035156 -8.507812 5.984375 -8.5625 C 5.859375 -8.726562 5.707031 -8.835938 5.53125 -8.890625 C 5.351562 -8.941406 5.160156 -8.945312 4.953125 -8.90625 C 4.472656 -8.8125 4.046875 -8.65625 3.671875 -8.4375 C 3.296875 -8.21875 2.992188 -7.882812 2.765625 -7.4375 C 2.691406 -7.28125 2.640625 -7.117188 2.609375 -6.953125 C 2.578125 -6.785156 2.59375 -6.609375 2.65625 -6.421875 C 2.738281 -6.421875 2.820312 -6.421875 2.90625 -6.421875 C 2.988281 -6.421875 3.066406 -6.429688 3.140625 -6.453125 C 3.679688 -6.585938 4.226562 -6.628906 4.78125 -6.578125 C 4.882812 -6.566406 4.988281 -6.546875 5.09375 -6.515625 C 5.207031 -6.484375 5.3125 -6.4375 5.40625 -6.375 C 5.582031 -6.28125 5.703125 -6.144531 5.765625 -5.96875 C 5.835938 -5.789062 5.847656 -5.613281 5.796875 -5.4375 C 5.742188 -5.257812 5.628906 -5.113281 5.453125 -5 C 5.210938 -4.863281 4.960938 -4.75 4.703125 -4.65625 C 4.453125 -4.5625 4.175781 -4.535156 3.875 -4.578125 C 3.644531 -4.617188 3.40625 -4.660156 3.15625 -4.703125 C 2.90625 -4.753906 2.648438 -4.800781 2.390625 -4.84375 C 2.117188 -4.65625 1.898438 -4.414062 1.734375 -4.125 C 1.566406 -3.832031 1.4375 -3.53125 1.34375 -3.21875 C 1.226562 -2.84375 1.226562 -2.5 1.34375 -2.1875 C 1.457031 -1.882812 1.640625 -1.644531 1.890625 -1.46875 C 2.148438 -1.289062 2.4375 -1.195312 2.75 -1.1875 C 3.195312 -1.175781 3.578125 -1.25 3.890625 -1.40625 C 4.203125 -1.570312 4.476562 -1.820312 4.71875 -2.15625 C 4.78125 -2.238281 4.835938 -2.316406 4.890625 -2.390625 C 4.953125 -2.472656 5.015625 -2.546875 5.078125 -2.609375 C 5.128906 -2.660156 5.1875 -2.691406 5.25 -2.703125 C 5.3125 -2.722656 5.378906 -2.738281 5.453125 -2.75 C 5.554688 -2.769531 5.644531 -2.742188 5.71875 -2.671875 C 5.789062 -2.597656 5.832031 -2.507812 5.84375 -2.40625 C 5.851562 -2.257812 5.847656 -2.109375 5.828125 -1.953125 C 5.804688 -1.804688 5.75 -1.671875 5.65625 -1.546875 C 5.351562 -1.128906 5.007812 -0.78125 4.625 -0.5 C 4.25 -0.21875 3.796875 -0.0703125 3.265625 -0.0625 C 3.109375 -0.0507812 2.953125 -0.046875 2.796875 -0.046875 C 2.648438 -0.0546875 2.503906 -0.0625 2.359375 -0.0625 C 1.929688 -0.0625 1.570312 -0.164062 1.28125 -0.375 C 0.988281 -0.582031 0.734375 -0.847656 0.515625 -1.171875 C 0.222656 -1.609375 0.078125 -2.054688 0.078125 -2.515625 C 0.0859375 -2.972656 0.171875 -3.425781 0.328125 -3.875 Z M 0.328125 -3.875 "/></g></g><g style="fill:#194e92;fill-opacity:1;"><g transform="translate(87.143982, 29.866709)"><path style="stroke:none" d=""/></g></g><g style="fill:#194e92;fill-opacity:1;"><g transform="translate(90.225043, 29.866709)"><path style="stroke:none" d="M 5.453125 -4.296875 C 5.492188 -4.296875 5.53125 -4.289062 5.5625 -4.28125 C 5.707031 -4.800781 5.847656 -5.320312 5.984375 -5.84375 C 6.128906 -6.363281 6.28125 -6.882812 6.4375 -7.40625 C 6.53125 -7.738281 6.625 -8.070312 6.71875 -8.40625 C 6.820312 -8.738281 6.925781 -9.066406 7.03125 -9.390625 C 7.0625 -9.460938 7.097656 -9.535156 7.140625 -9.609375 C 7.191406 -9.679688 7.25 -9.738281 7.3125 -9.78125 C 7.40625 -9.851562 7.53125 -9.882812 7.6875 -9.875 C 7.851562 -9.875 7.96875 -9.84375 8.03125 -9.78125 C 8.101562 -9.71875 8.148438 -9.640625 8.171875 -9.546875 C 8.191406 -9.453125 8.191406 -9.351562 8.171875 -9.25 C 8.128906 -9.007812 8.078125 -8.765625 8.015625 -8.515625 C 7.960938 -8.273438 7.90625 -8.03125 7.84375 -7.78125 C 7.550781 -6.664062 7.253906 -5.546875 6.953125 -4.421875 C 6.660156 -3.296875 6.367188 -2.171875 6.078125 -1.046875 C 6.046875 -0.953125 6.015625 -0.859375 5.984375 -0.765625 C 5.953125 -0.671875 5.910156 -0.585938 5.859375 -0.515625 C 5.742188 -0.335938 5.597656 -0.222656 5.421875 -0.171875 C 5.242188 -0.117188 5.070312 -0.128906 4.90625 -0.203125 C 4.738281 -0.273438 4.609375 -0.40625 4.515625 -0.59375 C 4.460938 -0.726562 4.421875 -0.863281 4.390625 -1 C 4.367188 -1.144531 4.351562 -1.28125 4.34375 -1.40625 C 4.269531 -1.9375 4.203125 -2.457031 4.140625 -2.96875 C 4.085938 -3.488281 4.023438 -4.007812 3.953125 -4.53125 C 3.890625 -5.039062 3.78125 -5.53125 3.625 -6 C 3.476562 -6.476562 3.328125 -6.957031 3.171875 -7.4375 C 3.160156 -7.46875 3.140625 -7.5 3.109375 -7.53125 C 3.078125 -7.570312 3.039062 -7.617188 3 -7.671875 C 2.90625 -7.316406 2.804688 -6.972656 2.703125 -6.640625 C 2.609375 -6.316406 2.519531 -5.988281 2.4375 -5.65625 L 1.15625 -0.90625 C 1.125 -0.8125 1.09375 -0.71875 1.0625 -0.625 C 1.039062 -0.53125 1.003906 -0.445312 0.953125 -0.375 C 0.878906 -0.226562 0.757812 -0.117188 0.59375 -0.046875 C 0.46875 0.0234375 0.335938 0.03125 0.203125 -0.03125 C 0.0664062 -0.09375 -0.015625 -0.203125 -0.046875 -0.359375 C -0.0546875 -0.429688 -0.0625 -0.507812 -0.0625 -0.59375 C -0.0703125 -0.6875 -0.0703125 -0.769531 -0.0625 -0.84375 C 0.0507812 -1.414062 0.179688 -1.984375 0.328125 -2.546875 C 0.378906 -2.742188 0.429688 -2.929688 0.484375 -3.109375 C 0.546875 -3.296875 0.59375 -3.484375 0.625 -3.671875 C 0.757812 -4.285156 0.894531 -4.90625 1.03125 -5.53125 C 1.175781 -6.15625 1.351562 -6.769531 1.5625 -7.375 C 1.644531 -7.613281 1.710938 -7.851562 1.765625 -8.09375 C 1.816406 -8.332031 1.875 -8.570312 1.9375 -8.8125 C 1.96875 -8.914062 2 -9.019531 2.03125 -9.125 C 2.0625 -9.238281 2.097656 -9.347656 2.140625 -9.453125 C 2.203125 -9.648438 2.320312 -9.796875 2.5 -9.890625 C 2.6875 -9.984375 2.878906 -10.007812 3.078125 -9.96875 C 3.285156 -9.9375 3.441406 -9.835938 3.546875 -9.671875 C 3.640625 -9.523438 3.726562 -9.382812 3.8125 -9.25 C 3.90625 -9.113281 3.984375 -8.960938 4.046875 -8.796875 C 4.328125 -8.160156 4.566406 -7.507812 4.765625 -6.84375 C 4.972656 -6.1875 5.15625 -5.519531 5.3125 -4.84375 C 5.320312 -4.75 5.335938 -4.65625 5.359375 -4.5625 C 5.390625 -4.476562 5.421875 -4.390625 5.453125 -4.296875 Z M 5.453125 -4.296875 "/></g></g><g style="fill:#194e92;fill-opacity:1;"><g transform="translate(98.284295, 29.866709)"><path style="stroke:none" d="M 6.9375 -9.390625 C 7.394531 -8.835938 7.695312 -8.226562 7.84375 -7.5625 C 7.988281 -6.894531 8.0625 -6.171875 8.0625 -5.390625 C 7.988281 -4.390625 7.71875 -3.457031 7.25 -2.59375 C 6.78125 -1.738281 6.109375 -0.984375 5.234375 -0.328125 C 4.984375 -0.148438 4.71875 -0.0078125 4.4375 0.09375 C 4.15625 0.195312 3.851562 0.234375 3.53125 0.203125 C 3.195312 0.160156 2.878906 0.0820312 2.578125 -0.03125 C 2.285156 -0.15625 2.015625 -0.335938 1.765625 -0.578125 C 1.390625 -0.960938 1.101562 -1.375 0.90625 -1.8125 C 0.71875 -2.257812 0.601562 -2.738281 0.5625 -3.25 C 0.4375 -4.5 0.585938 -5.628906 1.015625 -6.640625 C 1.441406 -7.648438 2.125 -8.5625 3.0625 -9.375 C 3.207031 -9.5 3.363281 -9.609375 3.53125 -9.703125 C 3.695312 -9.804688 3.863281 -9.90625 4.03125 -10 C 4.320312 -10.15625 4.648438 -10.222656 5.015625 -10.203125 C 5.390625 -10.191406 5.753906 -10.113281 6.109375 -9.96875 C 6.460938 -9.820312 6.738281 -9.628906 6.9375 -9.390625 Z M 2.71875 -7.53125 C 2.382812 -6.988281 2.117188 -6.425781 1.921875 -5.84375 C 1.734375 -5.269531 1.65625 -4.664062 1.6875 -4.03125 C 1.632812 -3.519531 1.675781 -3.046875 1.8125 -2.609375 C 1.957031 -2.171875 2.203125 -1.769531 2.546875 -1.40625 C 2.773438 -1.164062 3.054688 -1.007812 3.390625 -0.9375 C 3.671875 -0.882812 3.921875 -0.898438 4.140625 -0.984375 C 4.367188 -1.078125 4.578125 -1.203125 4.765625 -1.359375 C 5.046875 -1.597656 5.296875 -1.859375 5.515625 -2.140625 C 5.734375 -2.421875 5.925781 -2.722656 6.09375 -3.046875 C 6.257812 -3.410156 6.382812 -3.789062 6.46875 -4.1875 C 6.5625 -4.582031 6.648438 -4.972656 6.734375 -5.359375 C 6.847656 -5.867188 6.863281 -6.351562 6.78125 -6.8125 C 6.695312 -7.269531 6.5625 -7.726562 6.375 -8.1875 C 6.300781 -8.363281 6.203125 -8.53125 6.078125 -8.6875 C 5.984375 -8.8125 5.867188 -8.910156 5.734375 -8.984375 C 5.609375 -9.066406 5.46875 -9.101562 5.3125 -9.09375 C 5.039062 -9.09375 4.773438 -9.0625 4.515625 -9 C 4.265625 -8.945312 4.03125 -8.835938 3.8125 -8.671875 C 3.601562 -8.515625 3.40625 -8.34375 3.21875 -8.15625 C 3.03125 -7.96875 2.863281 -7.757812 2.71875 -7.53125 Z M 2.71875 -7.53125 "/></g></g><g style="fill:#194e92;fill-opacity:1;"><g transform="translate(106.871318, 29.866709)"><path style="stroke:none" d="M 2.953125 -3.25 C 2.960938 -3.101562 2.972656 -2.953125 2.984375 -2.796875 C 3.003906 -2.640625 3.066406 -2.484375 3.171875 -2.328125 C 3.203125 -2.378906 3.234375 -2.421875 3.265625 -2.453125 C 3.296875 -2.492188 3.320312 -2.53125 3.34375 -2.5625 C 3.800781 -3.425781 4.257812 -4.28125 4.71875 -5.125 C 5.1875 -5.976562 5.65625 -6.828125 6.125 -7.671875 C 6.28125 -7.960938 6.441406 -8.25 6.609375 -8.53125 C 6.773438 -8.820312 6.945312 -9.113281 7.125 -9.40625 C 7.1875 -9.53125 7.269531 -9.632812 7.375 -9.71875 C 7.601562 -9.914062 7.804688 -9.945312 7.984375 -9.8125 C 8.085938 -9.75 8.164062 -9.65625 8.21875 -9.53125 C 8.28125 -9.40625 8.300781 -9.285156 8.28125 -9.171875 C 8.25 -9.035156 8.203125 -8.929688 8.140625 -8.859375 C 7.796875 -8.359375 7.5 -7.84375 7.25 -7.3125 C 7 -6.78125 6.738281 -6.25 6.46875 -5.71875 C 6.03125 -4.882812 5.5625 -4.0625 5.0625 -3.25 C 4.570312 -2.445312 4.078125 -1.644531 3.578125 -0.84375 C 3.546875 -0.769531 3.5 -0.703125 3.4375 -0.640625 C 3.382812 -0.578125 3.335938 -0.507812 3.296875 -0.4375 C 3.085938 -0.164062 2.820312 -0.0625 2.5 -0.125 C 2.175781 -0.195312 1.988281 -0.410156 1.9375 -0.765625 C 1.882812 -1.210938 1.828125 -1.664062 1.765625 -2.125 C 1.710938 -2.582031 1.660156 -3.039062 1.609375 -3.5 C 1.597656 -3.59375 1.59375 -3.6875 1.59375 -3.78125 C 1.59375 -3.875 1.585938 -3.96875 1.578125 -4.0625 C 1.535156 -4.625 1.488281 -5.179688 1.4375 -5.734375 C 1.382812 -6.285156 1.335938 -6.835938 1.296875 -7.390625 C 1.285156 -7.660156 1.285156 -7.929688 1.296875 -8.203125 C 1.316406 -8.484375 1.335938 -8.765625 1.359375 -9.046875 C 1.367188 -9.140625 1.382812 -9.234375 1.40625 -9.328125 C 1.425781 -9.421875 1.457031 -9.507812 1.5 -9.59375 C 1.570312 -9.757812 1.695312 -9.851562 1.875 -9.875 C 2.0625 -9.894531 2.210938 -9.832031 2.328125 -9.6875 C 2.421875 -9.570312 2.476562 -9.445312 2.5 -9.3125 C 2.519531 -9.1875 2.53125 -9.0625 2.53125 -8.9375 C 2.539062 -8.820312 2.546875 -8.695312 2.546875 -8.5625 C 2.546875 -7.9375 2.578125 -7.3125 2.640625 -6.6875 C 2.710938 -6.070312 2.785156 -5.457031 2.859375 -4.84375 C 2.878906 -4.570312 2.894531 -4.304688 2.90625 -4.046875 C 2.914062 -3.785156 2.929688 -3.519531 2.953125 -3.25 Z M 2.953125 -3.25 "/></g></g><g style="fill:#194e92;fill-opacity:1;"><g transform="translate(114.345738, 29.866709)"><path style="stroke:none" d="M 6.9375 -9.390625 C 7.394531 -8.835938 7.695312 -8.226562 7.84375 -7.5625 C 7.988281 -6.894531 8.0625 -6.171875 8.0625 -5.390625 C 7.988281 -4.390625 7.71875 -3.457031 7.25 -2.59375 C 6.78125 -1.738281 6.109375 -0.984375 5.234375 -0.328125 C 4.984375 -0.148438 4.71875 -0.0078125 4.4375 0.09375 C 4.15625 0.195312 3.851562 0.234375 3.53125 0.203125 C 3.195312 0.160156 2.878906 0.0820312 2.578125 -0.03125 C 2.285156 -0.15625 2.015625 -0.335938 1.765625 -0.578125 C 1.390625 -0.960938 1.101562 -1.375 0.90625 -1.8125 C 0.71875 -2.257812 0.601562 -2.738281 0.5625 -3.25 C 0.4375 -4.5 0.585938 -5.628906 1.015625 -6.640625 C 1.441406 -7.648438 2.125 -8.5625 3.0625 -9.375 C 3.207031 -9.5 3.363281 -9.609375 3.53125 -9.703125 C 3.695312 -9.804688 3.863281 -9.90625 4.03125 -10 C 4.320312 -10.15625 4.648438 -10.222656 5.015625 -10.203125 C 5.390625 -10.191406 5.753906 -10.113281 6.109375 -9.96875 C 6.460938 -9.820312 6.738281 -9.628906 6.9375 -9.390625 Z M 2.71875 -7.53125 C 2.382812 -6.988281 2.117188 -6.425781 1.921875 -5.84375 C 1.734375 -5.269531 1.65625 -4.664062 1.6875 -4.03125 C 1.632812 -3.519531 1.675781 -3.046875 1.8125 -2.609375 C 1.957031 -2.171875 2.203125 -1.769531 2.546875 -1.40625 C 2.773438 -1.164062 3.054688 -1.007812 3.390625 -0.9375 C 3.671875 -0.882812 3.921875 -0.898438 4.140625 -0.984375 C 4.367188 -1.078125 4.578125 -1.203125 4.765625 -1.359375 C 5.046875 -1.597656 5.296875 -1.859375 5.515625 -2.140625 C 5.734375 -2.421875 5.925781 -2.722656 6.09375 -3.046875 C 6.257812 -3.410156 6.382812 -3.789062 6.46875 -4.1875 C 6.5625 -4.582031 6.648438 -4.972656 6.734375 -5.359375 C 6.847656 -5.867188 6.863281 -6.351562 6.78125 -6.8125 C 6.695312 -7.269531 6.5625 -7.726562 6.375 -8.1875 C 6.300781 -8.363281 6.203125 -8.53125 6.078125 -8.6875 C 5.984375 -8.8125 5.867188 -8.910156 5.734375 -8.984375 C 5.609375 -9.066406 5.46875 -9.101562 5.3125 -9.09375 C 5.039062 -9.09375 4.773438 -9.0625 4.515625 -9 C 4.265625 -8.945312 4.03125 -8.835938 3.8125 -8.671875 C 3.601562 -8.515625 3.40625 -8.34375 3.21875 -8.15625 C 3.03125 -7.96875 2.863281 -7.757812 2.71875 -7.53125 Z M 2.71875 -7.53125 "/></g></g></g></svg>