<svg xmlns="http://www.w3.org/2000/svg" xmlns:xlink="http://www.w3.org/1999/xlink" width="200" zoomAndPan="magnify" viewBox="0 0 150 44.999999" height="60" preserveAspectRatio="xMidYMid meet" version="1.2"><defs><clipPath id="ee3fc72472"><path d="M 30.03125 28 L 37 28 L 37 34.054688 L 30.03125 34.054688 Z M 30.03125 28 "/></clipPath><clipPath id="5bb053cd51"><path d="M 30.03125 10.804688 L 37.53125 10.804688 L 37.53125 29 L 30.03125 29 Z M 30.03125 10.804688 "/></clipPath></defs><g id="b9ae54fdc2"><g clip-rule="nonzero" clip-path="url(#ee3fc72472)"><path style=" stroke:none;fill-rule:nonzero;fill:#fdcb05;fill-opacity:1;" d="M 36.019531 30.730469 C 36.007812 30.542969 36 30.355469 36 30.167969 C 36 29.980469 35.992188 29.792969 36.007812 29.605469 C 36.03125 29.3125 36.164062 29.019531 36.058594 28.722656 C 36.035156 28.667969 35.976562 28.648438 35.921875 28.65625 C 35.917969 28.65625 35.914062 28.65625 35.910156 28.65625 C 35.890625 28.652344 35.875 28.648438 35.855469 28.648438 C 35.828125 28.648438 35.808594 28.660156 35.78125 28.667969 C 35.769531 28.671875 35.753906 28.679688 35.746094 28.6875 C 35.703125 28.699219 35.664062 28.710938 35.625 28.714844 C 35.542969 28.714844 35.464844 28.71875 35.386719 28.730469 C 35.324219 28.730469 35.265625 28.726562 35.203125 28.722656 C 34.984375 28.714844 34.773438 28.707031 34.554688 28.683594 C 34.28125 28.65625 34 28.660156 33.730469 28.625 C 33.503906 28.589844 33.285156 28.496094 33.058594 28.488281 C 32.855469 28.480469 32.671875 28.527344 32.484375 28.597656 C 32.226562 28.695312 31.96875 28.757812 31.703125 28.816406 C 31.441406 28.875 31.140625 29 30.871094 29.011719 C 30.730469 29.015625 30.628906 29.050781 30.507812 29.089844 C 30.496094 29.082031 30.4375 29.078125 30.441406 29.101562 C 30.441406 29.101562 30.441406 29.105469 30.4375 29.105469 C 30.324219 29.101562 30.222656 29.132812 30.136719 29.285156 C 30.03125 29.46875 30.070312 29.738281 30.085938 29.9375 C 30.113281 30.261719 30.101562 30.59375 30.101562 30.917969 C 30.101562 31.363281 30.101562 31.808594 30.105469 32.25 C 30.105469 32.605469 30.078125 32.984375 30.15625 33.335938 C 30.152344 33.425781 30.148438 33.515625 30.132812 33.605469 C 30.109375 33.605469 30.085938 33.605469 30.0625 33.605469 C 30.03125 33.609375 30.039062 33.648438 30.066406 33.652344 C 30.089844 33.65625 30.117188 33.660156 30.140625 33.667969 C 30.152344 33.683594 30.164062 33.691406 30.179688 33.703125 C 30.453125 33.835938 30.800781 33.886719 31.105469 33.894531 C 31.304688 33.898438 31.511719 33.871094 31.710938 33.867188 C 31.910156 33.863281 32.109375 33.929688 32.308594 33.9375 C 32.648438 33.953125 32.988281 33.941406 33.328125 33.941406 C 33.644531 34.039062 33.992188 34.019531 34.320312 34.003906 C 34.332031 34.007812 34.34375 34.011719 34.355469 34.011719 C 34.386719 34.015625 34.414062 34.015625 34.445312 34.015625 C 34.503906 34.019531 34.542969 33.972656 34.554688 33.921875 C 34.601562 33.890625 34.640625 33.847656 34.6875 33.796875 C 34.875 33.585938 35.148438 33.441406 35.40625 33.324219 C 35.566406 33.253906 35.71875 33.15625 35.875 33.070312 C 36.128906 32.929688 36.070312 32.125 36.070312 31.851562 C 36.070312 31.476562 36.039062 31.101562 36.019531 30.730469 Z M 35.28125 29.152344 C 35.335938 29.140625 35.386719 29.113281 35.4375 29.085938 C 35.386719 29.125 35.351562 29.175781 35.316406 29.230469 C 35.222656 29.382812 35.140625 29.546875 35.046875 29.699219 C 34.953125 29.859375 34.867188 30.03125 34.757812 30.183594 C 34.667969 30.308594 34.605469 30.46875 34.511719 30.597656 C 34.519531 30.421875 34.535156 30.25 34.542969 30.078125 C 34.648438 29.980469 34.730469 29.851562 34.828125 29.75 C 34.972656 29.601562 35.121094 29.378906 35.191406 29.171875 C 35.21875 29.167969 35.25 29.160156 35.28125 29.152344 Z M 34.722656 29.515625 C 34.675781 29.589844 34.617188 29.660156 34.566406 29.730469 C 34.570312 29.566406 34.574219 29.402344 34.570312 29.238281 C 34.6875 29.234375 34.804688 29.226562 34.921875 29.210938 C 34.875 29.320312 34.789062 29.417969 34.722656 29.515625 Z M 33.355469 28.824219 C 33.359375 28.820312 33.359375 28.8125 33.363281 28.808594 C 33.457031 28.832031 33.546875 28.847656 33.640625 28.863281 C 33.597656 28.898438 33.558594 28.929688 33.519531 28.972656 C 33.460938 29.035156 33.386719 29.152344 33.289062 29.15625 C 33.269531 29.15625 33.246094 29.175781 33.242188 29.195312 C 33.113281 29.207031 32.984375 29.214844 32.855469 29.222656 C 32.886719 29.195312 32.917969 29.167969 32.949219 29.140625 C 33.027344 29.070312 33.097656 29.011719 33.183594 28.957031 C 33.253906 28.917969 33.316406 28.894531 33.355469 28.824219 Z M 32.507812 29.003906 C 32.621094 28.925781 32.796875 28.863281 32.894531 28.753906 C 32.972656 28.75 33.054688 28.753906 33.136719 28.765625 C 33.117188 28.78125 33.097656 28.792969 33.074219 28.804688 C 32.992188 28.851562 32.921875 28.917969 32.859375 28.984375 C 32.796875 29.046875 32.742188 29.117188 32.6875 29.183594 C 32.671875 29.199219 32.660156 29.210938 32.648438 29.222656 C 32.507812 29.226562 32.371094 29.222656 32.230469 29.210938 C 32.332031 29.152344 32.414062 29.070312 32.507812 29.003906 Z M 31.8125 29.042969 C 31.957031 29.011719 32.105469 28.988281 32.25 28.949219 C 32.191406 29 32.132812 29.050781 32.070312 29.097656 C 32.027344 29.128906 31.996094 29.15625 31.96875 29.191406 C 31.910156 29.183594 31.855469 29.175781 31.796875 29.167969 C 31.652344 29.148438 31.503906 29.140625 31.355469 29.140625 C 31.507812 29.109375 31.660156 29.074219 31.8125 29.042969 Z M 34.378906 32.597656 C 34.371094 32.921875 34.339844 33.246094 34.328125 33.570312 C 34.3125 33.546875 34.289062 33.527344 34.25 33.527344 C 33.925781 33.515625 33.601562 33.484375 33.28125 33.507812 C 32.835938 33.539062 32.421875 33.695312 31.972656 33.65625 C 31.636719 33.628906 31.3125 33.609375 30.976562 33.613281 C 30.785156 33.613281 30.59375 33.605469 30.402344 33.601562 C 30.398438 33.601562 30.394531 33.601562 30.390625 33.601562 C 30.351562 33.59375 30.324219 33.578125 30.304688 33.558594 C 30.328125 33.550781 30.34375 33.527344 30.34375 33.492188 C 30.339844 33.46875 30.339844 33.441406 30.335938 33.417969 C 30.335938 33.398438 30.328125 33.386719 30.320312 33.375 C 30.261719 33.039062 30.296875 32.683594 30.300781 32.34375 C 30.304688 31.929688 30.304688 31.519531 30.304688 31.105469 C 30.304688 30.773438 30.3125 30.441406 30.308594 30.109375 C 30.304688 29.878906 30.253906 29.652344 30.308594 29.425781 C 30.351562 29.238281 30.507812 29.300781 30.648438 29.339844 C 30.773438 29.371094 30.902344 29.363281 31.03125 29.367188 C 31.382812 29.375 31.722656 29.425781 32.070312 29.453125 C 32.824219 29.511719 33.582031 29.441406 34.316406 29.277344 C 34.320312 29.28125 34.324219 29.285156 34.328125 29.289062 C 34.359375 29.996094 34.234375 30.699219 34.289062 31.40625 C 34.324219 31.808594 34.386719 32.195312 34.378906 32.597656 Z M 34.3125 28.992188 C 34.265625 28.996094 34.234375 29.015625 34.210938 29.042969 C 33.988281 29.09375 33.765625 29.132812 33.542969 29.164062 C 33.660156 29.074219 33.765625 28.960938 33.90625 28.917969 C 33.917969 28.914062 33.929688 28.90625 33.9375 28.898438 C 34.183594 28.925781 34.429688 28.9375 34.679688 28.957031 C 34.660156 28.964844 34.644531 28.972656 34.628906 28.976562 C 34.523438 28.988281 34.417969 28.992188 34.3125 28.992188 Z M 34.546875 31.539062 C 34.542969 31.53125 34.542969 31.519531 34.542969 31.511719 C 34.578125 31.464844 34.636719 31.429688 34.679688 31.394531 C 34.761719 31.324219 34.824219 31.226562 34.890625 31.140625 C 35.066406 30.917969 35.238281 30.695312 35.378906 30.445312 C 35.5 30.230469 35.621094 30.007812 35.734375 29.785156 C 35.738281 29.773438 35.746094 29.757812 35.75 29.746094 C 35.75 29.753906 35.75 29.757812 35.75 29.761719 C 35.742188 29.976562 35.738281 30.1875 35.757812 30.402344 C 35.757812 30.433594 35.757812 30.464844 35.757812 30.496094 C 35.65625 30.574219 35.542969 30.738281 35.5 30.777344 C 35.382812 30.898438 35.28125 31.039062 35.167969 31.164062 C 35.03125 31.324219 34.914062 31.492188 34.789062 31.660156 C 34.722656 31.753906 34.640625 31.835938 34.589844 31.933594 C 34.578125 31.804688 34.566406 31.671875 34.546875 31.539062 Z M 34.605469 32.152344 C 34.632812 32.164062 34.667969 32.152344 34.683594 32.113281 C 34.703125 32.058594 34.859375 31.910156 34.910156 31.851562 C 34.992188 31.746094 35.078125 31.640625 35.160156 31.53125 C 35.28125 31.375 35.421875 31.230469 35.554688 31.078125 C 35.59375 31.03125 35.679688 30.957031 35.757812 30.867188 C 35.757812 30.886719 35.757812 30.90625 35.757812 30.925781 C 35.757812 31.058594 35.757812 31.191406 35.761719 31.324219 C 35.714844 31.378906 35.578125 31.503906 35.535156 31.554688 C 35.414062 31.695312 35.296875 31.84375 35.175781 31.988281 C 34.988281 32.210938 34.796875 32.425781 34.613281 32.648438 C 34.613281 32.480469 34.613281 32.316406 34.605469 32.152344 Z M 35.667969 32.890625 C 35.515625 32.976562 35.367188 33.066406 35.210938 33.144531 C 35.242188 33.109375 35.269531 33.078125 35.300781 33.046875 C 35.359375 32.988281 35.390625 32.90625 35.449219 32.84375 C 35.511719 32.785156 35.617188 32.738281 35.660156 32.664062 C 35.660156 32.664062 35.664062 32.660156 35.664062 32.660156 C 35.664062 32.667969 35.664062 32.675781 35.667969 32.683594 C 35.671875 32.703125 35.679688 32.71875 35.6875 32.734375 C 35.675781 32.789062 35.667969 32.839844 35.667969 32.890625 Z M 35.613281 32.28125 C 35.519531 32.445312 35.414062 32.550781 35.285156 32.683594 C 35.167969 32.808594 35.078125 32.960938 34.972656 33.09375 C 34.875 33.214844 34.800781 33.386719 34.660156 33.464844 C 34.625 33.480469 34.621094 33.515625 34.636719 33.542969 C 34.613281 33.570312 34.589844 33.601562 34.570312 33.632812 C 34.585938 33.363281 34.601562 33.097656 34.609375 32.828125 C 34.617188 32.832031 34.628906 32.832031 34.644531 32.824219 C 34.78125 32.773438 34.882812 32.636719 34.988281 32.535156 C 35.152344 32.367188 35.304688 32.191406 35.457031 32.015625 C 35.5625 31.898438 35.664062 31.777344 35.769531 31.660156 C 35.769531 31.773438 35.777344 31.886719 35.785156 32 C 35.789062 32.023438 35.789062 32.050781 35.789062 32.074219 C 35.703125 32.117188 35.660156 32.199219 35.613281 32.28125 Z M 35.773438 29.101562 C 35.675781 29.199219 35.65625 29.386719 35.601562 29.507812 C 35.496094 29.746094 35.375 29.972656 35.253906 30.199219 C 35.101562 30.492188 34.914062 30.753906 34.726562 31.023438 C 34.667969 31.105469 34.585938 31.203125 34.519531 31.304688 C 34.503906 31.113281 34.5 30.925781 34.507812 30.734375 C 34.609375 30.71875 34.679688 30.625 34.734375 30.546875 C 34.882812 30.351562 35.023438 30.160156 35.160156 29.949219 C 35.308594 29.71875 35.429688 29.394531 35.644531 29.214844 C 35.710938 29.160156 35.671875 29.058594 35.601562 29.03125 C 35.664062 29.007812 35.726562 28.984375 35.789062 28.957031 C 35.804688 28.953125 35.816406 28.941406 35.828125 28.933594 C 35.835938 28.929688 35.847656 28.929688 35.855469 28.925781 C 35.859375 28.964844 35.863281 29.003906 35.859375 29.046875 C 35.828125 29.046875 35.800781 29.070312 35.773438 29.101562 "/></g><g clip-rule="nonzero" clip-path="url(#5bb053cd51)"><path style=" stroke:none;fill-rule:nonzero;fill:#fdcb05;fill-opacity:1;" d="M 37.121094 11.210938 C 37.101562 11.164062 37.054688 11.125 37.007812 11.121094 C 36.746094 11.097656 36.5 11.007812 36.238281 10.988281 C 35.953125 10.96875 35.675781 10.941406 35.386719 10.941406 C 34.742188 10.941406 34.101562 10.859375 33.457031 10.859375 C 33.183594 10.859375 32.921875 10.820312 32.652344 10.816406 C 32.410156 10.8125 32.085938 10.949219 31.859375 11.035156 C 31.613281 11.132812 31.414062 11.335938 31.15625 11.402344 C 31.007812 11.441406 30.867188 11.5 30.730469 11.570312 C 30.601562 11.640625 30.476562 11.761719 30.332031 11.792969 C 30.28125 11.804688 30.226562 11.890625 30.300781 11.914062 C 30.308594 11.914062 30.316406 11.917969 30.324219 11.917969 C 30.203125 12.078125 30.246094 12.375 30.246094 12.542969 C 30.246094 12.914062 30.234375 13.28125 30.25 13.652344 C 30.28125 14.417969 30.410156 15.175781 30.453125 15.945312 C 30.488281 16.675781 30.421875 17.398438 30.523438 18.125 C 30.628906 18.859375 30.523438 19.621094 30.558594 20.359375 C 30.597656 21.238281 30.601562 22.117188 30.613281 22.996094 C 30.628906 23.792969 30.667969 24.585938 30.71875 25.382812 C 30.742188 25.753906 30.757812 26.125 30.769531 26.5 C 30.78125 26.84375 30.828125 27.199219 30.816406 27.546875 C 30.816406 27.546875 30.816406 27.546875 30.8125 27.546875 C 30.820312 27.554688 30.824219 27.5625 30.832031 27.570312 C 30.890625 27.652344 30.96875 27.738281 31.023438 27.832031 C 31.445312 27.855469 31.875 27.839844 32.292969 27.84375 C 32.839844 27.851562 33.347656 28.035156 33.890625 28.101562 C 33.960938 28.109375 34.015625 28.082031 34.046875 28.039062 C 34.355469 28.03125 34.691406 27.773438 34.96875 27.660156 C 35.191406 27.570312 35.367188 27.390625 35.582031 27.285156 C 35.714844 27.21875 35.859375 27.195312 35.960938 27.078125 C 36.015625 27.019531 36.011719 26.960938 35.980469 26.914062 C 36.078125 26.539062 36.054688 26.117188 36.054688 25.734375 C 36.058594 25.253906 36.097656 24.777344 36.101562 24.296875 C 36.109375 23.820312 36.117188 23.316406 36.171875 22.84375 C 36.199219 22.578125 36.226562 22.308594 36.246094 22.035156 C 36.296875 21.777344 36.339844 21.519531 36.371094 21.261719 C 36.449219 20.542969 36.496094 19.8125 36.601562 19.097656 C 36.695312 18.460938 36.671875 17.800781 36.71875 17.160156 C 36.765625 16.484375 36.855469 15.816406 36.90625 15.140625 C 36.929688 14.839844 36.996094 14.546875 36.988281 14.242188 C 36.980469 13.925781 36.996094 13.628906 37.011719 13.3125 C 37.03125 12.972656 37.039062 12.625 37.046875 12.28125 C 37.050781 12.003906 37.160156 11.722656 37.125 11.449219 C 37.125 11.4375 37.121094 11.425781 37.117188 11.417969 C 37.207031 11.375 37.199219 11.265625 37.121094 11.210938 Z M 36.785156 11.398438 C 36.667969 11.449219 36.554688 11.507812 36.441406 11.570312 C 36.332031 11.457031 36.183594 11.363281 36.058594 11.28125 C 36.054688 11.28125 36.050781 11.277344 36.046875 11.273438 C 36.074219 11.277344 36.105469 11.28125 36.132812 11.285156 C 36.34375 11.324219 36.566406 11.371094 36.785156 11.398438 Z M 35.527344 12.410156 C 35.574219 12.386719 35.621094 12.359375 35.667969 12.332031 C 35.632812 12.382812 35.601562 12.433594 35.566406 12.480469 C 35.5 12.578125 35.425781 12.667969 35.355469 12.761719 C 35.335938 12.789062 35.316406 12.824219 35.296875 12.863281 C 35.300781 12.773438 35.308594 12.683594 35.3125 12.59375 C 35.332031 12.597656 35.347656 12.597656 35.367188 12.597656 C 35.484375 12.617188 35.546875 12.503906 35.527344 12.410156 Z M 35.332031 13.070312 C 35.429688 12.964844 35.519531 12.828125 35.609375 12.710938 C 35.757812 12.53125 35.898438 12.332031 36.015625 12.128906 C 36.101562 12.085938 36.183594 12.039062 36.265625 11.992188 C 36.097656 12.207031 35.960938 12.457031 35.8125 12.671875 C 35.65625 12.902344 35.503906 13.128906 35.320312 13.34375 C 35.292969 13.375 35.261719 13.40625 35.230469 13.433594 C 35.234375 13.402344 35.238281 13.371094 35.242188 13.335938 C 35.253906 13.269531 35.261719 13.199219 35.269531 13.128906 C 35.292969 13.113281 35.3125 13.09375 35.332031 13.070312 Z M 35.367188 11.253906 C 35.492188 11.253906 35.613281 11.253906 35.730469 11.253906 C 35.84375 11.324219 35.949219 11.4375 36.042969 11.503906 C 36.105469 11.550781 36.167969 11.625 36.238281 11.683594 C 36.175781 11.71875 36.109375 11.757812 36.046875 11.792969 C 36.019531 11.804688 35.992188 11.820312 35.964844 11.835938 C 35.824219 11.699219 35.648438 11.582031 35.488281 11.46875 C 35.402344 11.40625 35.320312 11.339844 35.230469 11.277344 C 35.214844 11.265625 35.195312 11.257812 35.179688 11.246094 C 35.242188 11.25 35.304688 11.253906 35.367188 11.253906 Z M 34.9375 11.238281 C 34.984375 11.261719 35.03125 11.285156 35.078125 11.316406 C 35.167969 11.382812 35.246094 11.464844 35.335938 11.53125 C 35.492188 11.652344 35.644531 11.832031 35.828125 11.921875 C 35.730469 11.984375 35.628906 12.050781 35.527344 12.113281 C 35.277344 11.929688 34.992188 11.796875 34.746094 11.59375 C 34.597656 11.472656 34.425781 11.300781 34.238281 11.195312 C 34.472656 11.207031 34.703125 11.226562 34.9375 11.238281 Z M 33.5625 11.167969 C 33.683594 11.167969 33.804688 11.171875 33.925781 11.179688 C 33.929688 11.179688 33.933594 11.183594 33.9375 11.183594 C 34.117188 11.230469 34.300781 11.445312 34.4375 11.566406 C 34.558594 11.675781 34.683594 11.785156 34.8125 11.882812 C 34.96875 12 35.175781 12.179688 35.386719 12.199219 C 35.34375 12.222656 35.300781 12.246094 35.257812 12.265625 C 35.238281 12.265625 35.222656 12.265625 35.203125 12.265625 C 35.191406 12.265625 35.183594 12.269531 35.171875 12.273438 C 35.042969 12.261719 34.910156 12.246094 34.78125 12.226562 C 34.710938 12.183594 34.640625 12.140625 34.574219 12.101562 C 34.375 11.976562 34.167969 11.871094 33.960938 11.757812 C 33.75 11.640625 33.554688 11.484375 33.355469 11.34375 C 33.285156 11.292969 33.210938 11.230469 33.136719 11.171875 C 33.277344 11.171875 33.421875 11.167969 33.5625 11.167969 Z M 32.726562 11.128906 C 32.769531 11.128906 32.808594 11.132812 32.847656 11.140625 C 33 11.230469 33.136719 11.378906 33.273438 11.484375 C 33.46875 11.632812 33.65625 11.789062 33.863281 11.914062 C 33.976562 11.984375 34.09375 12.046875 34.207031 12.109375 C 33.984375 12.082031 33.75 12.078125 33.523438 12.070312 C 33.359375 11.921875 33.121094 11.828125 32.941406 11.707031 C 32.707031 11.542969 32.445312 11.402344 32.214844 11.230469 C 32.214844 11.230469 32.210938 11.226562 32.207031 11.226562 C 32.386719 11.167969 32.570312 11.128906 32.726562 11.128906 Z M 31.746094 11.433594 C 31.851562 11.371094 31.988281 11.308594 32.132812 11.253906 C 32.128906 11.265625 32.128906 11.28125 32.140625 11.292969 C 32.304688 11.492188 32.5625 11.609375 32.765625 11.769531 C 32.871094 11.851562 33.003906 11.957031 33.140625 12.050781 C 32.839844 12.023438 32.539062 11.980469 32.238281 11.941406 C 32.183594 11.933594 32.125 11.925781 32.070312 11.921875 C 32 11.871094 31.929688 11.824219 31.859375 11.78125 C 31.773438 11.722656 31.683594 11.671875 31.59375 11.621094 C 31.566406 11.601562 31.535156 11.582031 31.507812 11.5625 C 31.585938 11.523438 31.664062 11.484375 31.746094 11.433594 Z M 31.046875 11.734375 C 31.144531 11.703125 31.234375 11.671875 31.320312 11.640625 C 31.335938 11.664062 31.34375 11.699219 31.363281 11.71875 C 31.402344 11.753906 31.457031 11.773438 31.5 11.796875 C 31.550781 11.828125 31.601562 11.859375 31.652344 11.890625 C 31.585938 11.890625 31.519531 11.886719 31.453125 11.882812 C 31.402344 11.875 31.355469 11.871094 31.304688 11.863281 C 31.296875 11.859375 31.285156 11.863281 31.277344 11.863281 C 31.214844 11.855469 31.152344 11.847656 31.089844 11.832031 C 31.027344 11.820312 30.964844 11.804688 30.902344 11.792969 C 30.949219 11.769531 30.996094 11.75 31.046875 11.734375 Z M 33.953125 27.730469 C 33.941406 27.738281 33.933594 27.746094 33.925781 27.761719 C 33.457031 27.648438 32.980469 27.566406 32.5 27.523438 C 32.179688 27.496094 31.847656 27.523438 31.527344 27.527344 C 31.359375 27.527344 31.183594 27.527344 31.003906 27.535156 C 31.128906 26.941406 31.078125 26.304688 31.054688 25.707031 C 31.03125 24.953125 30.976562 24.203125 30.960938 23.449219 C 30.925781 21.984375 30.871094 20.511719 30.898438 19.046875 C 30.910156 18.375 30.796875 17.722656 30.796875 17.050781 C 30.796875 16.335938 30.785156 15.628906 30.710938 14.914062 C 30.625 14.132812 30.585938 13.363281 30.585938 12.574219 C 30.585938 12.445312 30.582031 12.316406 30.589844 12.1875 C 30.597656 12.03125 31.082031 12.179688 31.144531 12.195312 C 31.21875 12.210938 31.292969 12.222656 31.367188 12.230469 C 31.445312 12.265625 31.515625 12.316406 31.59375 12.324219 C 31.769531 12.339844 31.949219 12.34375 32.125 12.351562 C 32.523438 12.359375 32.921875 12.382812 33.320312 12.359375 C 33.625 12.34375 33.902344 12.449219 34.199219 12.460938 C 34.472656 12.476562 34.746094 12.527344 35.019531 12.566406 C 35.003906 13.132812 34.894531 13.691406 34.894531 14.265625 C 34.894531 14.578125 34.855469 14.890625 34.855469 15.207031 C 34.855469 15.5625 34.855469 15.921875 34.855469 16.277344 C 34.855469 17.527344 34.539062 18.757812 34.523438 20.003906 C 34.519531 20.296875 34.433594 20.597656 34.40625 20.886719 C 34.375 21.21875 34.351562 21.550781 34.316406 21.882812 C 34.25 22.539062 34.238281 23.195312 34.1875 23.855469 C 34.136719 24.5 34.152344 25.148438 34.066406 25.792969 C 33.980469 26.433594 33.9375 27.082031 33.953125 27.730469 Z M 35.554688 26.953125 C 35.554688 26.960938 35.554688 26.964844 35.554688 26.96875 L 35.554688 26.972656 C 35.515625 26.984375 35.480469 26.996094 35.453125 27.007812 C 35.292969 27.082031 35.148438 27.207031 35 27.304688 C 34.988281 27.316406 34.972656 27.324219 34.960938 27.332031 C 35.03125 27.246094 35.101562 27.15625 35.179688 27.078125 C 35.324219 26.933594 35.472656 26.757812 35.582031 26.574219 C 35.570312 26.699219 35.558594 26.824219 35.554688 26.953125 Z M 35.59375 26.40625 C 35.582031 26.40625 35.570312 26.40625 35.558594 26.414062 C 35.378906 26.550781 35.265625 26.765625 35.121094 26.941406 C 34.996094 27.097656 34.882812 27.289062 34.746094 27.449219 C 34.609375 27.511719 34.464844 27.574219 34.335938 27.644531 C 34.261719 27.683594 34.1875 27.726562 34.113281 27.765625 C 34.140625 27.386719 34.171875 27 34.214844 26.617188 C 34.46875 26.363281 34.6875 26.070312 34.9375 25.808594 C 35.1875 25.546875 35.398438 25.308594 35.59375 25 C 35.59375 25.183594 35.597656 25.363281 35.597656 25.542969 C 35.597656 25.609375 35.597656 25.671875 35.597656 25.738281 C 35.578125 25.734375 35.558594 25.742188 35.546875 25.757812 C 35.363281 26.019531 35.105469 26.234375 34.882812 26.460938 C 34.589844 26.761719 34.464844 27.179688 34.164062 27.472656 C 34.121094 27.519531 34.195312 27.570312 34.238281 27.53125 C 34.542969 27.257812 34.6875 26.863281 34.980469 26.578125 C 35.171875 26.390625 35.488281 26.175781 35.601562 25.910156 C 35.605469 26.074219 35.605469 26.238281 35.59375 26.40625 Z M 35.589844 24.953125 C 35.574219 24.933594 35.539062 24.925781 35.515625 24.941406 C 35.277344 25.113281 35.09375 25.378906 34.894531 25.589844 C 34.644531 25.855469 34.449219 26.160156 34.234375 26.449219 C 34.246094 26.359375 34.257812 26.269531 34.273438 26.179688 C 34.304688 25.964844 34.332031 25.75 34.351562 25.535156 C 34.484375 25.253906 34.804688 25.042969 35.003906 24.8125 C 35.222656 24.566406 35.433594 24.324219 35.605469 24.039062 C 35.589844 24.34375 35.589844 24.648438 35.589844 24.953125 Z M 35.660156 23.425781 C 35.636719 23.59375 35.621094 23.761719 35.609375 23.929688 C 35.59375 23.921875 35.574219 23.921875 35.558594 23.933594 C 35.289062 24.109375 35.128906 24.484375 34.910156 24.722656 C 34.742188 24.914062 34.496094 25.144531 34.363281 25.386719 C 34.398438 24.996094 34.414062 24.609375 34.4375 24.214844 C 34.699219 23.957031 34.925781 23.660156 35.210938 23.425781 C 35.382812 23.277344 35.578125 23.121094 35.742188 22.945312 C 35.714844 23.105469 35.683594 23.265625 35.660156 23.425781 Z M 35.816406 22.570312 C 35.59375 22.75 35.398438 23.011719 35.199219 23.203125 C 34.921875 23.46875 34.695312 23.773438 34.445312 24.066406 C 34.460938 23.808594 34.476562 23.550781 34.492188 23.289062 C 34.734375 23.140625 34.945312 22.871094 35.128906 22.675781 C 35.402344 22.382812 35.695312 22.125 35.960938 21.835938 C 35.917969 22.082031 35.867188 22.324219 35.816406 22.570312 Z M 36.027344 21.351562 C 36.019531 21.421875 36.011719 21.492188 36 21.566406 C 35.761719 21.777344 35.554688 22.023438 35.324219 22.242188 C 35.164062 22.394531 35.03125 22.546875 34.882812 22.714844 C 34.773438 22.835938 34.640625 23.003906 34.503906 23.128906 C 34.527344 22.761719 34.554688 22.394531 34.585938 22.03125 C 34.683594 22.015625 34.722656 21.984375 34.792969 21.910156 C 34.980469 21.71875 35.195312 21.546875 35.386719 21.351562 C 35.582031 21.148438 35.710938 20.890625 35.929688 20.707031 C 35.992188 20.652344 36.050781 20.597656 36.101562 20.539062 C 36.082031 20.808594 36.058594 21.082031 36.027344 21.351562 Z M 36.128906 20.246094 C 35.902344 20.429688 35.691406 20.652344 35.519531 20.875 C 35.386719 21.046875 35.269531 21.214844 35.117188 21.371094 C 35.003906 21.488281 34.894531 21.609375 34.78125 21.730469 C 34.71875 21.792969 34.667969 21.878906 34.59375 21.933594 C 34.628906 21.550781 34.667969 21.167969 34.710938 20.78125 C 34.722656 20.808594 34.773438 20.816406 34.785156 20.785156 C 34.835938 20.667969 35.15625 20.476562 35.261719 20.394531 C 35.402344 20.28125 35.53125 20.152344 35.664062 20.03125 C 35.832031 19.882812 36.035156 19.746094 36.195312 19.582031 C 36.167969 19.800781 36.148438 20.023438 36.128906 20.246094 Z M 36.246094 19.238281 C 36.242188 19.257812 36.238281 19.277344 36.234375 19.296875 C 35.957031 19.445312 35.699219 19.75 35.480469 19.957031 C 35.320312 20.113281 35.160156 20.265625 35 20.425781 C 34.90625 20.519531 34.761719 20.609375 34.714844 20.742188 C 34.738281 20.542969 34.765625 20.339844 34.792969 20.140625 C 34.800781 20.0625 34.8125 19.988281 34.820312 19.910156 C 35.074219 19.804688 35.300781 19.546875 35.488281 19.382812 C 35.699219 19.191406 35.855469 18.949219 36.042969 18.730469 C 36.132812 18.625 36.230469 18.515625 36.316406 18.40625 C 36.300781 18.683594 36.289062 18.960938 36.246094 19.238281 Z M 36.332031 18.175781 C 36.066406 18.371094 35.847656 18.691406 35.652344 18.941406 C 35.519531 19.113281 35.386719 19.253906 35.226562 19.398438 C 35.109375 19.503906 34.984375 19.648438 34.839844 19.742188 C 34.867188 19.445312 34.890625 19.144531 34.921875 18.847656 C 35.203125 18.625 35.460938 18.371094 35.714844 18.117188 C 35.933594 17.90625 36.160156 17.667969 36.347656 17.410156 C 36.324219 17.664062 36.347656 17.925781 36.332031 18.175781 Z M 36.40625 16.988281 C 36.171875 17.25 35.980469 17.558594 35.75 17.820312 C 35.5 18.109375 35.210938 18.371094 34.945312 18.648438 C 34.953125 18.570312 34.964844 18.496094 34.976562 18.421875 C 34.996094 18.289062 35.003906 18.15625 35.015625 18.023438 C 35.070312 17.984375 35.121094 17.933594 35.167969 17.871094 C 35.328125 17.664062 35.539062 17.488281 35.707031 17.285156 C 35.886719 17.070312 36.039062 16.835938 36.203125 16.609375 C 36.296875 16.476562 36.398438 16.347656 36.496094 16.214844 C 36.46875 16.472656 36.441406 16.730469 36.40625 16.988281 Z M 36.558594 15.367188 C 36.550781 15.550781 36.539062 15.734375 36.523438 15.917969 C 36.277344 16.195312 36.074219 16.515625 35.859375 16.816406 C 35.710938 17.023438 35.5625 17.230469 35.402344 17.429688 C 35.320312 17.535156 35.171875 17.746094 35.023438 17.894531 C 35.03125 17.710938 35.042969 17.53125 35.070312 17.347656 C 35.089844 17.214844 35.101562 17.078125 35.113281 16.945312 C 35.199219 16.773438 35.410156 16.6875 35.535156 16.550781 C 35.671875 16.402344 35.789062 16.246094 35.898438 16.078125 C 36.117188 15.761719 36.371094 15.453125 36.582031 15.125 C 36.570312 15.207031 36.5625 15.285156 36.558594 15.367188 Z M 36.640625 14.691406 C 36.570312 14.792969 36.507812 14.910156 36.441406 15.011719 C 36.292969 15.25 36.140625 15.484375 35.976562 15.710938 C 35.761719 16.011719 35.5625 16.328125 35.292969 16.578125 C 35.238281 16.628906 35.179688 16.679688 35.128906 16.734375 C 35.136719 16.617188 35.140625 16.5 35.144531 16.382812 C 35.148438 16.222656 35.152344 16.066406 35.152344 15.90625 C 35.574219 15.515625 35.816406 15.058594 36.144531 14.585938 C 36.316406 14.339844 36.457031 14.078125 36.625 13.828125 C 36.632812 13.8125 36.644531 13.796875 36.65625 13.78125 C 36.65625 13.976562 36.664062 14.167969 36.664062 14.363281 C 36.664062 14.472656 36.652344 14.582031 36.640625 14.691406 Z M 36.675781 13.46875 C 36.675781 13.484375 36.671875 13.5 36.671875 13.515625 C 36.363281 13.957031 36.015625 14.335938 35.765625 14.835938 C 35.59375 15.175781 35.398438 15.460938 35.152344 15.738281 C 35.15625 15.476562 35.15625 15.21875 35.160156 14.960938 C 35.273438 14.894531 35.359375 14.796875 35.4375 14.6875 C 35.597656 14.460938 35.746094 14.222656 35.914062 14 C 36.09375 13.761719 36.273438 13.527344 36.445312 13.285156 C 36.527344 13.167969 36.625 13.046875 36.710938 12.921875 C 36.707031 13.105469 36.699219 13.289062 36.675781 13.46875 Z M 36.730469 12.390625 C 36.726562 12.453125 36.722656 12.511719 36.722656 12.574219 C 36.503906 12.929688 36.246094 13.265625 36.007812 13.605469 C 35.851562 13.828125 35.683594 14.039062 35.535156 14.265625 C 35.421875 14.4375 35.324219 14.679688 35.164062 14.832031 C 35.167969 14.667969 35.175781 14.5 35.1875 14.335938 C 35.1875 14.316406 35.1875 14.296875 35.1875 14.277344 C 35.464844 13.921875 35.820312 13.621094 36.066406 13.25 C 36.261719 12.957031 36.554688 12.667969 36.730469 12.34375 C 36.730469 12.359375 36.730469 12.375 36.730469 12.390625 Z M 36.769531 11.890625 C 36.761719 11.894531 36.753906 11.902344 36.75 11.910156 C 36.628906 12.085938 36.539062 12.277344 36.40625 12.445312 C 36.253906 12.644531 36.097656 12.84375 35.957031 13.054688 C 35.722656 13.410156 35.441406 13.734375 35.195312 14.082031 C 35.203125 13.917969 35.207031 13.753906 35.21875 13.585938 C 35.296875 13.5 35.40625 13.425781 35.480469 13.347656 C 35.652344 13.167969 35.804688 12.976562 35.953125 12.777344 C 36.1875 12.460938 36.492188 12.136719 36.660156 11.777344 C 36.710938 11.75 36.761719 11.726562 36.816406 11.699219 C 36.800781 11.765625 36.785156 11.828125 36.769531 11.890625 "/></g><g style="fill:#194e92;fill-opacity:1;"><g transform="translate(40.339297, 26.140837)"><path style="stroke:none" d="M 2.5 -6.0625 C 2.46875 -6.0625 2.441406 -6.0625 2.421875 -6.0625 C 2.398438 -6.0625 2.378906 -6.0625 2.359375 -6.0625 L 1.796875 -3.734375 C 1.734375 -3.472656 1.664062 -3.210938 1.59375 -2.953125 C 1.519531 -2.703125 1.445312 -2.445312 1.375 -2.1875 C 1.300781 -1.914062 1.226562 -1.644531 1.15625 -1.375 C 1.082031 -1.113281 1.015625 -0.847656 0.953125 -0.578125 C 0.878906 -0.296875 0.691406 -0.132812 0.390625 -0.09375 C 0.242188 -0.0703125 0.125 -0.09375 0.03125 -0.15625 C -0.0507812 -0.226562 -0.09375 -0.335938 -0.09375 -0.484375 C -0.0625 -0.710938 -0.03125 -0.941406 0 -1.171875 C 0.0195312 -1.398438 0.0625 -1.625 0.125 -1.84375 C 0.445312 -3.15625 0.796875 -4.46875 1.171875 -5.78125 C 1.285156 -6.175781 1.398438 -6.566406 1.515625 -6.953125 C 1.640625 -7.347656 1.765625 -7.742188 1.890625 -8.140625 C 1.921875 -8.222656 1.957031 -8.300781 2 -8.375 C 2.050781 -8.445312 2.097656 -8.523438 2.140625 -8.609375 C 2.179688 -8.617188 2.222656 -8.628906 2.265625 -8.640625 C 2.316406 -8.648438 2.367188 -8.65625 2.421875 -8.65625 C 2.609375 -8.65625 2.742188 -8.640625 2.828125 -8.609375 C 2.921875 -8.585938 2.988281 -8.535156 3.03125 -8.453125 C 3.082031 -8.367188 3.128906 -8.238281 3.171875 -8.0625 C 3.316406 -7.5 3.453125 -6.929688 3.578125 -6.359375 C 3.703125 -5.796875 3.832031 -5.234375 3.96875 -4.671875 C 4 -4.523438 4.023438 -4.378906 4.046875 -4.234375 C 4.078125 -4.085938 4.109375 -3.945312 4.140625 -3.8125 C 4.148438 -3.769531 4.171875 -3.726562 4.203125 -3.6875 C 4.234375 -3.644531 4.265625 -3.585938 4.296875 -3.515625 C 4.429688 -3.671875 4.546875 -3.820312 4.640625 -3.96875 C 4.742188 -4.125 4.84375 -4.28125 4.9375 -4.4375 C 5.28125 -4.976562 5.625 -5.515625 5.96875 -6.046875 C 6.3125 -6.585938 6.660156 -7.128906 7.015625 -7.671875 C 7.078125 -7.765625 7.148438 -7.859375 7.234375 -7.953125 C 7.316406 -8.054688 7.390625 -8.15625 7.453125 -8.25 C 7.597656 -8.476562 7.78125 -8.597656 8 -8.609375 C 8.21875 -8.617188 8.429688 -8.617188 8.640625 -8.609375 C 8.734375 -8.609375 8.804688 -8.566406 8.859375 -8.484375 C 8.910156 -8.410156 8.941406 -8.328125 8.953125 -8.234375 C 8.960938 -8.109375 8.953125 -7.960938 8.921875 -7.796875 C 8.867188 -7.523438 8.816406 -7.253906 8.765625 -6.984375 C 8.710938 -6.710938 8.660156 -6.441406 8.609375 -6.171875 C 8.535156 -5.765625 8.457031 -5.359375 8.375 -4.953125 C 8.300781 -4.546875 8.238281 -4.140625 8.1875 -3.734375 C 8.132812 -3.234375 8.050781 -2.738281 7.9375 -2.25 C 7.832031 -1.769531 7.710938 -1.289062 7.578125 -0.8125 C 7.523438 -0.632812 7.4375 -0.460938 7.3125 -0.296875 C 7.164062 -0.109375 6.972656 -0.0546875 6.734375 -0.140625 C 6.648438 -0.160156 6.582031 -0.191406 6.53125 -0.234375 C 6.476562 -0.285156 6.445312 -0.351562 6.4375 -0.4375 C 6.425781 -0.53125 6.414062 -0.625 6.40625 -0.71875 C 6.40625 -0.820312 6.410156 -0.914062 6.421875 -1 C 6.503906 -1.394531 6.585938 -1.785156 6.671875 -2.171875 C 6.753906 -2.566406 6.832031 -2.960938 6.90625 -3.359375 C 6.96875 -3.710938 7.03125 -4.066406 7.09375 -4.421875 C 7.164062 -4.785156 7.234375 -5.144531 7.296875 -5.5 C 7.328125 -5.632812 7.359375 -5.769531 7.390625 -5.90625 C 7.421875 -6.050781 7.457031 -6.222656 7.5 -6.421875 C 7.40625 -6.328125 7.328125 -6.253906 7.265625 -6.203125 C 7.210938 -6.148438 7.171875 -6.101562 7.140625 -6.0625 C 6.992188 -5.8125 6.847656 -5.554688 6.703125 -5.296875 C 6.566406 -5.035156 6.425781 -4.78125 6.28125 -4.53125 C 6.09375 -4.226562 5.90625 -3.925781 5.71875 -3.625 C 5.53125 -3.332031 5.34375 -3.039062 5.15625 -2.75 C 5.03125 -2.570312 4.894531 -2.398438 4.75 -2.234375 C 4.601562 -2.066406 4.457031 -1.90625 4.3125 -1.75 C 4.175781 -1.613281 4.03125 -1.554688 3.875 -1.578125 C 3.726562 -1.597656 3.609375 -1.6875 3.515625 -1.84375 C 3.429688 -1.988281 3.351562 -2.140625 3.28125 -2.296875 C 3.21875 -2.460938 3.171875 -2.625 3.140625 -2.78125 C 3.046875 -3.175781 2.960938 -3.570312 2.890625 -3.96875 C 2.828125 -4.363281 2.757812 -4.753906 2.6875 -5.140625 Z M 2.5 -6.0625 "/></g></g><g style="fill:#194e92;fill-opacity:1;"><g transform="translate(49.465435, 26.140837)"><path style="stroke:none" d="M 0.34375 -1.9375 C 0.332031 -2 0.328125 -2.066406 0.328125 -2.140625 C 0.335938 -2.222656 0.34375 -2.300781 0.34375 -2.375 C 0.332031 -2.71875 0.359375 -3.0625 0.421875 -3.40625 C 0.492188 -3.757812 0.578125 -4.101562 0.671875 -4.4375 C 0.816406 -4.894531 0.960938 -5.347656 1.109375 -5.796875 C 1.253906 -6.242188 1.394531 -6.691406 1.53125 -7.140625 C 1.601562 -7.328125 1.664062 -7.519531 1.71875 -7.71875 C 1.78125 -7.925781 1.84375 -8.125 1.90625 -8.3125 C 1.9375 -8.382812 1.972656 -8.445312 2.015625 -8.5 C 2.066406 -8.550781 2.113281 -8.601562 2.15625 -8.65625 C 2.226562 -8.726562 2.304688 -8.753906 2.390625 -8.734375 C 2.472656 -8.722656 2.554688 -8.703125 2.640625 -8.671875 C 2.796875 -8.609375 2.863281 -8.492188 2.84375 -8.328125 C 2.832031 -8.191406 2.816406 -8.054688 2.796875 -7.921875 C 2.773438 -7.796875 2.75 -7.664062 2.71875 -7.53125 C 2.5625 -6.882812 2.398438 -6.238281 2.234375 -5.59375 C 2.066406 -4.945312 1.898438 -4.300781 1.734375 -3.65625 C 1.609375 -3.1875 1.507812 -2.710938 1.4375 -2.234375 C 1.34375 -1.648438 1.582031 -1.265625 2.15625 -1.078125 C 2.820312 -0.867188 3.375 -1.015625 3.8125 -1.515625 C 3.945312 -1.671875 4.070312 -1.832031 4.1875 -2 C 4.300781 -2.164062 4.382812 -2.351562 4.4375 -2.5625 L 4.96875 -4.53125 C 5.113281 -5.101562 5.257812 -5.675781 5.40625 -6.25 C 5.550781 -6.820312 5.695312 -7.398438 5.84375 -7.984375 C 5.894531 -8.179688 5.957031 -8.363281 6.03125 -8.53125 C 6.132812 -8.75 6.289062 -8.835938 6.5 -8.796875 C 6.789062 -8.742188 6.945312 -8.585938 6.96875 -8.328125 C 6.976562 -8.265625 6.976562 -8.203125 6.96875 -8.140625 C 6.957031 -8.085938 6.945312 -8.035156 6.9375 -7.984375 C 6.90625 -7.785156 6.867188 -7.585938 6.828125 -7.390625 C 6.785156 -7.203125 6.742188 -7.015625 6.703125 -6.828125 C 6.617188 -6.429688 6.53125 -6.03125 6.4375 -5.625 C 6.34375 -5.226562 6.253906 -4.832031 6.171875 -4.4375 C 6.117188 -4.195312 6.066406 -3.957031 6.015625 -3.71875 C 5.960938 -3.488281 5.898438 -3.253906 5.828125 -3.015625 C 5.597656 -2.171875 5.191406 -1.40625 4.609375 -0.71875 C 4.398438 -0.488281 4.164062 -0.304688 3.90625 -0.171875 C 3.65625 -0.0351562 3.382812 0.0390625 3.09375 0.0625 C 2.707031 0.0820312 2.328125 0.0507812 1.953125 -0.03125 C 1.578125 -0.113281 1.226562 -0.285156 0.90625 -0.546875 C 0.695312 -0.722656 0.5625 -0.9375 0.5 -1.1875 C 0.4375 -1.4375 0.382812 -1.6875 0.34375 -1.9375 Z M 0.34375 -1.9375 "/></g></g><g style="fill:#194e92;fill-opacity:1;"><g transform="translate(56.356855, 26.140837)"><path style="stroke:none" d="M 1.015625 -0.046875 C 0.878906 -0.117188 0.738281 -0.160156 0.59375 -0.171875 C 0.457031 -0.179688 0.3125 -0.175781 0.15625 -0.15625 C -0.0820312 -0.414062 -0.164062 -0.679688 -0.09375 -0.953125 C 0.132812 -1.804688 0.359375 -2.660156 0.578125 -3.515625 C 0.804688 -4.367188 1.035156 -5.21875 1.265625 -6.0625 C 1.367188 -6.425781 1.472656 -6.785156 1.578125 -7.140625 C 1.691406 -7.503906 1.800781 -7.867188 1.90625 -8.234375 C 1.976562 -8.441406 2.066406 -8.582031 2.171875 -8.65625 C 2.273438 -8.738281 2.429688 -8.75 2.640625 -8.6875 C 2.785156 -8.65625 2.921875 -8.640625 3.046875 -8.640625 C 3.171875 -8.640625 3.300781 -8.648438 3.4375 -8.671875 C 3.90625 -8.722656 4.382812 -8.710938 4.875 -8.640625 C 5.5 -8.546875 5.953125 -8.222656 6.234375 -7.671875 C 6.429688 -7.304688 6.550781 -6.925781 6.59375 -6.53125 C 6.644531 -6.144531 6.648438 -5.75 6.609375 -5.34375 C 6.578125 -4.988281 6.515625 -4.632812 6.421875 -4.28125 C 6.328125 -3.925781 6.222656 -3.578125 6.109375 -3.234375 C 5.992188 -2.890625 5.832031 -2.578125 5.625 -2.296875 C 5.425781 -2.015625 5.203125 -1.75 4.953125 -1.5 C 4.847656 -1.382812 4.734375 -1.273438 4.609375 -1.171875 C 4.484375 -1.078125 4.359375 -0.984375 4.234375 -0.890625 C 3.796875 -0.546875 3.328125 -0.316406 2.828125 -0.203125 C 2.335938 -0.0859375 1.828125 -0.0234375 1.296875 -0.015625 C 1.242188 -0.015625 1.191406 -0.015625 1.140625 -0.015625 C 1.097656 -0.015625 1.054688 -0.0234375 1.015625 -0.046875 Z M 4.15625 -7.703125 C 3.945312 -7.703125 3.726562 -7.6875 3.5 -7.65625 C 3.28125 -7.625 3.050781 -7.597656 2.8125 -7.578125 L 2.34375 -5.828125 L 1.296875 -1.75 C 1.273438 -1.664062 1.253906 -1.570312 1.234375 -1.46875 C 1.222656 -1.375 1.257812 -1.28125 1.34375 -1.1875 C 1.96875 -1.195312 2.535156 -1.328125 3.046875 -1.578125 C 3.566406 -1.828125 4.035156 -2.179688 4.453125 -2.640625 C 4.617188 -2.816406 4.765625 -3.007812 4.890625 -3.21875 C 5.015625 -3.425781 5.113281 -3.644531 5.1875 -3.875 C 5.226562 -4.050781 5.273438 -4.226562 5.328125 -4.40625 C 5.378906 -4.582031 5.414062 -4.757812 5.4375 -4.9375 C 5.457031 -5.21875 5.476562 -5.5 5.5 -5.78125 C 5.519531 -6.0625 5.507812 -6.335938 5.46875 -6.609375 C 5.425781 -6.898438 5.363281 -7.125 5.28125 -7.28125 C 5.195312 -7.4375 5.066406 -7.546875 4.890625 -7.609375 C 4.710938 -7.671875 4.46875 -7.703125 4.15625 -7.703125 Z M 4.15625 -7.703125 "/></g></g><g style="fill:#194e92;fill-opacity:1;"><g transform="translate(63.310697, 26.140837)"><path style="stroke:none" d="M 4.140625 -0.71875 C 4.109375 -0.945312 4.078125 -1.175781 4.046875 -1.40625 C 4.015625 -1.632812 3.976562 -1.878906 3.9375 -2.140625 C 3.6875 -2.203125 3.4375 -2.226562 3.1875 -2.21875 C 2.9375 -2.21875 2.691406 -2.207031 2.453125 -2.1875 C 2.109375 -2.15625 1.847656 -2.132812 1.671875 -2.125 C 1.503906 -2.113281 1.375 -2.082031 1.28125 -2.03125 C 1.195312 -1.976562 1.113281 -1.878906 1.03125 -1.734375 C 0.957031 -1.585938 0.84375 -1.363281 0.6875 -1.0625 C 0.625 -0.9375 0.546875 -0.816406 0.453125 -0.703125 C 0.359375 -0.585938 0.265625 -0.476562 0.171875 -0.375 C 0.0351562 -0.226562 -0.113281 -0.195312 -0.28125 -0.28125 C -0.394531 -0.332031 -0.484375 -0.40625 -0.546875 -0.5 C -0.609375 -0.59375 -0.625 -0.691406 -0.59375 -0.796875 C -0.570312 -0.953125 -0.519531 -1.113281 -0.4375 -1.28125 C -0.113281 -1.9375 0.207031 -2.585938 0.53125 -3.234375 C 0.851562 -3.890625 1.191406 -4.535156 1.546875 -5.171875 C 1.828125 -5.679688 2.128906 -6.1875 2.453125 -6.6875 C 2.785156 -7.1875 3.101562 -7.6875 3.40625 -8.1875 C 3.445312 -8.257812 3.492188 -8.328125 3.546875 -8.390625 C 3.609375 -8.460938 3.671875 -8.53125 3.734375 -8.59375 C 3.835938 -8.675781 3.960938 -8.71875 4.109375 -8.71875 C 4.253906 -8.71875 4.382812 -8.675781 4.5 -8.59375 C 4.613281 -8.519531 4.675781 -8.40625 4.6875 -8.25 C 4.71875 -8.0625 4.742188 -7.867188 4.765625 -7.671875 C 4.796875 -7.472656 4.8125 -7.28125 4.8125 -7.09375 C 4.851562 -6.625 4.890625 -6.148438 4.921875 -5.671875 C 4.953125 -5.203125 4.984375 -4.734375 5.015625 -4.265625 C 5.035156 -4.023438 5.054688 -3.785156 5.078125 -3.546875 C 5.097656 -3.304688 5.117188 -3.066406 5.140625 -2.828125 C 5.160156 -2.578125 5.179688 -2.332031 5.203125 -2.09375 C 5.234375 -1.851562 5.25 -1.613281 5.25 -1.375 C 5.269531 -1.21875 5.273438 -1.054688 5.265625 -0.890625 C 5.253906 -0.734375 5.242188 -0.582031 5.234375 -0.4375 C 5.203125 -0.164062 5.03125 -0.0234375 4.71875 -0.015625 C 4.46875 -0.015625 4.300781 -0.128906 4.21875 -0.359375 C 4.1875 -0.472656 4.160156 -0.59375 4.140625 -0.71875 Z M 1.90625 -3.265625 C 2.25 -3.285156 2.570312 -3.304688 2.875 -3.328125 C 3.175781 -3.347656 3.472656 -3.367188 3.765625 -3.390625 C 3.816406 -3.648438 3.832031 -4.035156 3.8125 -4.546875 C 3.800781 -5.066406 3.753906 -5.648438 3.671875 -6.296875 C 3.660156 -6.304688 3.640625 -6.316406 3.609375 -6.328125 C 3.585938 -6.347656 3.5625 -6.363281 3.53125 -6.375 C 3.238281 -5.882812 2.953125 -5.382812 2.671875 -4.875 C 2.398438 -4.363281 2.144531 -3.828125 1.90625 -3.265625 Z M 1.90625 -3.265625 "/></g></g><g style="fill:#194e92;fill-opacity:1;"><g transform="translate(69.727709, 26.140837)"><path style="stroke:none" d="M 4.8125 -4.125 C 4.71875 -4.082031 4.617188 -4.039062 4.515625 -4 C 4.421875 -3.957031 4.3125 -3.914062 4.1875 -3.875 C 4.21875 -3.789062 4.238281 -3.710938 4.25 -3.640625 C 4.269531 -3.578125 4.289062 -3.515625 4.3125 -3.453125 C 4.476562 -3.035156 4.648438 -2.617188 4.828125 -2.203125 C 5.003906 -1.785156 5.175781 -1.367188 5.34375 -0.953125 C 5.363281 -0.878906 5.382812 -0.804688 5.40625 -0.734375 C 5.425781 -0.671875 5.4375 -0.601562 5.4375 -0.53125 C 5.445312 -0.3125 5.34375 -0.160156 5.125 -0.078125 C 5.039062 -0.0351562 4.945312 -0.015625 4.84375 -0.015625 C 4.75 -0.0234375 4.664062 -0.0703125 4.59375 -0.15625 C 4.53125 -0.226562 4.472656 -0.296875 4.421875 -0.359375 C 4.378906 -0.429688 4.34375 -0.503906 4.3125 -0.578125 C 4.25 -0.710938 4.191406 -0.847656 4.140625 -0.984375 C 4.085938 -1.117188 4.035156 -1.253906 3.984375 -1.390625 C 3.835938 -1.773438 3.695312 -2.160156 3.5625 -2.546875 C 3.425781 -2.941406 3.285156 -3.328125 3.140625 -3.703125 L 1.8125 -3.9375 C 1.800781 -3.925781 1.78125 -3.90625 1.75 -3.875 C 1.71875 -3.851562 1.703125 -3.828125 1.703125 -3.796875 C 1.617188 -3.515625 1.535156 -3.222656 1.453125 -2.921875 C 1.378906 -2.628906 1.304688 -2.335938 1.234375 -2.046875 C 1.171875 -1.804688 1.097656 -1.5625 1.015625 -1.3125 C 0.941406 -1.070312 0.875 -0.828125 0.8125 -0.578125 C 0.800781 -0.546875 0.789062 -0.507812 0.78125 -0.46875 C 0.769531 -0.4375 0.753906 -0.40625 0.734375 -0.375 C 0.679688 -0.289062 0.625 -0.210938 0.5625 -0.140625 C 0.507812 -0.0664062 0.425781 -0.03125 0.3125 -0.03125 C 0.207031 -0.0390625 0.109375 -0.09375 0.015625 -0.1875 C -0.078125 -0.289062 -0.125 -0.40625 -0.125 -0.53125 C -0.125 -0.644531 -0.117188 -0.753906 -0.109375 -0.859375 C -0.109375 -0.972656 -0.09375 -1.082031 -0.0625 -1.1875 C 0.207031 -1.945312 0.425781 -2.71875 0.59375 -3.5 C 0.769531 -4.28125 0.96875 -5.050781 1.1875 -5.8125 C 1.300781 -6.207031 1.421875 -6.601562 1.546875 -7 C 1.671875 -7.394531 1.796875 -7.785156 1.921875 -8.171875 C 1.992188 -8.390625 2.066406 -8.519531 2.140625 -8.5625 C 2.222656 -8.601562 2.382812 -8.625 2.625 -8.625 C 2.84375 -8.625 3.0625 -8.625 3.28125 -8.625 C 3.5 -8.632812 3.710938 -8.65625 3.921875 -8.6875 C 4.171875 -8.726562 4.410156 -8.722656 4.640625 -8.671875 C 4.878906 -8.628906 5.113281 -8.582031 5.34375 -8.53125 C 5.539062 -8.488281 5.707031 -8.394531 5.84375 -8.25 C 5.988281 -8.113281 6.113281 -7.960938 6.21875 -7.796875 C 6.695312 -6.921875 6.703125 -6.0625 6.234375 -5.21875 C 6.078125 -4.957031 5.875 -4.738281 5.625 -4.5625 C 5.375 -4.382812 5.101562 -4.238281 4.8125 -4.125 Z M 2.625 -7.671875 C 2.507812 -7.253906 2.398438 -6.828125 2.296875 -6.390625 C 2.191406 -5.953125 2.082031 -5.492188 1.96875 -5.015625 C 2.082031 -4.984375 2.171875 -4.945312 2.234375 -4.90625 C 2.304688 -4.875 2.378906 -4.851562 2.453125 -4.84375 C 2.910156 -4.78125 3.351562 -4.789062 3.78125 -4.875 C 4.21875 -4.957031 4.628906 -5.125 5.015625 -5.375 C 5.171875 -5.46875 5.289062 -5.585938 5.375 -5.734375 C 5.457031 -5.878906 5.519531 -6.035156 5.5625 -6.203125 C 5.65625 -6.585938 5.601562 -6.9375 5.40625 -7.25 C 5.207031 -7.5625 4.910156 -7.742188 4.515625 -7.796875 C 4.210938 -7.835938 3.898438 -7.851562 3.578125 -7.84375 C 3.265625 -7.832031 2.945312 -7.773438 2.625 -7.671875 Z M 2.625 -7.671875 "/></g></g><g style="fill:#194e92;fill-opacity:1;"><g transform="translate(76.544219, 26.140837)"><path style="stroke:none" d=""/></g></g><g style="fill:#194e92;fill-opacity:1;"><g transform="translate(79.240864, 26.140837)"><path style="stroke:none" d="M 6.0625 -8.21875 C 6.46875 -7.726562 6.734375 -7.191406 6.859375 -6.609375 C 6.984375 -6.035156 7.046875 -5.40625 7.046875 -4.71875 C 6.984375 -3.84375 6.75 -3.03125 6.34375 -2.28125 C 5.9375 -1.53125 5.347656 -0.863281 4.578125 -0.28125 C 4.359375 -0.125 4.125 -0.00390625 3.875 0.078125 C 3.632812 0.171875 3.375 0.203125 3.09375 0.171875 C 2.800781 0.140625 2.523438 0.0703125 2.265625 -0.03125 C 2.003906 -0.132812 1.765625 -0.296875 1.546875 -0.515625 C 1.210938 -0.847656 0.960938 -1.207031 0.796875 -1.59375 C 0.628906 -1.976562 0.523438 -2.394531 0.484375 -2.84375 C 0.378906 -3.9375 0.515625 -4.925781 0.890625 -5.8125 C 1.265625 -6.695312 1.863281 -7.492188 2.6875 -8.203125 C 2.8125 -8.304688 2.945312 -8.398438 3.09375 -8.484375 C 3.238281 -8.578125 3.382812 -8.664062 3.53125 -8.75 C 3.78125 -8.882812 4.066406 -8.941406 4.390625 -8.921875 C 4.710938 -8.910156 5.03125 -8.84375 5.34375 -8.71875 C 5.65625 -8.601562 5.894531 -8.4375 6.0625 -8.21875 Z M 2.390625 -6.59375 C 2.097656 -6.113281 1.863281 -5.617188 1.6875 -5.109375 C 1.519531 -4.609375 1.445312 -4.082031 1.46875 -3.53125 C 1.425781 -3.082031 1.460938 -2.664062 1.578125 -2.28125 C 1.703125 -1.894531 1.921875 -1.546875 2.234375 -1.234375 C 2.429688 -1.015625 2.675781 -0.878906 2.96875 -0.828125 C 3.207031 -0.773438 3.425781 -0.785156 3.625 -0.859375 C 3.820312 -0.941406 4.003906 -1.050781 4.171875 -1.1875 C 4.421875 -1.394531 4.640625 -1.625 4.828125 -1.875 C 5.023438 -2.125 5.191406 -2.390625 5.328125 -2.671875 C 5.484375 -2.984375 5.597656 -3.3125 5.671875 -3.65625 C 5.742188 -4.007812 5.816406 -4.351562 5.890625 -4.6875 C 5.992188 -5.132812 6.007812 -5.554688 5.9375 -5.953125 C 5.863281 -6.359375 5.742188 -6.765625 5.578125 -7.171875 C 5.515625 -7.328125 5.425781 -7.472656 5.3125 -7.609375 C 5.226562 -7.710938 5.128906 -7.800781 5.015625 -7.875 C 4.910156 -7.945312 4.785156 -7.976562 4.640625 -7.96875 C 4.410156 -7.957031 4.179688 -7.925781 3.953125 -7.875 C 3.734375 -7.820312 3.523438 -7.726562 3.328125 -7.59375 C 3.148438 -7.457031 2.976562 -7.304688 2.8125 -7.140625 C 2.65625 -6.972656 2.515625 -6.789062 2.390625 -6.59375 Z M 2.390625 -6.59375 "/></g></g><g style="fill:#194e92;fill-opacity:1;"><g transform="translate(86.756506, 26.140837)"><path style="stroke:none" d=""/></g></g><g style="fill:#194e92;fill-opacity:1;"><g transform="translate(89.453151, 26.140837)"><path style="stroke:none" d="M 3 -6.875 C 3.007812 -6.96875 3.03125 -7.066406 3.0625 -7.171875 C 3.09375 -7.273438 3.125 -7.398438 3.15625 -7.546875 C 2.945312 -7.554688 2.757812 -7.566406 2.59375 -7.578125 C 2.4375 -7.585938 2.28125 -7.597656 2.125 -7.609375 C 1.988281 -7.609375 1.851562 -7.609375 1.71875 -7.609375 C 1.582031 -7.609375 1.453125 -7.609375 1.328125 -7.609375 C 1.171875 -7.628906 1.066406 -7.703125 1.015625 -7.828125 C 0.972656 -7.960938 0.992188 -8.09375 1.078125 -8.21875 C 1.179688 -8.363281 1.320312 -8.441406 1.5 -8.453125 C 1.675781 -8.472656 1.859375 -8.492188 2.046875 -8.515625 C 2.234375 -8.535156 2.410156 -8.53125 2.578125 -8.5 C 2.953125 -8.457031 3.320312 -8.453125 3.6875 -8.484375 C 4.050781 -8.523438 4.410156 -8.550781 4.765625 -8.5625 C 4.960938 -8.582031 5.15625 -8.59375 5.34375 -8.59375 C 5.539062 -8.59375 5.738281 -8.585938 5.9375 -8.578125 C 6.113281 -8.554688 6.269531 -8.503906 6.40625 -8.421875 C 6.53125 -8.359375 6.59375 -8.25 6.59375 -8.09375 C 6.59375 -7.9375 6.523438 -7.828125 6.390625 -7.765625 C 6.210938 -7.671875 6.007812 -7.617188 5.78125 -7.609375 C 5.570312 -7.585938 5.363281 -7.578125 5.15625 -7.578125 C 4.957031 -7.578125 4.753906 -7.566406 4.546875 -7.546875 C 4.472656 -7.546875 4.394531 -7.535156 4.3125 -7.515625 C 4.238281 -7.492188 4.15625 -7.476562 4.0625 -7.46875 C 4.007812 -7.195312 3.953125 -6.925781 3.890625 -6.65625 C 3.828125 -6.394531 3.765625 -6.128906 3.703125 -5.859375 C 3.535156 -5.023438 3.363281 -4.191406 3.1875 -3.359375 C 3.019531 -2.535156 2.84375 -1.707031 2.65625 -0.875 C 2.632812 -0.769531 2.597656 -0.671875 2.546875 -0.578125 C 2.492188 -0.484375 2.441406 -0.390625 2.390625 -0.296875 C 2.265625 -0.148438 2.109375 -0.109375 1.921875 -0.171875 C 1.734375 -0.234375 1.640625 -0.363281 1.640625 -0.5625 C 1.640625 -0.726562 1.65625 -0.898438 1.6875 -1.078125 C 1.757812 -1.460938 1.832031 -1.851562 1.90625 -2.25 C 1.976562 -2.644531 2.0625 -3.035156 2.15625 -3.421875 C 2.289062 -4.003906 2.425781 -4.582031 2.5625 -5.15625 C 2.707031 -5.726562 2.851562 -6.300781 3 -6.875 Z M 3 -6.875 "/></g></g><g style="fill:#194e92;fill-opacity:1;"><g transform="translate(95.133577, 26.140837)"><path style="stroke:none" d="M 0.28125 -3.390625 C 0.394531 -3.691406 0.546875 -3.96875 0.734375 -4.21875 C 0.929688 -4.476562 1.148438 -4.71875 1.390625 -4.9375 C 1.242188 -5.4375 1.21875 -5.890625 1.3125 -6.296875 C 1.40625 -6.710938 1.597656 -7.097656 1.890625 -7.453125 C 2.097656 -7.703125 2.332031 -7.910156 2.59375 -8.078125 C 2.851562 -8.253906 3.140625 -8.390625 3.453125 -8.484375 C 3.691406 -8.566406 3.9375 -8.625 4.1875 -8.65625 C 4.4375 -8.695312 4.691406 -8.703125 4.953125 -8.671875 C 5.398438 -8.628906 5.769531 -8.421875 6.0625 -8.046875 C 6.101562 -7.992188 6.132812 -7.929688 6.15625 -7.859375 C 6.1875 -7.785156 6.207031 -7.71875 6.21875 -7.65625 C 6.238281 -7.4375 6.15625 -7.273438 5.96875 -7.171875 C 5.882812 -7.117188 5.800781 -7.101562 5.71875 -7.125 C 5.644531 -7.15625 5.570312 -7.191406 5.5 -7.234375 C 5.457031 -7.273438 5.414062 -7.316406 5.375 -7.359375 C 5.332031 -7.398438 5.289062 -7.441406 5.25 -7.484375 C 5.125 -7.640625 4.984375 -7.738281 4.828125 -7.78125 C 4.679688 -7.832031 4.515625 -7.835938 4.328125 -7.796875 C 3.910156 -7.710938 3.535156 -7.570312 3.203125 -7.375 C 2.878906 -7.1875 2.617188 -6.894531 2.421875 -6.5 C 2.359375 -6.363281 2.3125 -6.222656 2.28125 -6.078125 C 2.257812 -5.941406 2.273438 -5.789062 2.328125 -5.625 C 2.398438 -5.625 2.46875 -5.625 2.53125 -5.625 C 2.601562 -5.625 2.675781 -5.628906 2.75 -5.640625 C 3.21875 -5.765625 3.695312 -5.800781 4.1875 -5.75 C 4.269531 -5.75 4.359375 -5.734375 4.453125 -5.703125 C 4.554688 -5.671875 4.648438 -5.628906 4.734375 -5.578125 C 4.890625 -5.492188 4.992188 -5.375 5.046875 -5.21875 C 5.109375 -5.070312 5.113281 -4.921875 5.0625 -4.765625 C 5.019531 -4.609375 4.921875 -4.476562 4.765625 -4.375 C 4.554688 -4.25 4.335938 -4.144531 4.109375 -4.0625 C 3.890625 -3.976562 3.648438 -3.957031 3.390625 -4 C 3.179688 -4.039062 2.96875 -4.082031 2.75 -4.125 C 2.539062 -4.164062 2.320312 -4.203125 2.09375 -4.234375 C 1.851562 -4.078125 1.660156 -3.867188 1.515625 -3.609375 C 1.367188 -3.359375 1.253906 -3.097656 1.171875 -2.828125 C 1.078125 -2.492188 1.078125 -2.191406 1.171875 -1.921875 C 1.273438 -1.648438 1.4375 -1.4375 1.65625 -1.28125 C 1.882812 -1.125 2.132812 -1.039062 2.40625 -1.03125 C 2.800781 -1.03125 3.132812 -1.097656 3.40625 -1.234375 C 3.675781 -1.378906 3.914062 -1.597656 4.125 -1.890625 C 4.175781 -1.960938 4.226562 -2.03125 4.28125 -2.09375 C 4.332031 -2.164062 4.382812 -2.226562 4.4375 -2.28125 C 4.476562 -2.320312 4.53125 -2.347656 4.59375 -2.359375 C 4.65625 -2.378906 4.710938 -2.394531 4.765625 -2.40625 C 4.859375 -2.425781 4.9375 -2.40625 5 -2.34375 C 5.070312 -2.28125 5.113281 -2.203125 5.125 -2.109375 C 5.125 -1.972656 5.113281 -1.835938 5.09375 -1.703125 C 5.070312 -1.578125 5.019531 -1.457031 4.9375 -1.34375 C 4.6875 -0.988281 4.394531 -0.6875 4.0625 -0.4375 C 3.726562 -0.195312 3.328125 -0.0664062 2.859375 -0.046875 C 2.722656 -0.0351562 2.585938 -0.03125 2.453125 -0.03125 C 2.328125 -0.0390625 2.195312 -0.046875 2.0625 -0.046875 C 1.695312 -0.046875 1.382812 -0.132812 1.125 -0.3125 C 0.863281 -0.5 0.640625 -0.738281 0.453125 -1.03125 C 0.203125 -1.40625 0.078125 -1.789062 0.078125 -2.1875 C 0.0859375 -2.59375 0.15625 -2.992188 0.28125 -3.390625 Z M 0.28125 -3.390625 "/></g></g><g style="fill:#194e92;fill-opacity:1;"><g transform="translate(101.313385, 26.140837)"><path style="stroke:none" d="M 2.375 -6.0625 C 2.28125 -5.675781 2.1875 -5.285156 2.09375 -4.890625 C 2 -4.503906 1.898438 -4.117188 1.796875 -3.734375 C 1.734375 -3.472656 1.664062 -3.210938 1.59375 -2.953125 C 1.519531 -2.703125 1.453125 -2.445312 1.390625 -2.1875 C 1.304688 -1.914062 1.226562 -1.644531 1.15625 -1.375 C 1.09375 -1.113281 1.03125 -0.847656 0.96875 -0.578125 C 0.882812 -0.296875 0.695312 -0.132812 0.40625 -0.09375 C 0.257812 -0.0703125 0.140625 -0.09375 0.046875 -0.15625 C -0.046875 -0.226562 -0.0859375 -0.335938 -0.078125 -0.484375 C -0.0546875 -0.710938 -0.03125 -0.941406 0 -1.171875 C 0.0195312 -1.398438 0.0625 -1.625 0.125 -1.84375 C 0.46875 -3.15625 0.816406 -4.46875 1.171875 -5.78125 C 1.285156 -6.175781 1.40625 -6.566406 1.53125 -6.953125 C 1.65625 -7.347656 1.78125 -7.742188 1.90625 -8.140625 C 1.9375 -8.222656 1.972656 -8.300781 2.015625 -8.375 C 2.054688 -8.445312 2.097656 -8.523438 2.140625 -8.609375 C 2.179688 -8.617188 2.226562 -8.628906 2.28125 -8.640625 C 2.332031 -8.648438 2.378906 -8.65625 2.421875 -8.65625 C 2.609375 -8.65625 2.742188 -8.640625 2.828125 -8.609375 C 2.921875 -8.585938 2.992188 -8.535156 3.046875 -8.453125 C 3.097656 -8.367188 3.144531 -8.238281 3.1875 -8.0625 C 3.320312 -7.5 3.453125 -6.929688 3.578125 -6.359375 C 3.703125 -5.796875 3.832031 -5.234375 3.96875 -4.671875 C 4 -4.523438 4.023438 -4.378906 4.046875 -4.234375 C 4.078125 -4.085938 4.109375 -3.945312 4.140625 -3.8125 C 4.160156 -3.769531 4.179688 -3.726562 4.203125 -3.6875 C 4.234375 -3.644531 4.265625 -3.585938 4.296875 -3.515625 C 4.429688 -3.671875 4.546875 -3.820312 4.640625 -3.96875 C 4.742188 -4.125 4.84375 -4.28125 4.9375 -4.4375 C 5.289062 -4.976562 5.640625 -5.515625 5.984375 -6.046875 C 6.328125 -6.585938 6.675781 -7.128906 7.03125 -7.671875 C 7.09375 -7.765625 7.160156 -7.859375 7.234375 -7.953125 C 7.316406 -8.054688 7.394531 -8.15625 7.46875 -8.25 C 7.613281 -8.476562 7.789062 -8.597656 8 -8.609375 C 8.21875 -8.617188 8.4375 -8.617188 8.65625 -8.609375 C 8.738281 -8.609375 8.804688 -8.566406 8.859375 -8.484375 C 8.910156 -8.410156 8.941406 -8.328125 8.953125 -8.234375 C 8.960938 -8.171875 8.96875 -8.101562 8.96875 -8.03125 C 8.96875 -7.957031 8.957031 -7.878906 8.9375 -7.796875 C 8.882812 -7.523438 8.828125 -7.253906 8.765625 -6.984375 C 8.710938 -6.710938 8.660156 -6.441406 8.609375 -6.171875 C 8.535156 -5.765625 8.457031 -5.359375 8.375 -4.953125 C 8.300781 -4.546875 8.238281 -4.140625 8.1875 -3.734375 C 8.132812 -3.234375 8.054688 -2.738281 7.953125 -2.25 C 7.847656 -1.769531 7.726562 -1.289062 7.59375 -0.8125 C 7.539062 -0.625 7.445312 -0.453125 7.3125 -0.296875 C 7.175781 -0.109375 6.984375 -0.0546875 6.734375 -0.140625 C 6.660156 -0.160156 6.59375 -0.191406 6.53125 -0.234375 C 6.476562 -0.285156 6.445312 -0.351562 6.4375 -0.4375 C 6.425781 -0.53125 6.421875 -0.625 6.421875 -0.71875 C 6.421875 -0.820312 6.421875 -0.914062 6.421875 -1 C 6.503906 -1.394531 6.585938 -1.785156 6.671875 -2.171875 C 6.753906 -2.566406 6.832031 -2.960938 6.90625 -3.359375 C 6.976562 -3.710938 7.046875 -4.066406 7.109375 -4.421875 C 7.179688 -4.785156 7.242188 -5.144531 7.296875 -5.5 C 7.328125 -5.632812 7.359375 -5.769531 7.390625 -5.90625 C 7.421875 -6.050781 7.457031 -6.222656 7.5 -6.421875 C 7.40625 -6.328125 7.328125 -6.253906 7.265625 -6.203125 C 7.210938 -6.148438 7.171875 -6.101562 7.140625 -6.0625 C 6.992188 -5.8125 6.847656 -5.554688 6.703125 -5.296875 C 6.566406 -5.035156 6.425781 -4.78125 6.28125 -4.53125 C 6.09375 -4.226562 5.90625 -3.925781 5.71875 -3.625 C 5.539062 -3.332031 5.351562 -3.039062 5.15625 -2.75 C 5.03125 -2.570312 4.894531 -2.398438 4.75 -2.234375 C 4.613281 -2.066406 4.46875 -1.90625 4.3125 -1.75 C 4.1875 -1.613281 4.046875 -1.554688 3.890625 -1.578125 C 3.734375 -1.597656 3.609375 -1.6875 3.515625 -1.84375 C 3.429688 -1.988281 3.359375 -2.140625 3.296875 -2.296875 C 3.234375 -2.460938 3.179688 -2.625 3.140625 -2.78125 C 3.054688 -3.175781 2.976562 -3.570312 2.90625 -3.96875 C 2.832031 -4.363281 2.757812 -4.753906 2.6875 -5.140625 C 2.65625 -5.296875 2.625 -5.445312 2.59375 -5.59375 C 2.5625 -5.75 2.53125 -5.90625 2.5 -6.0625 Z M 2.375 -6.0625 "/></g></g><g style="fill:#194e92;fill-opacity:1;"><g transform="translate(110.464491, 26.140837)"><path style="stroke:none" d="M 4.140625 -0.71875 C 4.109375 -0.945312 4.078125 -1.175781 4.046875 -1.40625 C 4.015625 -1.632812 3.976562 -1.878906 3.9375 -2.140625 C 3.6875 -2.203125 3.4375 -2.226562 3.1875 -2.21875 C 2.9375 -2.21875 2.691406 -2.207031 2.453125 -2.1875 C 2.109375 -2.15625 1.847656 -2.132812 1.671875 -2.125 C 1.503906 -2.113281 1.375 -2.082031 1.28125 -2.03125 C 1.195312 -1.976562 1.113281 -1.878906 1.03125 -1.734375 C 0.957031 -1.585938 0.84375 -1.363281 0.6875 -1.0625 C 0.625 -0.9375 0.546875 -0.816406 0.453125 -0.703125 C 0.359375 -0.585938 0.265625 -0.476562 0.171875 -0.375 C 0.0351562 -0.226562 -0.113281 -0.195312 -0.28125 -0.28125 C -0.394531 -0.332031 -0.484375 -0.40625 -0.546875 -0.5 C -0.609375 -0.59375 -0.625 -0.691406 -0.59375 -0.796875 C -0.570312 -0.953125 -0.519531 -1.113281 -0.4375 -1.28125 C -0.113281 -1.9375 0.207031 -2.585938 0.53125 -3.234375 C 0.851562 -3.890625 1.191406 -4.535156 1.546875 -5.171875 C 1.828125 -5.679688 2.128906 -6.1875 2.453125 -6.6875 C 2.785156 -7.1875 3.101562 -7.6875 3.40625 -8.1875 C 3.445312 -8.257812 3.492188 -8.328125 3.546875 -8.390625 C 3.609375 -8.460938 3.671875 -8.53125 3.734375 -8.59375 C 3.835938 -8.675781 3.960938 -8.71875 4.109375 -8.71875 C 4.253906 -8.71875 4.382812 -8.675781 4.5 -8.59375 C 4.613281 -8.519531 4.675781 -8.40625 4.6875 -8.25 C 4.71875 -8.0625 4.742188 -7.867188 4.765625 -7.671875 C 4.796875 -7.472656 4.8125 -7.28125 4.8125 -7.09375 C 4.851562 -6.625 4.890625 -6.148438 4.921875 -5.671875 C 4.953125 -5.203125 4.984375 -4.734375 5.015625 -4.265625 C 5.035156 -4.023438 5.054688 -3.785156 5.078125 -3.546875 C 5.097656 -3.304688 5.117188 -3.066406 5.140625 -2.828125 C 5.160156 -2.578125 5.179688 -2.332031 5.203125 -2.09375 C 5.234375 -1.851562 5.25 -1.613281 5.25 -1.375 C 5.269531 -1.21875 5.273438 -1.054688 5.265625 -0.890625 C 5.253906 -0.734375 5.242188 -0.582031 5.234375 -0.4375 C 5.203125 -0.164062 5.03125 -0.0234375 4.71875 -0.015625 C 4.46875 -0.015625 4.300781 -0.128906 4.21875 -0.359375 C 4.1875 -0.472656 4.160156 -0.59375 4.140625 -0.71875 Z M 1.90625 -3.265625 C 2.25 -3.285156 2.570312 -3.304688 2.875 -3.328125 C 3.175781 -3.347656 3.472656 -3.367188 3.765625 -3.390625 C 3.816406 -3.648438 3.832031 -4.035156 3.8125 -4.546875 C 3.800781 -5.066406 3.753906 -5.648438 3.671875 -6.296875 C 3.660156 -6.304688 3.640625 -6.316406 3.609375 -6.328125 C 3.585938 -6.347656 3.5625 -6.363281 3.53125 -6.375 C 3.238281 -5.882812 2.953125 -5.382812 2.671875 -4.875 C 2.398438 -4.363281 2.144531 -3.828125 1.90625 -3.265625 Z M 1.90625 -3.265625 "/></g></g></g></svg>