<svg xmlns="http://www.w3.org/2000/svg" xmlns:xlink="http://www.w3.org/1999/xlink" width="200" zoomAndPan="magnify" viewBox="0 0 150 44.999999" height="60" preserveAspectRatio="xMidYMid meet" version="1.2"><defs/><g id="8dd495418e"><g style="fill:#ff198e;fill-opacity:1;"><g transform="translate(7.60482, 27.857871)"><path style="stroke:none" d="M 8.6875 0 L 4.3125 0 L 4.3125 -8.53125 L 1.546875 -7.40625 L 0.28125 -10.734375 L 8.46875 -14.1875 L 8.6875 -14.1875 Z M 8.6875 0 "/></g></g><g style="fill:#910599;fill-opacity:1;"><g transform="translate(17.284174, 27.857871)"><path style="stroke:none" d="M 0.5625 0 L 0.5625 -0.34375 L 6.203125 -6.4375 C 6.515625 -6.78125 6.8125 -7.148438 7.09375 -7.546875 C 7.382812 -7.929688 7.53125 -8.375 7.53125 -8.875 C 7.5 -9.351562 7.34375 -9.691406 7.0625 -9.890625 C 6.757812 -10.085938 6.40625 -10.1875 6 -10.1875 C 5.382812 -10.1875 4.859375 -10.015625 4.421875 -9.671875 C 3.972656 -9.316406 3.625 -8.875 3.375 -8.34375 L 0.59375 -10.25 C 0.757812 -10.851562 1.039062 -11.378906 1.4375 -11.828125 C 1.820312 -12.265625 2.269531 -12.632812 2.78125 -12.9375 C 3.300781 -13.21875 3.851562 -13.429688 4.4375 -13.578125 C 5.03125 -13.722656 5.609375 -13.800781 6.171875 -13.8125 C 6.773438 -13.8125 7.363281 -13.765625 7.9375 -13.671875 C 8.507812 -13.554688 9.046875 -13.351562 9.546875 -13.0625 C 10.191406 -12.6875 10.695312 -12.191406 11.0625 -11.578125 C 11.4375 -10.953125 11.609375 -10.191406 11.578125 -9.296875 C 11.566406 -8.515625 11.394531 -7.832031 11.0625 -7.25 C 10.738281 -6.664062 10.328125 -6.101562 9.828125 -5.5625 L 8.09375 -3.6875 L 11.578125 -3.6875 L 11.578125 0 Z M 0.5625 0 "/></g></g><g style="fill:#028cdb;fill-opacity:1;"><g transform="translate(29.538614, 27.857871)"><path style="stroke:none" d="M 4.9375 -5.5625 L 4.9375 -8.09375 L 6.671875 -8.09375 C 6.867188 -8.09375 7.078125 -8.097656 7.296875 -8.109375 C 7.492188 -8.117188 7.679688 -8.160156 7.859375 -8.234375 C 8.023438 -8.296875 8.164062 -8.394531 8.28125 -8.53125 C 8.394531 -8.664062 8.453125 -8.847656 8.453125 -9.078125 C 8.453125 -9.328125 8.390625 -9.535156 8.265625 -9.703125 C 8.128906 -9.859375 7.96875 -9.976562 7.78125 -10.0625 C 7.582031 -10.132812 7.367188 -10.1875 7.140625 -10.21875 C 6.910156 -10.226562 6.691406 -10.234375 6.484375 -10.234375 C 6.140625 -10.234375 5.820312 -10.191406 5.53125 -10.109375 C 5.25 -10.015625 4.976562 -9.890625 4.71875 -9.734375 C 4.488281 -9.578125 4.289062 -9.394531 4.125 -9.1875 C 3.945312 -8.957031 3.785156 -8.707031 3.640625 -8.4375 L 0.84375 -10.484375 C 1 -11.046875 1.28125 -11.539062 1.6875 -11.96875 C 2.101562 -12.394531 2.570312 -12.753906 3.09375 -13.046875 C 3.644531 -13.367188 4.242188 -13.582031 4.890625 -13.6875 C 5.515625 -13.789062 6.148438 -13.84375 6.796875 -13.84375 C 7.335938 -13.84375 7.867188 -13.816406 8.390625 -13.765625 C 8.890625 -13.722656 9.40625 -13.625 9.9375 -13.46875 C 10.320312 -13.351562 10.6875 -13.203125 11.03125 -13.015625 C 11.351562 -12.835938 11.644531 -12.609375 11.90625 -12.328125 C 12.144531 -12.046875 12.335938 -11.710938 12.484375 -11.328125 C 12.628906 -10.941406 12.691406 -10.5 12.671875 -10 C 12.660156 -9.3125 12.488281 -8.703125 12.15625 -8.171875 C 11.832031 -7.628906 11.34375 -7.226562 10.6875 -6.96875 C 12.039062 -6.601562 12.75 -5.628906 12.8125 -4.046875 C 12.820312 -3.253906 12.660156 -2.578125 12.328125 -2.015625 C 11.992188 -1.460938 11.550781 -1.015625 11 -0.671875 C 10.445312 -0.328125 9.828125 -0.078125 9.140625 0.078125 C 8.441406 0.242188 7.75 0.328125 7.0625 0.328125 C 6.40625 0.328125 5.757812 0.257812 5.125 0.125 C 4.476562 0.0078125 3.878906 -0.179688 3.328125 -0.453125 C 2.753906 -0.710938 2.234375 -1.046875 1.765625 -1.453125 C 1.273438 -1.867188 0.851562 -2.367188 0.5 -2.953125 L 3.34375 -5.109375 C 3.6875 -4.492188 4.117188 -4.054688 4.640625 -3.796875 C 5.148438 -3.535156 5.75 -3.40625 6.4375 -3.40625 C 6.644531 -3.40625 6.863281 -3.421875 7.09375 -3.453125 C 7.320312 -3.484375 7.539062 -3.539062 7.75 -3.625 C 7.9375 -3.707031 8.09375 -3.828125 8.21875 -3.984375 C 8.34375 -4.140625 8.414062 -4.347656 8.4375 -4.609375 C 8.445312 -4.804688 8.414062 -4.972656 8.34375 -5.109375 C 8.257812 -5.234375 8.15625 -5.332031 8.03125 -5.40625 C 7.894531 -5.457031 7.75 -5.5 7.59375 -5.53125 C 7.425781 -5.550781 7.257812 -5.5625 7.09375 -5.5625 Z M 4.9375 -5.5625 "/></g></g><g style="fill:#000000;fill-opacity:1;"><g transform="translate(42.844282, 27.857871)"><path style="stroke:none" d=""/></g></g><g style="fill:#006aa6;fill-opacity:1;"><g transform="translate(48.210633, 27.857871)"><path style="stroke:none" d="M 0.75 -14.046875 L 1.046875 -14.046875 L 8.21875 -8.09375 L 8.21875 -13.515625 L 12.59375 -13.515625 L 12.59375 0.640625 L 12.25 0.640625 L 5.125 -5.21875 L 5.125 0 L 0.75 0 Z M 0.75 -14.046875 "/></g></g><g style="fill:#006aa6;fill-opacity:1;"><g transform="translate(61.365028, 27.857871)"><path style="stroke:none" d="M 5.0625 -13.515625 L 5.0625 -5.8125 C 5.0625 -5.582031 5.078125 -5.328125 5.109375 -5.046875 C 5.117188 -4.742188 5.164062 -4.46875 5.25 -4.21875 C 5.34375 -3.976562 5.476562 -3.773438 5.65625 -3.609375 C 5.832031 -3.429688 6.078125 -3.34375 6.390625 -3.34375 C 6.722656 -3.34375 6.984375 -3.429688 7.171875 -3.609375 C 7.335938 -3.765625 7.460938 -3.96875 7.546875 -4.21875 C 7.640625 -4.46875 7.695312 -4.734375 7.71875 -5.015625 C 7.738281 -5.304688 7.75 -5.570312 7.75 -5.8125 L 7.75 -13.515625 L 12.125 -13.515625 L 12.125 -5.46875 C 12.125 -3.5 11.679688 -2.035156 10.796875 -1.078125 C 9.890625 -0.117188 8.421875 0.351562 6.390625 0.34375 C 4.359375 0.34375 2.898438 -0.132812 2.015625 -1.09375 C 1.128906 -2.050781 0.6875 -3.507812 0.6875 -5.46875 L 0.6875 -13.515625 Z M 5.65625 -16.15625 L 8.328125 -19.390625 L 10.125 -17.59375 L 6.90625 -14.9375 Z M 5.65625 -16.15625 "/></g></g><g style="fill:#006aa6;fill-opacity:1;"><g transform="translate(74.176079, 27.857871)"><path style="stroke:none" d="M 0 -0.6875 L 5.234375 -14.203125 L 5.40625 -14.203125 L 9.203125 -8.515625 L 13.0625 -14.203125 L 13.234375 -14.203125 L 18.46875 -0.6875 L 13.578125 0.859375 L 11.828125 -4.8125 L 9.203125 -1.25 L 6.5 -4.8125 L 4.78125 0.859375 Z M 0 -0.6875 "/></g></g><g style="fill:#006aa6;fill-opacity:1;"><g transform="translate(92.652317, 27.857871)"><path style="stroke:none" d="M 9.453125 -13.515625 L 9.328125 -9.828125 L 5.046875 -9.828125 L 5.046875 -8.109375 L 8.5 -8.109375 L 8.359375 -5.15625 L 5.046875 -5.15625 L 5.046875 -3.6875 L 9.453125 -3.6875 L 9.328125 0 L 0.671875 0 L 0.671875 -13.515625 Z M 9.453125 -13.515625 "/></g></g><g style="fill:#006aa6;fill-opacity:1;"><g transform="translate(103.124348, 27.857871)"><path style="stroke:none" d="M 6.5625 -13.515625 C 7.28125 -13.515625 7.960938 -13.4375 8.609375 -13.28125 C 9.242188 -13.101562 9.804688 -12.84375 10.296875 -12.5 C 10.785156 -12.144531 11.171875 -11.691406 11.453125 -11.140625 C 11.722656 -10.566406 11.851562 -9.867188 11.84375 -9.046875 C 11.832031 -8.316406 11.71875 -7.664062 11.5 -7.09375 C 11.269531 -6.53125 10.851562 -6.019531 10.25 -5.5625 L 10.015625 -5.390625 L 12.234375 -1.484375 L 8.265625 0.421875 L 5.59375 -4.78125 L 5.390625 -4.765625 L 5.359375 0 L 0.984375 0 L 0.984375 -13.515625 Z M 5.359375 -9.890625 L 5.359375 -7.375 L 5.625 -7.375 C 5.820312 -7.375 6.03125 -7.382812 6.25 -7.40625 C 6.445312 -7.414062 6.640625 -7.457031 6.828125 -7.53125 C 7.035156 -7.601562 7.21875 -7.738281 7.375 -7.9375 C 7.53125 -8.125 7.609375 -8.375 7.609375 -8.6875 C 7.628906 -9 7.566406 -9.242188 7.421875 -9.421875 C 7.265625 -9.578125 7.085938 -9.691406 6.890625 -9.765625 C 6.742188 -9.816406 6.59375 -9.851562 6.4375 -9.875 C 6.28125 -9.882812 6.125 -9.890625 5.96875 -9.890625 Z M 5.359375 -9.890625 "/></g></g><g style="fill:#006aa6;fill-opacity:1;"><g transform="translate(115.44184, 27.857871)"><path style="stroke:none" d="M 2.203125 -1.96875 C 1.566406 -2.675781 1.113281 -3.414062 0.84375 -4.1875 C 0.5625 -4.945312 0.421875 -5.796875 0.421875 -6.734375 C 0.421875 -7.722656 0.601562 -8.640625 0.96875 -9.484375 C 1.320312 -10.328125 1.816406 -11.0625 2.453125 -11.6875 C 3.078125 -12.320312 3.816406 -12.816406 4.671875 -13.171875 C 5.515625 -13.523438 6.429688 -13.703125 7.421875 -13.703125 C 8.367188 -13.703125 9.242188 -13.566406 10.046875 -13.296875 C 10.835938 -13.015625 11.554688 -12.570312 12.203125 -11.96875 C 12.890625 -11.320312 13.4375 -10.550781 13.84375 -9.65625 C 14.226562 -8.738281 14.421875 -7.765625 14.421875 -6.734375 C 14.421875 -5.796875 14.285156 -4.945312 14.015625 -4.1875 C 13.734375 -3.414062 13.273438 -2.675781 12.640625 -1.96875 C 11.953125 -1.238281 11.15625 -0.695312 10.25 -0.34375 C 9.332031 0.0078125 8.382812 0.1875 7.40625 0.1875 C 6.40625 0.1875 5.46875 0.0078125 4.59375 -0.34375 C 3.707031 -0.6875 2.910156 -1.226562 2.203125 -1.96875 Z M 4.484375 -6.734375 C 4.484375 -6.304688 4.554688 -5.890625 4.703125 -5.484375 C 4.828125 -5.078125 5.019531 -4.722656 5.28125 -4.421875 C 5.519531 -4.109375 5.828125 -3.859375 6.203125 -3.671875 C 6.554688 -3.472656 6.960938 -3.375 7.421875 -3.375 C 7.878906 -3.375 8.296875 -3.472656 8.671875 -3.671875 C 9.023438 -3.859375 9.332031 -4.109375 9.59375 -4.421875 C 9.832031 -4.722656 10.023438 -5.078125 10.171875 -5.484375 C 10.296875 -5.890625 10.359375 -6.304688 10.359375 -6.734375 C 10.359375 -7.160156 10.296875 -7.582031 10.171875 -8 C 10.023438 -8.40625 9.832031 -8.769531 9.59375 -9.09375 C 9.332031 -9.40625 9.023438 -9.664062 8.671875 -9.875 C 8.296875 -10.070312 7.878906 -10.171875 7.421875 -10.171875 C 6.953125 -10.171875 6.535156 -10.078125 6.171875 -9.890625 C 5.804688 -9.691406 5.5 -9.4375 5.25 -9.125 C 5 -8.789062 4.804688 -8.414062 4.671875 -8 C 4.546875 -7.582031 4.484375 -7.160156 4.484375 -6.734375 Z M 4.484375 -6.734375 "/></g></g><g style="fill:#006aa6;fill-opacity:1;"><g transform="translate(130.2915, 27.857871)"><path style="stroke:none" d="M 6.265625 -13.765625 C 6.816406 -13.765625 7.390625 -13.695312 7.984375 -13.5625 C 8.554688 -13.414062 9.09375 -13.203125 9.59375 -12.921875 C 10.09375 -12.628906 10.523438 -12.269531 10.890625 -11.84375 C 11.265625 -11.414062 11.53125 -10.90625 11.6875 -10.3125 L 8.875 -8.53125 C 8.632812 -9.039062 8.269531 -9.4375 7.78125 -9.71875 C 7.300781 -10 6.78125 -10.15625 6.21875 -10.1875 L 5.828125 -10.1875 C 5.703125 -10.1875 5.566406 -10.179688 5.421875 -10.171875 C 5.265625 -10.140625 5.125 -10.097656 5 -10.046875 C 4.851562 -9.984375 4.738281 -9.898438 4.65625 -9.796875 C 4.570312 -9.703125 4.53125 -9.566406 4.53125 -9.390625 C 4.53125 -9.148438 4.632812 -8.972656 4.84375 -8.859375 C 5.050781 -8.734375 5.273438 -8.632812 5.515625 -8.5625 L 8.578125 -7.703125 C 9.078125 -7.554688 9.519531 -7.390625 9.90625 -7.203125 C 10.289062 -7.003906 10.617188 -6.769531 10.890625 -6.5 C 11.171875 -6.21875 11.378906 -5.878906 11.515625 -5.484375 C 11.660156 -5.085938 11.734375 -4.617188 11.734375 -4.078125 C 11.734375 -3.347656 11.578125 -2.703125 11.265625 -2.140625 C 10.929688 -1.585938 10.53125 -1.128906 10.0625 -0.765625 C 9.53125 -0.378906 8.953125 -0.117188 8.328125 0.015625 C 7.691406 0.171875 7.023438 0.25 6.328125 0.25 C 5.097656 0.25 3.960938 -0.00390625 2.921875 -0.515625 C 1.859375 -1.015625 1.003906 -1.800781 0.359375 -2.875 L 3.15625 -5 C 3.3125 -4.707031 3.507812 -4.457031 3.75 -4.25 C 3.976562 -4.03125 4.242188 -3.859375 4.546875 -3.734375 C 4.835938 -3.585938 5.144531 -3.476562 5.46875 -3.40625 C 5.78125 -3.332031 6.097656 -3.296875 6.421875 -3.296875 C 6.554688 -3.296875 6.703125 -3.3125 6.859375 -3.34375 C 7.003906 -3.363281 7.140625 -3.40625 7.265625 -3.46875 C 7.398438 -3.53125 7.507812 -3.613281 7.59375 -3.71875 C 7.675781 -3.8125 7.71875 -3.9375 7.71875 -4.09375 C 7.707031 -4.28125 7.640625 -4.429688 7.515625 -4.546875 C 7.367188 -4.648438 7.164062 -4.742188 6.90625 -4.828125 L 3.78125 -5.8125 C 3.332031 -5.957031 2.921875 -6.132812 2.546875 -6.34375 C 2.179688 -6.550781 1.867188 -6.800781 1.609375 -7.09375 C 1.335938 -7.382812 1.128906 -7.722656 0.984375 -8.109375 C 0.828125 -8.492188 0.75 -8.929688 0.75 -9.421875 C 0.78125 -10.179688 0.957031 -10.835938 1.28125 -11.390625 C 1.601562 -11.929688 2.019531 -12.382812 2.53125 -12.75 C 3.039062 -13.101562 3.628906 -13.363281 4.296875 -13.53125 C 4.929688 -13.6875 5.585938 -13.765625 6.265625 -13.765625 Z M 6.265625 -13.765625 "/></g></g></g></svg>