<svg xmlns="http://www.w3.org/2000/svg" xmlns:xlink="http://www.w3.org/1999/xlink" width="200" zoomAndPan="magnify" viewBox="0 0 150 44.999999" height="60" preserveAspectRatio="xMidYMid meet" version="1.2"><defs><clipPath id="2a6b90d6b8"><path d="M 49.226562 2.300781 L 100.765625 2.300781 L 100.765625 42.691406 L 49.226562 42.691406 Z M 49.226562 2.300781 "/></clipPath></defs><g id="409f107e95"><path style=" stroke:none;fill-rule:nonzero;fill:#194e92;fill-opacity:1;" d="M 53.753906 22.742188 C 53.359375 22.824219 53.410156 23.742188 53.996094 23.558594 C 54.039062 23.4375 54.117188 23.351562 54.160156 23.230469 C 54.160156 22.929688 53.875 22.917969 53.753906 22.742188 "/><path style=" stroke:none;fill-rule:nonzero;fill:#194e92;fill-opacity:1;" d="M 55.46875 23.230469 C 55.300781 23.609375 55.046875 23.898438 54.980469 24.375 C 55.050781 24.410156 55.125 24.449219 55.140625 24.539062 C 55.832031 24.496094 56.523438 23.195312 55.46875 23.230469 "/><g clip-rule="nonzero" clip-path="url(#2a6b90d6b8)"><path style=" stroke:none;fill-rule:nonzero;fill:#194e92;fill-opacity:1;" d="M 82.121094 39.253906 C 82.15625 35.847656 81.59375 32.535156 81.796875 29.691406 C 82.128906 29.710938 82.585938 29.609375 82.695312 29.851562 C 83.023438 33.449219 83.039062 37.796875 82.695312 41.300781 C 81.890625 40.988281 82.117188 39.960938 82.121094 39.253906 Z M 50.320312 28.546875 C 50.09375 24.578125 50.355469 19.933594 50.644531 15.628906 C 50.710938 14.636719 50.605469 13.925781 50.972656 13.335938 C 51.054688 13.339844 51.070312 13.269531 51.136719 13.257812 C 51.140625 13.207031 51.148438 13.160156 51.21875 13.175781 C 51.515625 18.039062 51.316406 24.085938 50.320312 28.546875 Z M 49.5 16.855469 C 49.265625 19.484375 49.335938 22.175781 49.335938 24.867188 C 49.335938 26.265625 49.039062 27.816406 49.417969 28.789062 C 50.097656 30.53125 52.15625 29.992188 54.652344 29.933594 C 63.382812 29.730469 73.011719 30.054688 80.734375 29.851562 C 80.949219 33.671875 81.210938 37.445312 81.304688 41.382812 C 81.660156 41.734375 82.710938 42.75 83.429688 42.6875 C 84.011719 42.640625 85.351562 40.695312 85.71875 40.238281 C 89.308594 35.773438 92.757812 31.945312 96.511719 27.644531 C 97.152344 26.914062 97.796875 26.039062 98.636719 25.109375 C 99.191406 24.5 100.734375 23.226562 100.765625 22.578125 C 100.789062 21.976562 99.738281 20.527344 99.128906 19.714844 C 97.175781 17.121094 95.039062 14.882812 93.242188 12.355469 C 90.488281 8.484375 88.054688 5.453125 85.148438 2.300781 C 84.40625 2.449219 83.929688 2.484375 83.1875 2.710938 C 81.515625 4.691406 82.019531 8.847656 81.386719 11.867188 C 72.617188 11.695312 63.15625 10.828125 54.078125 11.539062 C 52.191406 11.6875 50.566406 11.746094 49.992188 13.175781 C 49.625 14.085938 49.605469 15.691406 49.5 16.855469 Z M 84.171875 40.589844 C 84.160156 40.601562 84.152344 40.613281 84.144531 40.628906 C 84.132812 40.640625 84.125 40.652344 84.113281 40.664062 C 84.105469 40.675781 84.09375 40.6875 84.085938 40.699219 C 84.078125 40.710938 84.066406 40.726562 84.058594 40.738281 C 84.042969 40.753906 84.027344 40.769531 84.015625 40.789062 C 84.003906 40.800781 83.996094 40.808594 83.984375 40.820312 C 83.976562 40.832031 83.96875 40.84375 83.957031 40.851562 C 83.808594 41.011719 83.660156 41.109375 83.511719 41.054688 C 83.347656 37.058594 83.824219 33.226562 83.347656 29.035156 C 80.039062 28.609375 76.144531 28.867188 72.394531 28.953125 C 65.367188 29.113281 57.710938 28.558594 51.054688 29.035156 C 51.308594 25.9375 52.023438 22.644531 52.035156 19.304688 C 52.042969 17.039062 51.925781 14.761719 51.953125 12.683594 C 62.816406 11.824219 72.953125 12.484375 83.105469 12.929688 C 84.058594 9.921875 83.839844 6.164062 84.984375 3.445312 C 87.75 6.339844 90.121094 9.597656 92.507812 12.847656 C 94.84375 16.03125 97.804688 18.777344 99.621094 22.332031 C 94.84375 28.367188 89.347656 34.265625 84.492188 40.15625 C 84.476562 40.175781 84.460938 40.199219 84.441406 40.21875 C 84.433594 40.230469 84.425781 40.242188 84.417969 40.253906 C 84.40625 40.265625 84.398438 40.277344 84.390625 40.289062 C 84.371094 40.3125 84.355469 40.335938 84.335938 40.363281 C 84.332031 40.367188 84.328125 40.375 84.324219 40.382812 C 84.3125 40.394531 84.304688 40.40625 84.296875 40.417969 C 84.289062 40.425781 84.285156 40.429688 84.28125 40.4375 C 84.273438 40.449219 84.261719 40.460938 84.253906 40.476562 C 84.246094 40.488281 84.234375 40.5 84.226562 40.511719 C 84.21875 40.527344 84.207031 40.539062 84.199219 40.550781 C 84.1875 40.566406 84.179688 40.578125 84.171875 40.589844 Z M 84.003906 3.773438 C 83.542969 5.640625 83.28125 8.0625 83.023438 9.984375 C 82.917969 10.777344 82.898438 11.765625 82.367188 12.113281 C 82.160156 11.1875 82.570312 10.21875 82.695312 9.085938 C 82.925781 6.972656 82.800781 4.351562 83.921875 3.527344 L 84.085938 3.527344 C 84.074219 3.621094 84.097656 3.757812 84.003906 3.773438 "/></g><path style=" stroke:none;fill-rule:nonzero;fill:#194e92;fill-opacity:1;" d="M 86.78125 11.210938 C 86.605469 11.667969 87.074219 12.183594 87.601562 11.949219 C 87.652344 11.378906 87.292969 11.21875 86.78125 11.210938 "/><path style=" stroke:none;fill-rule:nonzero;fill:#194e92;fill-opacity:1;" d="M 87.355469 10.148438 C 87.226562 10.414062 87.410156 10.636719 87.519531 10.886719 L 87.925781 10.886719 C 88.148438 10.519531 87.914062 10 87.355469 10.148438 "/><g style="fill:#194e92;fill-opacity:1;"><g transform="translate(53.734376, 24.464615)"><path style="stroke:none" d="M 2.234375 -3.5 C 2.160156 -3.53125 2.09375 -3.566406 2.03125 -3.609375 C 1.96875 -3.660156 1.894531 -3.710938 1.8125 -3.765625 C 1.769531 -3.628906 1.726562 -3.503906 1.6875 -3.390625 C 1.644531 -3.273438 1.609375 -3.160156 1.578125 -3.046875 C 1.515625 -2.828125 1.445312 -2.601562 1.375 -2.375 C 1.3125 -2.144531 1.25 -1.921875 1.1875 -1.703125 C 1.164062 -1.617188 1.144531 -1.53125 1.125 -1.4375 C 1.101562 -1.351562 1.085938 -1.269531 1.078125 -1.1875 C 1.078125 -1.007812 1.039062 -0.847656 0.96875 -0.703125 C 0.894531 -0.554688 0.816406 -0.40625 0.734375 -0.25 C 0.722656 -0.21875 0.695312 -0.1875 0.65625 -0.15625 C 0.625 -0.125 0.59375 -0.09375 0.5625 -0.0625 C 0.5 -0.0078125 0.429688 0.0078125 0.359375 0 C 0.285156 -0.0195312 0.21875 -0.0625 0.15625 -0.125 C 0.0703125 -0.207031 0.0234375 -0.296875 0.015625 -0.390625 C 0.00390625 -0.484375 0.00390625 -0.582031 0.015625 -0.6875 C 0.078125 -1.15625 0.15625 -1.617188 0.25 -2.078125 C 0.351562 -2.546875 0.460938 -3.007812 0.578125 -3.46875 C 0.679688 -3.894531 0.785156 -4.316406 0.890625 -4.734375 C 0.992188 -5.148438 1.109375 -5.566406 1.234375 -5.984375 C 1.304688 -6.242188 1.382812 -6.5 1.46875 -6.75 C 1.5625 -7 1.65625 -7.242188 1.75 -7.484375 C 1.820312 -7.660156 1.910156 -7.773438 2.015625 -7.828125 C 2.117188 -7.890625 2.265625 -7.921875 2.453125 -7.921875 C 2.691406 -7.921875 2.925781 -7.925781 3.15625 -7.9375 C 3.394531 -7.957031 3.625 -7.96875 3.84375 -7.96875 C 4.007812 -7.96875 4.175781 -7.96875 4.34375 -7.96875 C 4.519531 -7.96875 4.691406 -7.957031 4.859375 -7.9375 C 5.046875 -7.925781 5.207031 -7.875 5.34375 -7.78125 C 5.488281 -7.6875 5.617188 -7.5625 5.734375 -7.40625 C 5.972656 -7.070312 6.113281 -6.734375 6.15625 -6.390625 C 6.195312 -6.046875 6.164062 -5.71875 6.0625 -5.40625 C 5.957031 -5.09375 5.8125 -4.8125 5.625 -4.5625 C 5.28125 -4.082031 4.859375 -3.738281 4.359375 -3.53125 C 3.867188 -3.332031 3.320312 -3.257812 2.71875 -3.3125 C 2.632812 -3.320312 2.550781 -3.34375 2.46875 -3.375 C 2.394531 -3.414062 2.316406 -3.457031 2.234375 -3.5 Z M 2.578125 -6.96875 C 2.460938 -6.570312 2.347656 -6.175781 2.234375 -5.78125 C 2.117188 -5.382812 2.023438 -4.972656 1.953125 -4.546875 C 2.035156 -4.515625 2.109375 -4.492188 2.171875 -4.484375 C 2.234375 -4.472656 2.285156 -4.453125 2.328125 -4.421875 C 2.484375 -4.296875 2.648438 -4.226562 2.828125 -4.21875 C 3.015625 -4.21875 3.203125 -4.210938 3.390625 -4.203125 C 3.734375 -4.203125 4.035156 -4.285156 4.296875 -4.453125 C 4.566406 -4.617188 4.78125 -4.835938 4.9375 -5.109375 C 5.101562 -5.378906 5.210938 -5.660156 5.265625 -5.953125 C 5.285156 -6.117188 5.269531 -6.269531 5.21875 -6.40625 C 5.164062 -6.550781 5.085938 -6.6875 4.984375 -6.8125 C 4.898438 -6.914062 4.800781 -6.976562 4.6875 -7 C 4.570312 -7.019531 4.445312 -7.03125 4.3125 -7.03125 C 4.21875 -7.03125 4.117188 -7.03125 4.015625 -7.03125 C 3.921875 -7.039062 3.820312 -7.046875 3.71875 -7.046875 C 3.53125 -7.046875 3.34375 -7.046875 3.15625 -7.046875 C 2.96875 -7.046875 2.773438 -7.019531 2.578125 -6.96875 Z M 2.578125 -6.96875 "/></g></g><g style="fill:#194e92;fill-opacity:1;"><g transform="translate(59.680049, 24.464615)"><path style="stroke:none" d="M 4.390625 -3.765625 C 4.304688 -3.722656 4.21875 -3.679688 4.125 -3.640625 C 4.03125 -3.609375 3.929688 -3.578125 3.828125 -3.546875 C 3.847656 -3.460938 3.863281 -3.390625 3.875 -3.328125 C 3.894531 -3.265625 3.914062 -3.203125 3.9375 -3.140625 C 4.09375 -2.765625 4.25 -2.382812 4.40625 -2 C 4.5625 -1.625 4.71875 -1.242188 4.875 -0.859375 C 4.894531 -0.804688 4.910156 -0.742188 4.921875 -0.671875 C 4.941406 -0.609375 4.953125 -0.546875 4.953125 -0.484375 C 4.972656 -0.285156 4.882812 -0.144531 4.6875 -0.0625 C 4.601562 -0.03125 4.515625 -0.015625 4.421875 -0.015625 C 4.335938 -0.0234375 4.257812 -0.0664062 4.1875 -0.140625 C 4.132812 -0.203125 4.082031 -0.265625 4.03125 -0.328125 C 3.988281 -0.390625 3.957031 -0.457031 3.9375 -0.53125 C 3.875 -0.644531 3.816406 -0.765625 3.765625 -0.890625 C 3.722656 -1.015625 3.679688 -1.140625 3.640625 -1.265625 C 3.503906 -1.617188 3.375 -1.972656 3.25 -2.328125 C 3.125 -2.679688 3 -3.035156 2.875 -3.390625 L 1.65625 -3.59375 C 1.644531 -3.582031 1.625 -3.566406 1.59375 -3.546875 C 1.570312 -3.523438 1.554688 -3.5 1.546875 -3.46875 C 1.472656 -3.207031 1.398438 -2.941406 1.328125 -2.671875 C 1.265625 -2.398438 1.195312 -2.132812 1.125 -1.875 C 1.0625 -1.644531 0.992188 -1.414062 0.921875 -1.1875 C 0.859375 -0.96875 0.796875 -0.75 0.734375 -0.53125 C 0.734375 -0.5 0.722656 -0.46875 0.703125 -0.4375 C 0.691406 -0.40625 0.679688 -0.375 0.671875 -0.34375 C 0.628906 -0.269531 0.578125 -0.195312 0.515625 -0.125 C 0.460938 -0.0507812 0.382812 -0.0195312 0.28125 -0.03125 C 0.1875 -0.0390625 0.0976562 -0.0859375 0.015625 -0.171875 C -0.0664062 -0.265625 -0.109375 -0.367188 -0.109375 -0.484375 C -0.109375 -0.585938 -0.109375 -0.691406 -0.109375 -0.796875 C -0.109375 -0.898438 -0.09375 -0.992188 -0.0625 -1.078125 C 0.1875 -1.773438 0.390625 -2.476562 0.546875 -3.1875 C 0.703125 -3.90625 0.878906 -4.613281 1.078125 -5.3125 C 1.179688 -5.664062 1.289062 -6.019531 1.40625 -6.375 C 1.519531 -6.738281 1.632812 -7.097656 1.75 -7.453125 C 1.820312 -7.648438 1.894531 -7.769531 1.96875 -7.8125 C 2.039062 -7.851562 2.179688 -7.875 2.390625 -7.875 C 2.585938 -7.875 2.785156 -7.875 2.984375 -7.875 C 3.191406 -7.875 3.390625 -7.890625 3.578125 -7.921875 C 3.804688 -7.960938 4.023438 -7.960938 4.234375 -7.921875 C 4.453125 -7.878906 4.664062 -7.832031 4.875 -7.78125 C 5.0625 -7.738281 5.21875 -7.65625 5.34375 -7.53125 C 5.46875 -7.40625 5.578125 -7.265625 5.671875 -7.109375 C 6.109375 -6.316406 6.113281 -5.535156 5.6875 -4.765625 C 5.550781 -4.523438 5.367188 -4.320312 5.140625 -4.15625 C 4.910156 -4 4.660156 -3.867188 4.390625 -3.765625 Z M 2.390625 -7 C 2.296875 -6.613281 2.195312 -6.222656 2.09375 -5.828125 C 2 -5.429688 1.898438 -5.015625 1.796875 -4.578125 C 1.898438 -4.546875 1.984375 -4.515625 2.046875 -4.484375 C 2.109375 -4.453125 2.171875 -4.429688 2.234375 -4.421875 C 2.660156 -4.367188 3.066406 -4.378906 3.453125 -4.453125 C 3.847656 -4.523438 4.222656 -4.675781 4.578125 -4.90625 C 4.710938 -4.988281 4.816406 -5.097656 4.890625 -5.234375 C 4.972656 -5.367188 5.035156 -5.507812 5.078125 -5.65625 C 5.160156 -6.007812 5.109375 -6.328125 4.921875 -6.609375 C 4.742188 -6.898438 4.476562 -7.070312 4.125 -7.125 C 3.84375 -7.15625 3.554688 -7.164062 3.265625 -7.15625 C 2.984375 -7.144531 2.691406 -7.09375 2.390625 -7 Z M 2.390625 -7 "/></g></g><g style="fill:#194e92;fill-opacity:1;"><g transform="translate(65.899086, 24.464615)"><path style="stroke:none" d="M 4.1875 -8.453125 C 4.15625 -8.441406 4.113281 -8.441406 4.0625 -8.453125 C 4.019531 -8.460938 3.988281 -8.484375 3.96875 -8.515625 C 3.9375 -8.546875 3.914062 -8.585938 3.90625 -8.640625 C 3.894531 -8.691406 3.890625 -8.734375 3.890625 -8.765625 C 4.054688 -9.046875 4.25 -9.296875 4.46875 -9.515625 C 4.695312 -9.742188 4.960938 -9.925781 5.265625 -10.0625 C 5.390625 -10.125 5.5 -10.117188 5.59375 -10.046875 C 5.6875 -9.984375 5.757812 -9.890625 5.8125 -9.765625 C 5.800781 -9.660156 5.765625 -9.578125 5.703125 -9.515625 C 5.640625 -9.453125 5.570312 -9.394531 5.5 -9.34375 C 5.34375 -9.21875 5.179688 -9.097656 5.015625 -8.984375 C 4.859375 -8.867188 4.703125 -8.753906 4.546875 -8.640625 C 4.441406 -8.554688 4.320312 -8.492188 4.1875 -8.453125 Z M 5.578125 -7.671875 C 5.960938 -7.234375 6.207031 -6.75 6.3125 -6.21875 C 6.425781 -5.695312 6.484375 -5.125 6.484375 -4.5 C 6.421875 -3.695312 6.203125 -2.953125 5.828125 -2.265625 C 5.460938 -1.578125 4.929688 -0.972656 4.234375 -0.453125 C 4.035156 -0.304688 3.820312 -0.191406 3.59375 -0.109375 C 3.363281 -0.0234375 3.125 0.00390625 2.875 -0.015625 C 2.601562 -0.046875 2.347656 -0.109375 2.109375 -0.203125 C 1.878906 -0.304688 1.660156 -0.457031 1.453125 -0.65625 C 1.160156 -0.957031 0.9375 -1.285156 0.78125 -1.640625 C 0.632812 -1.992188 0.539062 -2.375 0.5 -2.78125 C 0.40625 -3.769531 0.523438 -4.671875 0.859375 -5.484375 C 1.191406 -6.296875 1.738281 -7.023438 2.5 -7.671875 C 2.613281 -7.765625 2.738281 -7.847656 2.875 -7.921875 C 3.007812 -8.003906 3.144531 -8.085938 3.28125 -8.171875 C 3.507812 -8.285156 3.769531 -8.335938 4.0625 -8.328125 C 4.363281 -8.316406 4.648438 -8.253906 4.921875 -8.140625 C 5.203125 -8.023438 5.421875 -7.867188 5.578125 -7.671875 Z M 5.4375 -4.46875 C 5.519531 -4.863281 5.53125 -5.25 5.46875 -5.625 C 5.40625 -6 5.300781 -6.363281 5.15625 -6.71875 C 5.09375 -6.851562 5.007812 -6.988281 4.90625 -7.125 C 4.832031 -7.21875 4.742188 -7.296875 4.640625 -7.359375 C 4.535156 -7.429688 4.421875 -7.460938 4.296875 -7.453125 C 4.078125 -7.441406 3.863281 -7.410156 3.65625 -7.359375 C 3.457031 -7.316406 3.269531 -7.234375 3.09375 -7.109375 C 2.925781 -6.984375 2.769531 -6.84375 2.625 -6.6875 C 2.476562 -6.539062 2.347656 -6.378906 2.234375 -6.203125 C 1.960938 -5.765625 1.75 -5.316406 1.59375 -4.859375 C 1.4375 -4.398438 1.367188 -3.914062 1.390625 -3.40625 C 1.347656 -3 1.382812 -2.617188 1.5 -2.265625 C 1.613281 -1.921875 1.8125 -1.609375 2.09375 -1.328125 C 2.28125 -1.128906 2.5 -1.003906 2.75 -0.953125 C 2.976562 -0.890625 3.179688 -0.894531 3.359375 -0.96875 C 3.546875 -1.050781 3.710938 -1.15625 3.859375 -1.28125 C 4.085938 -1.457031 4.289062 -1.660156 4.46875 -1.890625 C 4.644531 -2.117188 4.789062 -2.363281 4.90625 -2.625 C 5.050781 -2.914062 5.15625 -3.21875 5.21875 -3.53125 C 5.28125 -3.84375 5.351562 -4.15625 5.4375 -4.46875 Z M 5.4375 -4.46875 "/></g></g><g style="fill:#194e92;fill-opacity:1;"><g transform="translate(72.767363, 24.464615)"><path style="stroke:none" d="M 3.046875 -2.578125 C 3.003906 -2.691406 2.957031 -2.804688 2.90625 -2.921875 C 2.863281 -3.046875 2.8125 -3.1875 2.75 -3.34375 C 2.664062 -3.25 2.59375 -3.171875 2.53125 -3.109375 C 2.46875 -3.054688 2.414062 -3 2.375 -2.9375 L 0.515625 -0.515625 C 0.410156 -0.378906 0.300781 -0.253906 0.1875 -0.140625 C 0.0703125 -0.0351562 -0.0664062 0.0234375 -0.234375 0.046875 C -0.359375 -0.015625 -0.441406 -0.0976562 -0.484375 -0.203125 C -0.535156 -0.304688 -0.578125 -0.414062 -0.609375 -0.53125 C -0.410156 -0.894531 -0.1875 -1.242188 0.0625 -1.578125 C 0.3125 -1.910156 0.5625 -2.242188 0.8125 -2.578125 C 1.050781 -2.910156 1.304688 -3.234375 1.578125 -3.546875 C 1.847656 -3.859375 2.113281 -4.179688 2.375 -4.515625 C 2.289062 -4.828125 2.195312 -5.132812 2.09375 -5.4375 C 2 -5.738281 1.90625 -6.039062 1.8125 -6.34375 C 1.757812 -6.519531 1.703125 -6.695312 1.640625 -6.875 C 1.578125 -7.050781 1.523438 -7.234375 1.484375 -7.421875 C 1.421875 -7.703125 1.53125 -7.894531 1.8125 -8 C 1.957031 -8.0625 2.078125 -8.03125 2.171875 -7.90625 C 2.253906 -7.769531 2.335938 -7.613281 2.421875 -7.4375 C 2.503906 -7.226562 2.578125 -7.019531 2.640625 -6.8125 C 2.710938 -6.601562 2.789062 -6.394531 2.875 -6.1875 C 2.914062 -6.082031 2.957031 -5.96875 3 -5.84375 C 3.050781 -5.726562 3.101562 -5.609375 3.15625 -5.484375 C 3.207031 -5.515625 3.253906 -5.535156 3.296875 -5.546875 C 3.335938 -5.554688 3.375 -5.578125 3.40625 -5.609375 C 3.59375 -5.796875 3.773438 -5.984375 3.953125 -6.171875 C 4.140625 -6.359375 4.328125 -6.550781 4.515625 -6.75 C 4.671875 -6.90625 4.828125 -7.0625 4.984375 -7.21875 C 5.148438 -7.375 5.3125 -7.523438 5.46875 -7.671875 C 5.507812 -7.703125 5.539062 -7.726562 5.5625 -7.75 C 5.59375 -7.78125 5.628906 -7.8125 5.671875 -7.84375 C 5.753906 -7.894531 5.84375 -7.910156 5.9375 -7.890625 C 6.03125 -7.878906 6.101562 -7.84375 6.15625 -7.78125 C 6.300781 -7.625 6.300781 -7.460938 6.15625 -7.296875 C 6.007812 -7.117188 5.859375 -6.941406 5.703125 -6.765625 C 5.546875 -6.585938 5.390625 -6.410156 5.234375 -6.234375 C 5.003906 -5.960938 4.769531 -5.6875 4.53125 -5.40625 C 4.289062 -5.132812 4.046875 -4.867188 3.796875 -4.609375 C 3.609375 -4.410156 3.566406 -4.1875 3.671875 -3.9375 C 3.835938 -3.507812 4 -3.078125 4.15625 -2.640625 C 4.320312 -2.210938 4.484375 -1.773438 4.640625 -1.328125 C 4.679688 -1.234375 4.710938 -1.128906 4.734375 -1.015625 C 4.765625 -0.910156 4.789062 -0.800781 4.8125 -0.6875 C 4.84375 -0.539062 4.78125 -0.410156 4.625 -0.296875 C 4.46875 -0.191406 4.320312 -0.1875 4.1875 -0.28125 C 4.070312 -0.363281 3.972656 -0.46875 3.890625 -0.59375 C 3.816406 -0.71875 3.75 -0.847656 3.6875 -0.984375 C 3.582031 -1.242188 3.476562 -1.503906 3.375 -1.765625 C 3.269531 -2.035156 3.160156 -2.304688 3.046875 -2.578125 Z M 3.046875 -2.578125 "/></g></g><g style="fill:#194e92;fill-opacity:1;"><g transform="translate(78.701644, 24.464615)"><path style="stroke:none" d="M 0.03125 -0.109375 C -0.101562 -0.160156 -0.160156 -0.3125 -0.140625 -0.5625 C -0.140625 -0.570312 -0.132812 -0.597656 -0.125 -0.640625 C -0.113281 -0.679688 -0.109375 -0.726562 -0.109375 -0.78125 C 0.00390625 -1.226562 0.117188 -1.679688 0.234375 -2.140625 C 0.359375 -2.609375 0.484375 -3.070312 0.609375 -3.53125 C 0.734375 -3.988281 0.863281 -4.441406 1 -4.890625 C 1.132812 -5.347656 1.265625 -5.8125 1.390625 -6.28125 C 1.441406 -6.445312 1.488281 -6.617188 1.53125 -6.796875 C 1.582031 -6.984375 1.632812 -7.171875 1.6875 -7.359375 C 1.707031 -7.484375 1.738281 -7.585938 1.78125 -7.671875 C 1.820312 -7.753906 1.890625 -7.8125 1.984375 -7.84375 C 2.085938 -7.882812 2.175781 -7.894531 2.25 -7.875 C 2.320312 -7.851562 2.382812 -7.800781 2.4375 -7.71875 C 2.488281 -7.632812 2.503906 -7.546875 2.484375 -7.453125 C 2.453125 -7.265625 2.414062 -7.078125 2.375 -6.890625 C 2.34375 -6.710938 2.296875 -6.53125 2.234375 -6.34375 C 1.953125 -5.457031 1.710938 -4.5625 1.515625 -3.65625 C 1.316406 -2.75 1.082031 -1.851562 0.8125 -0.96875 C 0.789062 -0.882812 0.765625 -0.800781 0.734375 -0.71875 C 0.703125 -0.632812 0.675781 -0.550781 0.65625 -0.46875 C 0.625 -0.40625 0.585938 -0.34375 0.546875 -0.28125 C 0.492188 -0.195312 0.414062 -0.140625 0.3125 -0.109375 C 0.207031 -0.078125 0.113281 -0.078125 0.03125 -0.109375 Z M 0.03125 -0.109375 "/></g></g><g style="fill:#194e92;fill-opacity:1;"><g transform="translate(81.059412, 24.464615)"><path style="stroke:none" d="M 2.171875 -5.53125 C 2.078125 -5.175781 1.988281 -4.820312 1.90625 -4.46875 C 1.820312 -4.113281 1.734375 -3.757812 1.640625 -3.40625 C 1.585938 -3.164062 1.523438 -2.929688 1.453125 -2.703125 C 1.390625 -2.472656 1.328125 -2.238281 1.265625 -2 C 1.191406 -1.75 1.125 -1.503906 1.0625 -1.265625 C 1 -1.023438 0.9375 -0.78125 0.875 -0.53125 C 0.8125 -0.269531 0.640625 -0.117188 0.359375 -0.078125 C 0.234375 -0.0664062 0.128906 -0.0859375 0.046875 -0.140625 C -0.0351562 -0.203125 -0.0703125 -0.300781 -0.0625 -0.4375 C -0.0507812 -0.644531 -0.03125 -0.851562 0 -1.0625 C 0.0195312 -1.269531 0.0546875 -1.476562 0.109375 -1.6875 C 0.421875 -2.882812 0.742188 -4.082031 1.078125 -5.28125 C 1.179688 -5.644531 1.289062 -6.003906 1.40625 -6.359375 C 1.519531 -6.710938 1.632812 -7.066406 1.75 -7.421875 C 1.769531 -7.503906 1.800781 -7.578125 1.84375 -7.640625 C 1.882812 -7.703125 1.921875 -7.769531 1.953125 -7.84375 C 1.992188 -7.863281 2.035156 -7.875 2.078125 -7.875 C 2.128906 -7.882812 2.171875 -7.890625 2.203125 -7.890625 C 2.367188 -7.890625 2.492188 -7.878906 2.578125 -7.859375 C 2.671875 -7.835938 2.738281 -7.785156 2.78125 -7.703125 C 2.820312 -7.628906 2.863281 -7.515625 2.90625 -7.359375 C 3.03125 -6.835938 3.148438 -6.316406 3.265625 -5.796875 C 3.378906 -5.285156 3.5 -4.773438 3.625 -4.265625 C 3.65625 -4.128906 3.679688 -3.992188 3.703125 -3.859375 C 3.722656 -3.734375 3.75 -3.601562 3.78125 -3.46875 C 3.789062 -3.4375 3.804688 -3.398438 3.828125 -3.359375 C 3.859375 -3.316406 3.890625 -3.269531 3.921875 -3.21875 C 4.046875 -3.351562 4.148438 -3.488281 4.234375 -3.625 C 4.328125 -3.769531 4.421875 -3.910156 4.515625 -4.046875 C 4.828125 -4.535156 5.140625 -5.023438 5.453125 -5.515625 C 5.773438 -6.015625 6.09375 -6.507812 6.40625 -7 C 6.46875 -7.082031 6.535156 -7.164062 6.609375 -7.25 C 6.679688 -7.34375 6.75 -7.4375 6.8125 -7.53125 C 6.945312 -7.738281 7.109375 -7.847656 7.296875 -7.859375 C 7.492188 -7.867188 7.691406 -7.863281 7.890625 -7.84375 C 7.972656 -7.84375 8.035156 -7.804688 8.078125 -7.734375 C 8.128906 -7.671875 8.160156 -7.597656 8.171875 -7.515625 C 8.179688 -7.453125 8.179688 -7.382812 8.171875 -7.3125 C 8.171875 -7.25 8.164062 -7.1875 8.15625 -7.125 C 8.113281 -6.875 8.0625 -6.625 8 -6.375 C 7.945312 -6.125 7.898438 -5.875 7.859375 -5.625 C 7.785156 -5.25 7.710938 -4.878906 7.640625 -4.515625 C 7.578125 -4.148438 7.519531 -3.78125 7.46875 -3.40625 C 7.414062 -2.945312 7.34375 -2.5 7.25 -2.0625 C 7.15625 -1.625 7.046875 -1.179688 6.921875 -0.734375 C 6.878906 -0.566406 6.796875 -0.410156 6.671875 -0.265625 C 6.546875 -0.0976562 6.367188 -0.0507812 6.140625 -0.125 C 6.078125 -0.144531 6.019531 -0.175781 5.96875 -0.21875 C 5.914062 -0.257812 5.882812 -0.320312 5.875 -0.40625 C 5.863281 -0.488281 5.859375 -0.570312 5.859375 -0.65625 C 5.859375 -0.75 5.859375 -0.832031 5.859375 -0.90625 C 5.929688 -1.269531 6.003906 -1.628906 6.078125 -1.984375 C 6.160156 -2.347656 6.234375 -2.707031 6.296875 -3.0625 C 6.367188 -3.382812 6.429688 -3.707031 6.484375 -4.03125 C 6.546875 -4.363281 6.601562 -4.691406 6.65625 -5.015625 C 6.6875 -5.140625 6.710938 -5.265625 6.734375 -5.390625 C 6.765625 -5.515625 6.800781 -5.671875 6.84375 -5.859375 C 6.757812 -5.773438 6.691406 -5.707031 6.640625 -5.65625 C 6.585938 -5.613281 6.546875 -5.570312 6.515625 -5.53125 C 6.390625 -5.300781 6.257812 -5.066406 6.125 -4.828125 C 6 -4.585938 5.867188 -4.359375 5.734375 -4.140625 C 5.566406 -3.859375 5.398438 -3.582031 5.234375 -3.3125 C 5.066406 -3.039062 4.890625 -2.769531 4.703125 -2.5 C 4.585938 -2.34375 4.460938 -2.1875 4.328125 -2.03125 C 4.203125 -1.882812 4.070312 -1.738281 3.9375 -1.59375 C 3.820312 -1.46875 3.691406 -1.414062 3.546875 -1.4375 C 3.410156 -1.457031 3.300781 -1.539062 3.21875 -1.6875 C 3.132812 -1.8125 3.0625 -1.945312 3 -2.09375 C 2.945312 -2.25 2.898438 -2.398438 2.859375 -2.546875 C 2.785156 -2.898438 2.710938 -3.253906 2.640625 -3.609375 C 2.578125 -3.972656 2.515625 -4.332031 2.453125 -4.6875 C 2.429688 -4.832031 2.40625 -4.972656 2.375 -5.109375 C 2.34375 -5.242188 2.3125 -5.382812 2.28125 -5.53125 Z M 2.171875 -5.53125 "/></g></g><g style="fill:#194e92;fill-opacity:1;"><g transform="translate(89.408412, 24.464615)"><path style="stroke:none" d="M 5.53125 -7.5 C 5.90625 -7.050781 6.148438 -6.5625 6.265625 -6.03125 C 6.378906 -5.5 6.4375 -4.925781 6.4375 -4.3125 C 6.375 -3.507812 6.15625 -2.765625 5.78125 -2.078125 C 5.414062 -1.390625 4.882812 -0.785156 4.1875 -0.265625 C 3.988281 -0.117188 3.773438 -0.00390625 3.546875 0.078125 C 3.328125 0.160156 3.085938 0.1875 2.828125 0.15625 C 2.554688 0.125 2.300781 0.0625 2.0625 -0.03125 C 1.820312 -0.125 1.601562 -0.269531 1.40625 -0.46875 C 1.101562 -0.769531 0.875 -1.097656 0.71875 -1.453125 C 0.570312 -1.804688 0.476562 -2.1875 0.4375 -2.59375 C 0.34375 -3.59375 0.46875 -4.492188 0.8125 -5.296875 C 1.15625 -6.109375 1.703125 -6.835938 2.453125 -7.484375 C 2.566406 -7.578125 2.6875 -7.664062 2.8125 -7.75 C 2.945312 -7.832031 3.082031 -7.910156 3.21875 -7.984375 C 3.445312 -8.109375 3.707031 -8.164062 4 -8.15625 C 4.300781 -8.144531 4.59375 -8.082031 4.875 -7.96875 C 5.15625 -7.851562 5.375 -7.695312 5.53125 -7.5 Z M 2.171875 -6.015625 C 1.910156 -5.578125 1.703125 -5.125 1.546875 -4.65625 C 1.390625 -4.195312 1.320312 -3.71875 1.34375 -3.21875 C 1.300781 -2.8125 1.335938 -2.429688 1.453125 -2.078125 C 1.566406 -1.734375 1.757812 -1.414062 2.03125 -1.125 C 2.21875 -0.925781 2.445312 -0.800781 2.71875 -0.75 C 2.9375 -0.707031 3.132812 -0.722656 3.3125 -0.796875 C 3.488281 -0.867188 3.648438 -0.960938 3.796875 -1.078125 C 4.023438 -1.265625 4.226562 -1.472656 4.40625 -1.703125 C 4.582031 -1.929688 4.734375 -2.175781 4.859375 -2.4375 C 4.992188 -2.726562 5.097656 -3.03125 5.171875 -3.34375 C 5.242188 -3.65625 5.3125 -3.96875 5.375 -4.28125 C 5.46875 -4.6875 5.476562 -5.070312 5.40625 -5.4375 C 5.34375 -5.800781 5.238281 -6.164062 5.09375 -6.53125 C 5.03125 -6.675781 4.953125 -6.8125 4.859375 -6.9375 C 4.773438 -7.03125 4.679688 -7.109375 4.578125 -7.171875 C 4.484375 -7.242188 4.367188 -7.273438 4.234375 -7.265625 C 4.023438 -7.253906 3.816406 -7.226562 3.609375 -7.1875 C 3.398438 -7.144531 3.210938 -7.054688 3.046875 -6.921875 C 2.878906 -6.804688 2.71875 -6.671875 2.5625 -6.515625 C 2.414062 -6.359375 2.285156 -6.191406 2.171875 -6.015625 Z M 2.171875 -6.015625 "/></g></g></g></svg>