<svg xmlns="http://www.w3.org/2000/svg" xmlns:xlink="http://www.w3.org/1999/xlink" width="200" zoomAndPan="magnify" viewBox="0 0 150 44.999999" height="60" preserveAspectRatio="xMidYMid meet" version="1.2"><defs><clipPath id="eef60b96a1"><path d="M 43.9375 2.667969 L 94.1875 2.667969 L 94.1875 42.046875 L 43.9375 42.046875 Z M 43.9375 2.667969 "/></clipPath></defs><g id="49d1291007"><path style=" stroke:none;fill-rule:nonzero;fill:#194e92;fill-opacity:1;" d="M 89.773438 22.597656 C 90.160156 22.675781 90.109375 23.574219 89.535156 23.394531 C 89.492188 23.277344 89.417969 23.191406 89.375 23.074219 C 89.375 22.78125 89.65625 22.769531 89.773438 22.597656 "/><path style=" stroke:none;fill-rule:nonzero;fill:#194e92;fill-opacity:1;" d="M 88.097656 23.074219 C 88.261719 23.441406 88.511719 23.722656 88.578125 24.191406 C 88.507812 24.226562 88.433594 24.261719 88.417969 24.351562 C 87.746094 24.308594 87.070312 23.042969 88.097656 23.074219 "/><g clip-rule="nonzero" clip-path="url(#eef60b96a1)"><path style=" stroke:none;fill-rule:nonzero;fill:#194e92;fill-opacity:1;" d="M 62.113281 38.699219 C 62.078125 35.375 62.628906 32.144531 62.433594 29.371094 C 62.105469 29.390625 61.664062 29.292969 61.554688 29.53125 C 61.238281 33.039062 61.222656 37.273438 61.554688 40.691406 C 62.339844 40.390625 62.121094 39.386719 62.113281 38.699219 Z M 93.121094 28.257812 C 93.339844 24.386719 93.082031 19.863281 92.800781 15.660156 C 92.738281 14.699219 92.84375 14 92.484375 13.429688 C 92.40625 13.429688 92.386719 13.363281 92.324219 13.351562 C 92.320312 13.300781 92.3125 13.253906 92.246094 13.269531 C 91.957031 18.015625 92.148438 23.910156 93.121094 28.257812 Z M 93.917969 16.855469 C 94.148438 19.421875 94.078125 22.046875 94.078125 24.667969 C 94.078125 26.035156 94.367188 27.546875 94 28.496094 C 93.335938 30.191406 91.328125 29.667969 88.898438 29.609375 C 80.382812 29.410156 70.996094 29.726562 63.46875 29.53125 C 63.257812 33.253906 63.003906 36.929688 62.910156 40.769531 C 62.566406 41.117188 61.539062 42.105469 60.839844 42.046875 C 60.273438 41.996094 58.964844 40.101562 58.605469 39.65625 C 55.105469 35.304688 51.742188 31.570312 48.085938 27.378906 C 47.460938 26.667969 46.832031 25.8125 46.011719 24.90625 C 45.472656 24.3125 43.964844 23.070312 43.9375 22.4375 C 43.914062 21.851562 44.9375 20.4375 45.535156 19.648438 C 47.4375 17.117188 49.519531 14.933594 51.273438 12.472656 C 53.957031 8.699219 56.328125 5.742188 59.164062 2.667969 C 59.886719 2.816406 60.351562 2.847656 61.078125 3.066406 C 62.707031 5 62.214844 9.050781 62.832031 11.996094 C 71.382812 11.828125 80.605469 10.984375 89.453125 11.675781 C 91.292969 11.820312 92.882812 11.878906 93.441406 13.269531 C 93.796875 14.160156 93.816406 15.726562 93.917969 16.855469 Z M 60.117188 40 C 60.125 40.011719 60.136719 40.023438 60.144531 40.035156 C 60.152344 40.046875 60.164062 40.058594 60.171875 40.070312 C 60.179688 40.082031 60.191406 40.09375 60.199219 40.105469 C 60.207031 40.117188 60.21875 40.128906 60.226562 40.140625 C 60.242188 40.160156 60.253906 40.175781 60.269531 40.191406 C 60.277344 40.203125 60.289062 40.214844 60.296875 40.222656 C 60.304688 40.234375 60.316406 40.246094 60.324219 40.253906 C 60.46875 40.410156 60.617188 40.507812 60.757812 40.453125 C 60.917969 36.554688 60.453125 32.820312 60.917969 28.734375 C 64.144531 28.320312 67.941406 28.570312 71.597656 28.65625 C 78.449219 28.8125 85.914062 28.269531 92.40625 28.734375 C 92.15625 25.714844 91.457031 22.503906 91.449219 19.25 C 91.441406 17.035156 91.554688 14.820312 91.527344 12.792969 C 80.9375 11.957031 71.054688 12.597656 61.15625 13.03125 C 60.226562 10.097656 60.441406 6.4375 59.324219 3.785156 C 56.628906 6.609375 54.316406 9.78125 51.988281 12.949219 C 49.710938 16.054688 46.824219 18.734375 45.054688 22.199219 C 49.710938 28.082031 55.066406 33.832031 59.800781 39.574219 C 59.820312 39.59375 59.835938 39.617188 59.851562 39.636719 C 59.859375 39.648438 59.867188 39.660156 59.878906 39.671875 C 59.886719 39.683594 59.894531 39.695312 59.902344 39.707031 C 59.921875 39.730469 59.9375 39.753906 59.957031 39.777344 C 59.960938 39.78125 59.964844 39.789062 59.96875 39.796875 C 59.976562 39.808594 59.988281 39.820312 59.996094 39.832031 C 60 39.839844 60.003906 39.84375 60.007812 39.851562 C 60.019531 39.863281 60.027344 39.875 60.035156 39.886719 C 60.042969 39.898438 60.054688 39.914062 60.0625 39.925781 C 60.070312 39.9375 60.082031 39.949219 60.089844 39.960938 C 60.097656 39.972656 60.109375 39.988281 60.117188 40 Z M 60.28125 4.101562 C 60.730469 5.925781 60.984375 8.285156 61.238281 10.160156 C 61.339844 10.929688 61.355469 11.898438 61.875 12.234375 C 62.078125 11.332031 61.675781 10.390625 61.554688 9.285156 C 61.332031 7.222656 61.453125 4.667969 60.359375 3.863281 L 60.199219 3.863281 C 60.210938 3.957031 60.1875 4.089844 60.28125 4.101562 "/></g><path style=" stroke:none;fill-rule:nonzero;fill:#194e92;fill-opacity:1;" d="M 57.570312 11.355469 C 57.746094 11.800781 57.285156 12.304688 56.773438 12.074219 C 56.722656 11.519531 57.070312 11.363281 57.570312 11.355469 "/><path style=" stroke:none;fill-rule:nonzero;fill:#194e92;fill-opacity:1;" d="M 57.011719 10.320312 C 57.136719 10.578125 56.960938 10.796875 56.851562 11.039062 L 56.453125 11.039062 C 56.242188 10.679688 56.46875 10.175781 57.011719 10.320312 "/><g style="fill:#194e92;fill-opacity:1;"><g transform="translate(54.51734, 23.723107)"><path style="stroke:none" d="M 2.3125 -2.546875 C 2.320312 -2.441406 2.332031 -2.328125 2.34375 -2.203125 C 2.351562 -2.078125 2.398438 -1.953125 2.484375 -1.828125 C 2.515625 -1.867188 2.539062 -1.898438 2.5625 -1.921875 C 2.582031 -1.953125 2.601562 -1.984375 2.625 -2.015625 C 2.988281 -2.679688 3.347656 -3.347656 3.703125 -4.015625 C 4.066406 -4.679688 4.429688 -5.347656 4.796875 -6.015625 C 4.921875 -6.242188 5.046875 -6.46875 5.171875 -6.6875 C 5.304688 -6.914062 5.441406 -7.144531 5.578125 -7.375 C 5.628906 -7.46875 5.695312 -7.550781 5.78125 -7.625 C 5.957031 -7.78125 6.117188 -7.804688 6.265625 -7.703125 C 6.347656 -7.648438 6.410156 -7.570312 6.453125 -7.46875 C 6.492188 -7.375 6.503906 -7.28125 6.484375 -7.1875 C 6.460938 -7.082031 6.429688 -7.003906 6.390625 -6.953125 C 6.117188 -6.554688 5.882812 -6.148438 5.6875 -5.734375 C 5.488281 -5.316406 5.28125 -4.898438 5.0625 -4.484375 C 4.71875 -3.828125 4.351562 -3.179688 3.96875 -2.546875 C 3.582031 -1.921875 3.195312 -1.289062 2.8125 -0.65625 C 2.78125 -0.601562 2.742188 -0.550781 2.703125 -0.5 C 2.660156 -0.445312 2.617188 -0.394531 2.578125 -0.34375 C 2.421875 -0.125 2.210938 -0.0390625 1.953125 -0.09375 C 1.703125 -0.144531 1.554688 -0.316406 1.515625 -0.609375 C 1.472656 -0.953125 1.425781 -1.300781 1.375 -1.65625 C 1.332031 -2.019531 1.296875 -2.378906 1.265625 -2.734375 C 1.253906 -2.816406 1.25 -2.894531 1.25 -2.96875 C 1.25 -3.039062 1.242188 -3.113281 1.234375 -3.1875 C 1.203125 -3.625 1.164062 -4.054688 1.125 -4.484375 C 1.082031 -4.921875 1.046875 -5.359375 1.015625 -5.796875 C 1.003906 -6.015625 1.003906 -6.226562 1.015625 -6.4375 C 1.035156 -6.65625 1.050781 -6.875 1.0625 -7.09375 C 1.070312 -7.164062 1.082031 -7.238281 1.09375 -7.3125 C 1.113281 -7.382812 1.140625 -7.457031 1.171875 -7.53125 C 1.234375 -7.65625 1.332031 -7.722656 1.46875 -7.734375 C 1.613281 -7.753906 1.734375 -7.707031 1.828125 -7.59375 C 1.898438 -7.507812 1.941406 -7.414062 1.953125 -7.3125 C 1.972656 -7.207031 1.984375 -7.109375 1.984375 -7.015625 C 1.992188 -6.921875 2 -6.820312 2 -6.71875 C 1.988281 -6.226562 2.007812 -5.738281 2.0625 -5.25 C 2.125 -4.757812 2.179688 -4.273438 2.234375 -3.796875 C 2.253906 -3.585938 2.269531 -3.378906 2.28125 -3.171875 C 2.289062 -2.960938 2.300781 -2.753906 2.3125 -2.546875 Z M 2.3125 -2.546875 "/></g></g><g style="fill:#194e92;fill-opacity:1;"><g transform="translate(60.376716, 23.723107)"><path style="stroke:none" d="M 5.4375 -7.359375 C 5.8125 -6.929688 6.050781 -6.453125 6.15625 -5.921875 C 6.269531 -5.398438 6.328125 -4.835938 6.328125 -4.234375 C 6.265625 -3.441406 6.050781 -2.707031 5.6875 -2.03125 C 5.320312 -1.363281 4.796875 -0.769531 4.109375 -0.25 C 3.910156 -0.113281 3.703125 -0.00390625 3.484375 0.078125 C 3.265625 0.160156 3.03125 0.1875 2.78125 0.15625 C 2.519531 0.125 2.269531 0.0625 2.03125 -0.03125 C 1.789062 -0.125 1.578125 -0.265625 1.390625 -0.453125 C 1.097656 -0.753906 0.875 -1.078125 0.71875 -1.421875 C 0.570312 -1.773438 0.476562 -2.148438 0.4375 -2.546875 C 0.34375 -3.523438 0.460938 -4.410156 0.796875 -5.203125 C 1.128906 -6.003906 1.664062 -6.71875 2.40625 -7.34375 C 2.519531 -7.445312 2.640625 -7.535156 2.765625 -7.609375 C 2.898438 -7.691406 3.035156 -7.769531 3.171875 -7.84375 C 3.398438 -7.957031 3.660156 -8.007812 3.953125 -8 C 4.242188 -7.988281 4.523438 -7.925781 4.796875 -7.8125 C 5.066406 -7.707031 5.28125 -7.554688 5.4375 -7.359375 Z M 2.140625 -5.90625 C 1.878906 -5.476562 1.671875 -5.035156 1.515625 -4.578125 C 1.359375 -4.128906 1.289062 -3.660156 1.3125 -3.171875 C 1.28125 -2.765625 1.316406 -2.390625 1.421875 -2.046875 C 1.535156 -1.703125 1.726562 -1.390625 2 -1.109375 C 2.195312 -0.910156 2.414062 -0.785156 2.65625 -0.734375 C 2.875 -0.691406 3.070312 -0.707031 3.25 -0.78125 C 3.425781 -0.851562 3.59375 -0.945312 3.75 -1.0625 C 4.1875 -1.4375 4.53125 -1.878906 4.78125 -2.390625 C 4.914062 -2.671875 5.015625 -2.96875 5.078125 -3.28125 C 5.148438 -3.59375 5.222656 -3.898438 5.296875 -4.203125 C 5.378906 -4.597656 5.390625 -4.976562 5.328125 -5.34375 C 5.265625 -5.707031 5.160156 -6.066406 5.015625 -6.421875 C 4.984375 -6.484375 4.945312 -6.546875 4.90625 -6.609375 C 4.863281 -6.679688 4.820312 -6.75 4.78125 -6.8125 C 4.707031 -6.90625 4.617188 -6.984375 4.515625 -7.046875 C 4.410156 -7.117188 4.296875 -7.148438 4.171875 -7.140625 C 3.960938 -7.128906 3.753906 -7.101562 3.546875 -7.0625 C 3.347656 -7.019531 3.164062 -6.929688 3 -6.796875 C 2.832031 -6.679688 2.675781 -6.546875 2.53125 -6.390625 C 2.382812 -6.242188 2.253906 -6.082031 2.140625 -5.90625 Z M 2.140625 -5.90625 "/></g></g><g style="fill:#194e92;fill-opacity:1;"><g transform="translate(67.108289, 23.723107)"><path style="stroke:none" d="M 0.96875 -1.734375 C 0.914062 -1.609375 0.875 -1.472656 0.84375 -1.328125 C 0.820312 -1.179688 0.785156 -1.015625 0.734375 -0.828125 C 1.128906 -0.835938 1.507812 -0.835938 1.875 -0.828125 C 2.238281 -0.816406 2.597656 -0.832031 2.953125 -0.875 C 3.148438 -0.894531 3.34375 -0.882812 3.53125 -0.84375 C 3.632812 -0.820312 3.707031 -0.773438 3.75 -0.703125 C 3.789062 -0.640625 3.8125 -0.554688 3.8125 -0.453125 C 3.800781 -0.367188 3.769531 -0.300781 3.71875 -0.25 C 3.664062 -0.195312 3.601562 -0.160156 3.53125 -0.140625 C 3.414062 -0.0859375 3.289062 -0.0625 3.15625 -0.0625 C 3.03125 -0.0625 2.910156 -0.0546875 2.796875 -0.046875 C 2.679688 -0.046875 2.5625 -0.046875 2.4375 -0.046875 L 0.40625 -0.046875 C 0.375 -0.046875 0.332031 -0.046875 0.28125 -0.046875 C 0.238281 -0.046875 0.195312 -0.0507812 0.15625 -0.0625 C 0.0703125 -0.0703125 0 -0.113281 -0.0625 -0.1875 C -0.132812 -0.257812 -0.171875 -0.332031 -0.171875 -0.40625 C -0.171875 -0.476562 -0.160156 -0.546875 -0.140625 -0.609375 C -0.128906 -0.671875 -0.113281 -0.734375 -0.09375 -0.796875 C 0.34375 -2.453125 0.785156 -4.109375 1.234375 -5.765625 C 1.316406 -6.046875 1.40625 -6.320312 1.5 -6.59375 C 1.59375 -6.875 1.6875 -7.148438 1.78125 -7.421875 C 1.789062 -7.460938 1.800781 -7.492188 1.8125 -7.515625 C 1.820312 -7.546875 1.835938 -7.578125 1.859375 -7.609375 C 1.910156 -7.671875 1.984375 -7.71875 2.078125 -7.75 C 2.171875 -7.789062 2.25 -7.800781 2.3125 -7.78125 C 2.457031 -7.71875 2.519531 -7.585938 2.5 -7.390625 C 2.5 -7.359375 2.5 -7.328125 2.5 -7.296875 C 2.5 -7.265625 2.488281 -7.226562 2.46875 -7.1875 C 2.226562 -6.28125 2 -5.363281 1.78125 -4.4375 C 1.5625 -3.519531 1.289062 -2.617188 0.96875 -1.734375 Z M 0.96875 -1.734375 "/></g></g><g style="fill:#194e92;fill-opacity:1;"><g transform="translate(71.871827, 23.723107)"><path style="stroke:none" d="M 2.6875 -6.171875 C 2.707031 -6.242188 2.726562 -6.328125 2.75 -6.421875 C 2.769531 -6.515625 2.800781 -6.628906 2.84375 -6.765625 C 2.65625 -6.773438 2.484375 -6.78125 2.328125 -6.78125 C 2.179688 -6.789062 2.039062 -6.800781 1.90625 -6.8125 C 1.78125 -6.8125 1.65625 -6.8125 1.53125 -6.8125 C 1.414062 -6.8125 1.300781 -6.816406 1.1875 -6.828125 C 1.050781 -6.835938 0.960938 -6.898438 0.921875 -7.015625 C 0.878906 -7.128906 0.894531 -7.242188 0.96875 -7.359375 C 1.0625 -7.492188 1.191406 -7.566406 1.359375 -7.578125 C 1.515625 -7.585938 1.675781 -7.601562 1.84375 -7.625 C 2.007812 -7.644531 2.171875 -7.644531 2.328125 -7.625 C 2.648438 -7.582031 2.972656 -7.578125 3.296875 -7.609375 C 3.628906 -7.640625 3.957031 -7.660156 4.28125 -7.671875 C 4.445312 -7.691406 4.617188 -7.703125 4.796875 -7.703125 C 4.972656 -7.703125 5.144531 -7.695312 5.3125 -7.6875 C 5.476562 -7.664062 5.617188 -7.617188 5.734375 -7.546875 C 5.847656 -7.492188 5.90625 -7.394531 5.90625 -7.25 C 5.90625 -7.113281 5.847656 -7.015625 5.734375 -6.953125 C 5.648438 -6.910156 5.5625 -6.878906 5.46875 -6.859375 C 5.375 -6.835938 5.28125 -6.820312 5.1875 -6.8125 C 5 -6.800781 4.8125 -6.796875 4.625 -6.796875 C 4.445312 -6.796875 4.265625 -6.785156 4.078125 -6.765625 C 4.015625 -6.765625 3.945312 -6.753906 3.875 -6.734375 C 3.800781 -6.722656 3.722656 -6.707031 3.640625 -6.6875 C 3.585938 -6.445312 3.535156 -6.207031 3.484375 -5.96875 C 3.429688 -5.726562 3.378906 -5.488281 3.328125 -5.25 C 3.171875 -4.5 3.015625 -3.753906 2.859375 -3.015625 C 2.703125 -2.273438 2.546875 -1.53125 2.390625 -0.78125 C 2.367188 -0.695312 2.332031 -0.609375 2.28125 -0.515625 C 2.238281 -0.429688 2.191406 -0.347656 2.140625 -0.265625 C 2.035156 -0.128906 1.894531 -0.09375 1.71875 -0.15625 C 1.632812 -0.1875 1.570312 -0.234375 1.53125 -0.296875 C 1.5 -0.359375 1.484375 -0.425781 1.484375 -0.5 C 1.484375 -0.65625 1.492188 -0.8125 1.515625 -0.96875 C 1.578125 -1.3125 1.644531 -1.660156 1.71875 -2.015625 C 1.789062 -2.367188 1.863281 -2.71875 1.9375 -3.0625 C 2.050781 -3.582031 2.171875 -4.097656 2.296875 -4.609375 C 2.429688 -5.128906 2.5625 -5.648438 2.6875 -6.171875 Z M 2.6875 -6.171875 "/></g></g><g style="fill:#194e92;fill-opacity:1;"><g transform="translate(76.959646, 23.723107)"><path style="stroke:none" d="M 3.53125 -1.90625 C 3.289062 -1.96875 3.0625 -1.992188 2.84375 -1.984375 C 2.625 -1.984375 2.40625 -1.972656 2.1875 -1.953125 C 1.882812 -1.921875 1.65625 -1.898438 1.5 -1.890625 C 1.351562 -1.890625 1.238281 -1.863281 1.15625 -1.8125 C 1.082031 -1.769531 1.007812 -1.679688 0.9375 -1.546875 C 0.863281 -1.421875 0.753906 -1.222656 0.609375 -0.953125 C 0.554688 -0.835938 0.484375 -0.726562 0.390625 -0.625 C 0.304688 -0.53125 0.222656 -0.429688 0.140625 -0.328125 C 0.0351562 -0.203125 -0.0976562 -0.175781 -0.265625 -0.25 C -0.359375 -0.300781 -0.429688 -0.367188 -0.484375 -0.453125 C -0.546875 -0.535156 -0.566406 -0.625 -0.546875 -0.71875 C -0.535156 -0.789062 -0.515625 -0.863281 -0.484375 -0.9375 C -0.460938 -1.007812 -0.4375 -1.082031 -0.40625 -1.15625 C -0.101562 -1.738281 0.1875 -2.320312 0.46875 -2.90625 C 0.757812 -3.488281 1.0625 -4.0625 1.375 -4.625 C 1.632812 -5.09375 1.90625 -5.550781 2.1875 -6 C 2.476562 -6.445312 2.765625 -6.894531 3.046875 -7.34375 C 3.085938 -7.40625 3.128906 -7.46875 3.171875 -7.53125 C 3.222656 -7.59375 3.273438 -7.648438 3.328125 -7.703125 C 3.429688 -7.773438 3.546875 -7.8125 3.671875 -7.8125 C 3.804688 -7.8125 3.925781 -7.773438 4.03125 -7.703125 C 4.132812 -7.628906 4.191406 -7.523438 4.203125 -7.390625 C 4.222656 -7.222656 4.242188 -7.050781 4.265625 -6.875 C 4.285156 -6.695312 4.300781 -6.523438 4.3125 -6.359375 C 4.34375 -5.941406 4.375 -5.519531 4.40625 -5.09375 C 4.4375 -4.664062 4.46875 -4.242188 4.5 -3.828125 C 4.507812 -3.609375 4.523438 -3.390625 4.546875 -3.171875 C 4.566406 -2.960938 4.582031 -2.75 4.59375 -2.53125 C 4.613281 -2.3125 4.632812 -2.09375 4.65625 -1.875 C 4.6875 -1.664062 4.703125 -1.453125 4.703125 -1.234375 C 4.710938 -1.085938 4.710938 -0.941406 4.703125 -0.796875 C 4.703125 -0.660156 4.695312 -0.523438 4.6875 -0.390625 C 4.644531 -0.148438 4.488281 -0.0234375 4.21875 -0.015625 C 4 -0.015625 3.847656 -0.117188 3.765625 -0.328125 C 3.753906 -0.378906 3.742188 -0.429688 3.734375 -0.484375 C 3.722656 -0.535156 3.710938 -0.585938 3.703125 -0.640625 Z M 1.71875 -2.921875 C 2.019531 -2.941406 2.304688 -2.960938 2.578125 -2.984375 C 2.847656 -3.003906 3.113281 -3.023438 3.375 -3.046875 C 3.414062 -3.273438 3.425781 -3.617188 3.40625 -4.078125 C 3.394531 -4.546875 3.351562 -5.066406 3.28125 -5.640625 C 3.28125 -5.648438 3.265625 -5.660156 3.234375 -5.671875 C 3.210938 -5.679688 3.191406 -5.695312 3.171875 -5.71875 C 2.898438 -5.28125 2.640625 -4.832031 2.390625 -4.375 C 2.148438 -3.914062 1.925781 -3.429688 1.71875 -2.921875 Z M 1.71875 -2.921875 "/></g></g><g style="fill:#194e92;fill-opacity:1;"><g transform="translate(82.684837, 23.723107)"><path style="stroke:none" d="M 4.3125 -3.6875 C 4.226562 -3.65625 4.140625 -3.617188 4.046875 -3.578125 C 3.960938 -3.546875 3.867188 -3.515625 3.765625 -3.484375 C 3.785156 -3.410156 3.800781 -3.335938 3.8125 -3.265625 C 3.832031 -3.203125 3.851562 -3.144531 3.875 -3.09375 C 4.019531 -2.71875 4.171875 -2.34375 4.328125 -1.96875 C 4.484375 -1.59375 4.632812 -1.21875 4.78125 -0.84375 C 4.832031 -0.71875 4.859375 -0.59375 4.859375 -0.46875 C 4.859375 -0.269531 4.769531 -0.132812 4.59375 -0.0625 C 4.40625 0.0195312 4.242188 -0.00390625 4.109375 -0.140625 C 4.054688 -0.203125 4.007812 -0.257812 3.96875 -0.3125 C 3.925781 -0.375 3.882812 -0.441406 3.84375 -0.515625 C 3.789062 -0.628906 3.738281 -0.75 3.6875 -0.875 C 3.644531 -1 3.601562 -1.117188 3.5625 -1.234375 C 3.4375 -1.585938 3.3125 -1.9375 3.1875 -2.28125 C 3.0625 -2.632812 2.9375 -2.984375 2.8125 -3.328125 L 1.609375 -3.53125 C 1.597656 -3.519531 1.578125 -3.503906 1.546875 -3.484375 C 1.523438 -3.460938 1.515625 -3.4375 1.515625 -3.40625 C 1.441406 -3.144531 1.367188 -2.878906 1.296875 -2.609375 C 1.234375 -2.347656 1.164062 -2.085938 1.09375 -1.828125 L 0.734375 -0.515625 C 0.722656 -0.484375 0.707031 -0.453125 0.6875 -0.421875 C 0.675781 -0.390625 0.664062 -0.359375 0.65625 -0.328125 C 0.613281 -0.253906 0.566406 -0.179688 0.515625 -0.109375 C 0.460938 -0.046875 0.382812 -0.0195312 0.28125 -0.03125 C 0.1875 -0.0390625 0.0976562 -0.0859375 0.015625 -0.171875 C -0.0664062 -0.265625 -0.113281 -0.367188 -0.125 -0.484375 C -0.125 -0.578125 -0.117188 -0.671875 -0.109375 -0.765625 C -0.0976562 -0.867188 -0.0820312 -0.96875 -0.0625 -1.0625 C 0.175781 -1.738281 0.375 -2.425781 0.53125 -3.125 C 0.6875 -3.832031 0.863281 -4.53125 1.0625 -5.21875 C 1.164062 -5.5625 1.269531 -5.910156 1.375 -6.265625 C 1.488281 -6.617188 1.601562 -6.96875 1.71875 -7.3125 C 1.78125 -7.519531 1.847656 -7.640625 1.921875 -7.671875 C 1.992188 -7.710938 2.132812 -7.734375 2.34375 -7.734375 C 2.53125 -7.734375 2.722656 -7.734375 2.921875 -7.734375 C 3.117188 -7.734375 3.3125 -7.75 3.5 -7.78125 C 3.726562 -7.820312 3.945312 -7.820312 4.15625 -7.78125 C 4.363281 -7.738281 4.570312 -7.691406 4.78125 -7.640625 C 4.957031 -7.597656 5.109375 -7.515625 5.234375 -7.390625 C 5.359375 -7.273438 5.46875 -7.140625 5.5625 -6.984375 C 5.78125 -6.597656 5.890625 -6.207031 5.890625 -5.8125 C 5.890625 -5.425781 5.785156 -5.046875 5.578125 -4.671875 C 5.441406 -4.441406 5.257812 -4.242188 5.03125 -4.078125 C 4.8125 -3.921875 4.570312 -3.789062 4.3125 -3.6875 Z M 2.34375 -6.875 C 2.238281 -6.5 2.140625 -6.113281 2.046875 -5.71875 C 1.953125 -5.332031 1.851562 -4.925781 1.75 -4.5 C 1.851562 -4.46875 1.9375 -4.4375 2 -4.40625 C 2.070312 -4.375 2.132812 -4.351562 2.1875 -4.34375 C 2.601562 -4.289062 3 -4.300781 3.375 -4.375 C 3.757812 -4.445312 4.128906 -4.597656 4.484375 -4.828125 C 4.617188 -4.898438 4.722656 -5.003906 4.796875 -5.140625 C 4.878906 -5.273438 4.941406 -5.414062 4.984375 -5.5625 C 5.066406 -5.90625 5.019531 -6.210938 4.84375 -6.484375 C 4.664062 -6.765625 4.398438 -6.9375 4.046875 -7 C 3.773438 -7.03125 3.492188 -7.039062 3.203125 -7.03125 C 2.921875 -7.019531 2.632812 -6.96875 2.34375 -6.875 Z M 2.34375 -6.875 "/></g></g></g></svg>